<?xml version="1.0" standalone="no"?>
<!DOCTYPE svg PUBLIC "-//W3C//DTD SVG 1.1//EN" "http://www.w3.org/Graphics/SVG/1.1/DTD/svg11.dtd" >
<svg xmlns="http://www.w3.org/2000/svg" xmlns:xlink="http://www.w3.org/1999/xlink" version="1.1">
<metadata>
Created by FontForge 20150824 at Sat Sep 17 04:54:04 2016
 By Everything Fonts
(c) 2008 Microsoft Corporation. All rights reserved.
</metadata>
<defs>
<font id="kartikab_0" horiz-adv-x="1225" >
  <font-face 
    font-family="kartikab_0"
    font-weight="700"
    font-stretch="normal"
    units-per-em="2048"
    panose-1="2 2 8 3 3 4 4 6 2 3"
    ascent="1638"
    descent="-410"
    x-height="1098"
    cap-height="1518"
    bbox="-1906 -947 4267 2013"
    underline-thickness="72"
    underline-position="-464"
    unicode-range="U+0020-25CC"
  />
<missing-glyph horiz-adv-x="1025" 
d="M129 0v1993h768v-1993h-768zM256 129h513v1736h-513v-1736z" />
    <glyph glyph-name=".notdef" horiz-adv-x="1025" 
d="M129 0v1993h768v-1993h-768zM256 129h513v1736h-513v-1736z" />
    <glyph glyph-name=".null" unicode="&#x200b;" horiz-adv-x="0" 
 />
    <glyph glyph-name="nonmarkingreturn" horiz-adv-x="1321" 
 />
    <glyph glyph-name="space" unicode=" " horiz-adv-x="596" 
 />
    <glyph glyph-name="exclam" unicode="!" horiz-adv-x="616" 
d="M442 0h-268v252h268v-252zM442 1204l-39 -786h-188l-41 786v314h268v-314z" />
    <glyph glyph-name="quotedbl" unicode="&#x22;" horiz-adv-x="838" 
d="M752 1475l-50 -523h-159l-54 523v43h263v-43zM348 1475l-51 -523h-160l-53 523v43h264v-43z" />
    <glyph glyph-name="numbersign" unicode="#" horiz-adv-x="1179" 
d="M1155 869h-196l-53 -258h171v-229h-218l-78 -382h-239l79 382h-210l-79 -382h-238l78 382h-149v229h196l53 258h-172v229h218l79 385h237l-78 -385h211l79 385h236l-78 -385h151v-229zM721 869h-211l-53 -258h209z" />
    <glyph glyph-name="dollar" unicode="$" horiz-adv-x="1179" 
d="M694 875q118 -27 191.5 -63t117.5 -85q95 -108 95 -281q0 -85 -27 -163.5t-78.5 -141t-126.5 -104.5t-172 -55v-151h-194v151q-102 14 -177.5 52t-126.5 100.5t-79.5 149.5t-35.5 199h277q9 -106 45 -170t97 -90v439q-386 92 -386 411q0 89 27.5 162t78 128t121.5 90
t159 49v151h194v-150q337 -48 377 -430h-281q-10 151 -96 188v-386zM500 1263q-109 -44 -109 -176q0 -68 29 -105.5t80 -59.5v341zM694 221q127 44 127 213q0 36 -5 63.5t-19.5 48.5t-39 37t-63.5 30v-392z" />
    <glyph glyph-name="percent" unicode="%" horiz-adv-x="1885" 
d="M515 1507q78 0 145 -28.5t115.5 -81.5t76 -130t27.5 -174q0 -96 -27 -172.5t-75 -130.5t-115 -82.5t-147 -28.5q-81 0 -147.5 28.5t-114 82t-74 130.5t-26.5 173q0 97 27 174t75 130.5t114.5 81.5t145.5 28zM515 884q119 0 119 209t-119 209q-118 0 -118 -209t118 -209z
M1467 1483l-810 -1483h-243l811 1483h242zM1369 806q79 0 146 -29t115 -83t75 -130.5t27 -171.5q0 -96 -27 -173t-75 -131t-115 -83t-146 -29q-81 0 -147.5 28.5t-114 82t-74 130.5t-26.5 175q0 97 26.5 173.5t74.5 130t114.5 82t146.5 28.5zM1369 181q119 0 119 211
q0 208 -119 208q-118 0 -118 -208q0 -211 118 -211z" />
    <glyph glyph-name="ampersand" unicode="&#x26;" horiz-adv-x="1414" 
d="M1320 131l-209 -176l-120 154q-169 -133 -409 -133q-106 0 -195.5 35.5t-154.5 97t-101.5 144t-36.5 175.5q0 146 90 253q37 45 90.5 88.5t123.5 86.5q-66 91 -97 162.5t-31 132.5q0 76 29.5 141t82 113t124.5 75t156 27q79 0 146.5 -26.5t117 -73t78 -109t28.5 -133.5
q0 -56 -15 -104.5t-46.5 -92.5t-79 -85t-111.5 -81q30 -37 52 -64t43 -53t44 -55t55 -69q9 39 14.5 84.5t7.5 99.5h279q-7 -130 -33.5 -236.5t-71.5 -189.5zM634 985q68 41 99.5 81.5t31.5 94.5q0 26 -9 47.5t-24.5 37t-36 24t-42.5 8.5q-49 0 -82.5 -29.5t-33.5 -79.5
q0 -30 20 -70t56 -87zM546 668q-44 -29 -77 -54t-54.5 -51.5t-32 -56t-10.5 -66.5q0 -44 16 -84t44 -71t67 -49.5t85 -18.5q151 0 252 88z" />
    <glyph glyph-name="quotesingle" unicode="'" horiz-adv-x="444" 
d="M354 1475l-51 -523h-160l-51 523v43h262v-43z" />
    <glyph glyph-name="parenleft" unicode="(" horiz-adv-x="706" 
d="M421 -409q-362 468 -362 958q0 489 362 958h225q-318 -512 -318 -958q0 -447 318 -958h-225z" />
    <glyph glyph-name="parenright" unicode=")" horiz-adv-x="706" 
d="M285 1507q362 -470 362 -958t-362 -958h-226q161 257 239.5 495t78.5 463q0 224 -78.5 462.5t-239.5 495.5h226z" />
    <glyph glyph-name="asterisk" unicode="*" horiz-adv-x="854" 
d="M489 1278l240 104l55 -165l-256 -58l177 -201l-146 -104l-135 231l-133 -231l-146 104l177 201l-256 58l55 165l239 -104l-22 264h174z" />
    <glyph glyph-name="plus" unicode="+" horiz-adv-x="1238" 
d="M1127 608h-382v-382h-252v382h-382v248h382v382h252v-382h382v-248z" />
    <glyph glyph-name="comma" unicode="," horiz-adv-x="589" 
d="M438 44q0 -72 -18.5 -131t-54.5 -100.5t-90 -64.5t-125 -23v179q89 0 95 96h-95v283h288v-239z" />
    <glyph glyph-name="hyphen" unicode="-" horiz-adv-x="706" 
d="M661 418h-616v262h616v-262z" />
    <glyph glyph-name="hyphen" unicode="&#xad;" horiz-adv-x="706" 
d="M661 418h-616v262h616v-262z" />
    <glyph glyph-name="period" unicode="." horiz-adv-x="589" 
d="M438 0h-287v283h287v-283z" />
    <glyph glyph-name="slash" unicode="/" horiz-adv-x="643" 
d="M643 1518l-440 -1518h-203l438 1518h205z" />
    <glyph glyph-name="zero" unicode="0" horiz-adv-x="1179" 
d="M588 1507q502 0 502 -767q0 -764 -502 -764q-500 0 -500 764q0 767 500 767zM588 205q55 0 96.5 27t70 89.5t43 165t14.5 253.5t-14.5 254t-43 166t-70 90.5t-96.5 27.5q-54 0 -95 -27t-69.5 -89.5t-43 -165.5t-14.5 -256q0 -152 14.5 -254.5t43 -164.5t69.5 -89t95 -27z
" />
    <glyph glyph-name="one" unicode="1" horiz-adv-x="1179" 
d="M827 0h-272v1069q-121 -44 -335 -44v229q336 0 384 253h223v-1507z" />
    <glyph glyph-name="two" unicode="2" horiz-adv-x="1179" 
d="M1097 0h-1016q0 183 86 313q40 60 115 133t185 162q98 79 165 139t108 112.5t58.5 103.5t17.5 112q0 96 -54 149.5t-154 53.5q-42 0 -80 -16.5t-67 -49.5t-48.5 -82.5t-23.5 -114.5h-279q9 112 48.5 203t104.5 155t153.5 99t195.5 35q115 0 205 -33.5t151 -92t93 -138
t32 -172.5q0 -85 -23 -157.5t-69 -137.5q-43 -60 -129.5 -143.5t-211.5 -188.5q-74 -63 -127.5 -111.5t-79.5 -78.5h644v-254z" />
    <glyph glyph-name="three" unicode="3" horiz-adv-x="1179" 
d="M1023 1101q0 -80 -34 -154.5t-104 -128.5q102 -52 155.5 -147.5t53.5 -215.5q0 -106 -39 -194t-107.5 -151.5t-161 -98.5t-199.5 -35q-108 0 -198 34.5t-156 97.5t-104.5 151.5t-44.5 197.5h281q0 -51 14.5 -97t43 -80.5t69.5 -54.5t95 -20q52 0 94.5 18.5t72.5 51t46 78
t16 99.5q0 112 -65 170.5t-192 58.5h-115v228h87q215 0 215 195q0 85 -44.5 129.5t-127.5 44.5q-172 0 -196 -221h-278q12 110 52.5 194t102.5 141t142.5 86t172.5 29q103 0 186.5 -30t143 -84t91.5 -128.5t32 -163.5z" />
    <glyph glyph-name="four" unicode="4" horiz-adv-x="1179" 
d="M1117 333h-188v-333h-272v333h-596v215l655 954h213v-923h188v-246zM657 579v445l-298 -445h298z" />
    <glyph glyph-name="five" unicode="5" horiz-adv-x="1179" 
d="M416 973q86 41 205 41q94 0 181 -35t153 -100t105.5 -156.5t39.5 -204.5q0 -115 -37 -214t-105.5 -172t-165 -114.5t-215.5 -41.5q-96 0 -181 29.5t-151.5 89t-110 149t-55.5 210.5h278q7 -63 27 -110t49 -78t66 -46t78 -15q55 0 100 23t77 63.5t50 94.5t18 116
q0 63 -18 113t-51 85t-78.5 54t-100.5 19q-129 0 -232 -115h-212l66 825h837v-253h-597z" />
    <glyph glyph-name="six" unicode="6" horiz-adv-x="1179" 
d="M616 1278q-94 0 -158 -95t-88 -275q118 84 262 84q96 0 180.5 -37t146.5 -103t98 -156.5t36 -197.5t-34.5 -202t-97.5 -166t-152.5 -112.5t-198.5 -41.5q-125 0 -222.5 47.5t-164.5 139.5t-102 226t-35 308q0 810 539 810q87 0 162.5 -27.5t135 -82t99.5 -136t55 -190.5
h-280q-24 207 -181 207zM600 764q-121 0 -242 -123q7 -212 72.5 -324t176.5 -112q48 0 86.5 22t65.5 60t41.5 89t14.5 110q0 60 -15 111t-43 88t-68 58t-89 21z" />
    <glyph glyph-name="seven" unicode="7" horiz-adv-x="1179" 
d="M1087 1306l-523 -1306h-299l520 1230h-694v253h996v-177z" />
    <glyph glyph-name="eight" unicode="8" horiz-adv-x="1179" 
d="M1040 1117q0 -197 -192 -335q247 -142 247 -367q0 -98 -37 -179t-103.5 -139t-160 -89.5t-206.5 -31.5q-112 0 -205 31.5t-159.5 89.5t-103.5 138.5t-37 179.5q0 114 60.5 205t185.5 162q-93 69 -142.5 153.5t-49.5 181.5q0 85 33 157t92 123.5t142 80.5t184 29
t184.5 -29t143 -81t92 -123.5t32.5 -156.5zM415 1117q0 -133 173 -217q175 84 175 217q0 77 -45.5 119t-129.5 42q-81 0 -127 -42t-46 -119zM817 415q0 38 -14 69.5t-42 59t-71.5 53.5t-101.5 53q-59 -28 -103 -55.5t-73 -55.5q-52 -52 -52 -124q0 -50 16.5 -89t46.5 -66
t72 -41t93 -14t93 14.5t72.5 41.5t47 66t16.5 88z" />
    <glyph glyph-name="nine" unicode="9" horiz-adv-x="1179" 
d="M564 205q95 0 156.5 94.5t86.5 276.5q-116 -85 -260 -85q-96 0 -180 37t-146.5 103t-98.5 156.5t-36 198.5q0 106 34.5 201t98 166t152.5 112.5t198 41.5q123 0 220.5 -47t165 -138.5t103 -226t35.5 -309.5q0 -810 -540 -810q-87 0 -163 27.5t-134.5 82t-98 136
t-54.5 190.5h280q22 -207 181 -207zM578 720q122 0 242 123q-3 105 -21.5 186.5t-51 136.5t-76.5 83.5t-98 28.5q-47 0 -85.5 -21.5t-66 -59t-42.5 -89t-15 -111.5t15 -111t43 -88t67.5 -57.5t88.5 -20.5z" />
    <glyph glyph-name="colon" unicode=":" horiz-adv-x="589" 
d="M438 0h-287v283h287v-283zM438 815h-287v283h287v-283z" />
    <glyph glyph-name="semicolon" unicode=";" horiz-adv-x="589" 
d="M439 44q0 -72 -18.5 -131t-54.5 -100.5t-90 -64.5t-125 -23v179q89 0 95 96h-95v283h288v-239zM439 815h-287v283h287v-283z" />
    <glyph glyph-name="less" unicode="&#x3c;" horiz-adv-x="1238" 
d="M1127 192l-1016 431v218l1016 432v-268l-662 -273l662 -273v-267z" />
    <glyph glyph-name="equal" unicode="=" horiz-adv-x="1238" 
d="M1127 820h-1016v249h1016v-249zM1127 396h-1016v248h1016v-248z" />
    <glyph glyph-name="greater" unicode="&#x3e;" horiz-adv-x="1238" 
d="M1127 623l-1016 -431v267l663 273l-663 273v268l1016 -432v-218z" />
    <glyph glyph-name="question" unicode="?" horiz-adv-x="1179" 
d="M91 1015q10 113 51 204t107 155t153.5 98.5t191.5 34.5q110 0 201 -31.5t156 -88t101 -134.5t36 -170q0 -106 -48 -193q-45 -88 -170 -191q-54 -45 -87 -79.5t-44 -59.5q-23 -49 -23 -217h-259q1 115 11.5 195t33.5 127q45 92 163 190q51 43 80.5 73.5t44.5 54t18.5 44
t3.5 44.5q0 45 -16 82.5t-44.5 65.5t-68 43.5t-87.5 15.5q-189 0 -229 -263h-276zM736 0h-287v283h287v-283z" />
    <glyph glyph-name="at" unicode="@" horiz-adv-x="2152" 
d="M1694 -294q-261 -115 -534 -115q-233 0 -419.5 61.5t-317.5 178t-201 283t-70 376.5q0 437 279 728t708 291q390 0 625 -223q236 -224 236 -563q0 -171 -47 -305.5t-130.5 -227.5t-196.5 -142.5t-245 -49.5q-72 0 -124 29.5t-80 79.5q-114 -109 -272 -109
q-85 0 -156.5 30.5t-123.5 86.5t-81.5 136.5t-29.5 180.5q0 269 165 476q169 211 374 211q170 0 273 -76l11 49h265l-159 -693q-11 -48 -17.5 -79t-6.5 -55q0 -39 36 -39q39 0 101 34t108.5 98.5t74 157.5t27.5 210q0 121 -46 224t-129.5 178t-199 117.5t-254.5 42.5
q-165 0 -299.5 -57.5t-240.5 -172.5q-214 -234 -214 -568q0 -162 52.5 -288t152.5 -213t244 -132.5t326 -45.5q222 0 418 89zM1271 805q-66 86 -204 86q-56 0 -107 -42t-91 -108t-63.5 -146.5t-23.5 -156.5q0 -212 158 -212q42 0 82.5 20t75.5 56t62 86.5t42 111.5z" />
    <glyph glyph-name="A" unicode="A" horiz-adv-x="1461" 
d="M898 675l-184 481l-174 -481h358zM1468 0h-316l-166 434h-531l-158 -434h-300l583 1518h270z" />
    <glyph glyph-name="B" unicode="B" horiz-adv-x="1461" 
d="M1342 461q0 -226 -146 -343.5t-434 -117.5h-583v1518h556q122 0 221 -28.5t169.5 -81.5t108.5 -129t38 -171q0 -96 -35.5 -168t-110.5 -126q55 -26 95.5 -64t67.5 -84t40 -98t13 -107zM462 920h271q132 0 195 39.5t63 132.5q0 42 -14.5 73t-47 51.5t-85.5 30.5t-129 10
h-253v-337zM462 261h299q291 0 291 200q0 52 -15 89.5t-52 62.5t-98 37t-152 12h-273v-401z" />
    <glyph glyph-name="C" unicode="C" horiz-adv-x="1577" 
d="M1168 995q-5 68 -32.5 122.5t-72.5 93t-105.5 59t-129.5 20.5q-98 0 -176 -34.5t-133.5 -102t-85 -166.5t-29.5 -227t30 -227t84.5 -166.5t132 -103t173.5 -35.5q73 0 133.5 20.5t105.5 61t72 99t34 135.5h289q-12 -136 -63.5 -241.5t-135 -178t-193.5 -110.5t-239 -38
q-164 0 -295.5 55.5t-224 157.5t-142.5 247t-50 324t50.5 324t143.5 247.5t224.5 158t293.5 55.5q123 0 232 -39.5t193.5 -111.5t139 -173.5t66.5 -225.5h-290z" />
    <glyph glyph-name="D" unicode="D" horiz-adv-x="1577" 
d="M1456 767q0 -767 -775 -767h-500v1518h500q775 0 775 -751zM1167 767q0 115 -22.5 206t-78.5 154t-150 96.5t-237 33.5h-215v-996h215q142 0 236 34.5t150 99.5t79 159t23 213z" />
    <glyph glyph-name="E" unicode="E" horiz-adv-x="1461" 
d="M1339 0h-1160v1518h1127v-261h-844v-343h790v-259h-790v-394h877v-261z" />
    <glyph glyph-name="F" unicode="F" horiz-adv-x="1341" 
d="M1236 1257h-776v-350h675v-260h-675v-647h-283v1518h1059v-261z" />
    <glyph glyph-name="G" unicode="G" horiz-adv-x="1696" 
d="M853 -24q-165 0 -301 56.5t-232.5 159t-150 247t-53.5 321.5q0 180 53.5 324.5t150 246t231 156.5t296.5 55q136 0 254 -39t207.5 -110.5t145 -172.5t66.5 -226h-291q-6 70 -34.5 124.5t-77.5 92.5t-116.5 58t-150.5 20q-99 0 -180.5 -35t-140 -102.5t-91 -166
t-32.5 -225.5q0 -125 32.5 -223.5t91 -167t140.5 -105t181 -36.5q142 0 242.5 41.5t169.5 129.5v159h-376v261h656v-819h-218l-36 109q-79 -66 -187.5 -99.5t-248.5 -33.5z" />
    <glyph glyph-name="H" unicode="H" horiz-adv-x="1577" 
d="M1397 0h-285v672h-649v-672h-283v1518h283v-585h649v585h285v-1518z" />
    <glyph glyph-name="I" unicode="I" horiz-adv-x="635" 
d="M474 0h-282v1518h282v-1518z" />
    <glyph glyph-name="J" unicode="J" horiz-adv-x="1106" 
d="M944 502q0 -143 -28 -243t-84 -163t-139.5 -91.5t-195.5 -28.5q-99 0 -178 31t-135 88t-86 138t-30 181v84h282q0 -263 147 -263q39 0 69 10t51 38t32 78.5t11 131.5v1025h284v-1016z" />
    <glyph glyph-name="K" unicode="K" horiz-adv-x="1461" 
d="M1487 0h-363l-491 688l-169 -166v-522h-283v1518h283v-639l631 639h387l-648 -634z" />
    <glyph glyph-name="L" unicode="L" 
d="M1155 0h-979v1518h283v-1257h696v-261z" />
    <glyph glyph-name="M" unicode="M" horiz-adv-x="1814" 
d="M1622 0h-275v972l-327 -972h-238l-325 972v-972h-274v1518h368l351 -1082l353 1082h367v-1518z" />
    <glyph glyph-name="N" unicode="N" horiz-adv-x="1577" 
d="M1397 0h-267l-677 1015v-1015h-273v1518h268l674 -1017v1017h275v-1518z" />
    <glyph glyph-name="O" unicode="O" horiz-adv-x="1696" 
d="M847 1542q159 0 293 -56t231 -158.5t151.5 -247t54.5 -320.5q0 -174 -53.5 -318t-150.5 -247.5t-231 -161t-295 -57.5t-295 57t-231 160t-150.5 247.5t-53.5 319.5q0 177 54.5 321.5t152 247t231.5 158t292 55.5zM846 228q97 0 178.5 36.5t140 105t91 167t32.5 223.5
q0 126 -33 224.5t-91.5 166t-139 103t-174.5 35.5q-96 0 -177.5 -36t-141 -104t-92.5 -166.5t-33 -222.5q0 -125 33 -223.5t91.5 -167t139 -105t176.5 -36.5z" />
    <glyph glyph-name="P" unicode="P" horiz-adv-x="1461" 
d="M179 1518h582q78 0 152.5 -8.5t141 -29.5t122 -55t95.5 -85.5t62.5 -121.5t22.5 -162q0 -242 -146.5 -363.5t-436.5 -121.5h-312v-571h-283v1518zM462 831h317q78 0 133 14.5t89.5 42.5t50.5 69t16 95q0 65 -24 105t-64.5 62.5t-94 30t-112.5 7.5h-311v-426z" />
    <glyph glyph-name="Q" unicode="Q" horiz-adv-x="1696" 
d="M1621 71l-172 -204l-245 195q-82 -45 -169 -65.5t-187 -20.5q-161 0 -295.5 57t-231 160t-150.5 247.5t-54 319.5q0 177 55 321.5t152.5 247t231.5 158t292 55.5q159 0 292.5 -56t231 -158.5t152 -247t54.5 -320.5q0 -157 -42 -286.5t-125 -235.5zM1195 405
q47 69 70.5 157t23.5 198q0 126 -33 224.5t-91.5 166t-139 103t-174.5 35.5q-96 0 -177.5 -36t-141 -104t-92.5 -166.5t-33 -222.5q0 -125 32.5 -223.5t91 -167t139.5 -105t177 -36.5q64 0 123 17l-116 91l171 205z" />
    <glyph glyph-name="R" unicode="R" horiz-adv-x="1577" 
d="M1486 0h-305l-145 413q-16 43 -42 79t-60.5 62t-76.5 41t-89 15h-304v-610h-283v1518h680q61 0 116 -2.5t105.5 -13t97 -31t88.5 -56.5q37 -32 65 -71.5t46.5 -83.5t28 -91.5t9.5 -94.5q0 -139 -67 -238.5t-185 -152.5q97 -74 158 -234zM464 871h377q76 0 130.5 10.5
t89 34.5t50.5 63t16 95q0 101 -63 148.5t-194 47.5h-406v-399z" />
    <glyph glyph-name="S" unicode="S" horiz-adv-x="1461" 
d="M765 -24q-163 0 -284.5 42.5t-203.5 118.5t-124.5 181.5t-46.5 231.5h275q7 -81 39.5 -140.5t82.5 -98.5t114.5 -57.5t137.5 -18.5q69 0 126 14t97.5 39.5t62.5 62.5t22 83q0 47 -21.5 80t-69.5 59t-126 47.5t-192 44.5q-130 29 -224 67.5t-154.5 91t-89.5 121t-29 157.5
q0 96 40 176.5t113.5 139t175.5 91.5t227 33q130 0 237.5 -35.5t185.5 -102t122.5 -163t47.5 -218.5h-272q-30 259 -313 259q-138 0 -211 -46.5t-73 -127.5q0 -33 16 -57.5t51 -45t90 -37.5t133 -33q68 -14 139.5 -31t140 -41t129 -58.5t106.5 -83.5t72.5 -115.5
t26.5 -155.5q0 -105 -43 -192t-119.5 -149.5t-182.5 -97.5t-231 -35z" />
    <glyph glyph-name="T" unicode="T" horiz-adv-x="1341" 
d="M1287 1257h-472v-1257h-284v1257h-470v261h1226v-261z" />
    <glyph glyph-name="U" unicode="U" horiz-adv-x="1577" 
d="M788 -24q-143 0 -244 28.5t-168.5 77.5t-106.5 115t-59 140.5t-25 154t-5 156.5v870h283v-867q0 -129 21.5 -210.5t63 -127t102 -62t138.5 -16.5q79 0 140 17t101.5 62.5t61.5 126.5t21 210v867h285v-870q0 -158 -27.5 -283t-96.5 -211.5t-186.5 -132t-298.5 -45.5z" />
    <glyph glyph-name="V" unicode="V" horiz-adv-x="1461" 
d="M1452 1518l-591 -1518h-261l-590 1518h304l416 -1133l419 1133h303z" />
    <glyph glyph-name="W" unicode="W" horiz-adv-x="2048" 
d="M2001 1518l-422 -1518h-252l-309 1112l-306 -1112h-253l-421 1518h298l251 -1021l282 1021h301l281 -1020l252 1020h298z" />
    <glyph glyph-name="X" unicode="X" horiz-adv-x="1461" 
d="M1477 0h-347l-398 570l-398 -570h-350l582 798l-526 720h346l344 -491l346 491h346l-527 -720z" />
    <glyph glyph-name="Y" unicode="Y" horiz-adv-x="1461" 
d="M1474 1518l-601 -880v-638h-283v638l-602 880h343l401 -615l399 615h343z" />
    <glyph glyph-name="Z" unicode="Z" horiz-adv-x="1341" 
d="M1277 0h-1223v239l836 1018h-755v261h1116v-240l-836 -1017h862v-261z" />
    <glyph glyph-name="bracketleft" unicode="[" horiz-adv-x="589" 
d="M571 -388h-470v1871h470v-230h-199v-1410h199v-231z" />
    <glyph glyph-name="backslash" unicode="\" horiz-adv-x="589" 
d="M614 0h-233l-430 1483h234z" />
    <glyph glyph-name="bracketright" unicode="]" horiz-adv-x="589" 
d="M495 -388h-470v231h199v1410h-199v230h470v-1871z" />
    <glyph glyph-name="asciicircum" unicode="^" horiz-adv-x="995" 
d="M939 809h-283l-180 356l-181 -356h-281l366 674h192z" />
    <glyph glyph-name="underscore" unicode="_" horiz-adv-x="1170" 
d="M1179 -306h-1189v185h1189v-185z" />
    <glyph glyph-name="grave" unicode="`" horiz-adv-x="777" 
d="M621 1155h-237l-280 357h347z" />
    <glyph glyph-name="a" unicode="a" 
d="M796 489h-79q-345 0 -345 -168q0 -56 45.5 -85.5t120.5 -29.5q38 0 75 7.5t71 22t62.5 36.5t49.5 51v166zM796 57q-134 -81 -310 -81q-83 0 -154 24t-123 68.5t-82 106.5t-30 137q0 398 656 398h43q-1 45 -7 79t-26.5 57.5t-59.5 35.5t-105 12q-195 0 -203 -173h-273
q23 403 487 403q106 0 190.5 -19t143.5 -67t91 -131t32 -210v-697h-270v57z" />
    <glyph glyph-name="b" unicode="b" 
d="M428 1043q54 40 114.5 60.5t128.5 20.5q111 0 197 -40.5t145 -115t89.5 -179t30.5 -231.5q0 -132 -36 -239.5t-99.5 -183.5t-150 -117.5t-187.5 -41.5q-69 0 -124.5 13t-107.5 44v-33h-271v1484h271v-441zM428 301q100 -95 221 -95q95 0 150.5 88.5t55.5 263.5
q0 167 -52.5 251.5t-146.5 84.5q-119 0 -228 -144v-449z" />
    <glyph glyph-name="c" unicode="c" horiz-adv-x="1106" 
d="M610 -24q-116 0 -212 38t-164.5 111t-106.5 180t-38 245q0 135 37 242t105.5 180.5t164.5 112.5t214 39q91 0 169 -27t138.5 -80t100 -130.5t53.5 -179.5h-284q-2 46 -16 81t-37.5 58.5t-55.5 35.5t-68 12q-54 0 -98.5 -21.5t-77 -65t-50 -108t-17.5 -149.5
q0 -86 17.5 -150.5t50 -107.5t77 -64.5t98.5 -21.5q34 0 65 11.5t55.5 34.5t39.5 57.5t17 80.5h284q-14 -103 -54.5 -180.5t-101 -129.5t-138 -78t-167.5 -26z" />
    <glyph glyph-name="d" unicode="d" 
d="M796 796q-102 98 -222 98q-95 0 -151 -87.5t-56 -264.5q0 -168 52.5 -252t147.5 -84q120 0 229 143v447zM796 58q-107 -82 -243 -82q-113 0 -199.5 40.5t-145.5 114.5t-89 178.5t-30 232.5q0 135 36.5 243t100 183.5t150 115.5t186.5 40q131 0 234 -59v419h270v-1484
h-270v58z" />
    <glyph glyph-name="e" unicode="e" 
d="M631 -24q-120 0 -219.5 38.5t-171 112t-110.5 180.5t-39 243q0 133 38 239.5t106.5 180.5t164 114t211.5 40q120 0 216 -39t164 -112.5t104.5 -180.5t36.5 -242v-87h-756q10 -65 33 -113t56 -80t75.5 -48t90.5 -16q36 0 72 12t65 35.5t47.5 57.5t19.5 79h286
q-15 -100 -58 -177t-107.5 -129.5t-147.5 -80t-177 -27.5zM840 692q-26 102 -85.5 152t-143.5 50q-81 0 -142 -50t-87 -152h458z" />
    <glyph glyph-name="f" unicode="f" horiz-adv-x="635" 
d="M448 870v-870h-271v870h-149v228h149v47q0 366 328 366q48 0 93 -7t86 -18v-241q-56 10 -91 13.5t-61 3.5q-45 0 -64.5 -26.5t-19.5 -92.5v-45h190v-228h-190z" />
    <glyph glyph-name="g" unicode="g" 
d="M1066 122q0 -532 -486 -532q-106 0 -190.5 27t-144 78t-91.5 119t-32 144h279q0 -139 174 -139q49 0 87.5 11t66 38t44 73t21.5 115q-109 -80 -241 -80q-113 0 -199.5 40.5t-145.5 114.5t-89 178.5t-30 232.5q0 135 36.5 243t100 183.5t150 115.5t186.5 40q131 0 234 -59
v33h270v-976zM796 796q-102 98 -222 98q-95 0 -151 -87.5t-56 -264.5q0 -168 52.5 -252t147.5 -84q120 0 229 143v447z" />
    <glyph glyph-name="h" unicode="h" 
d="M427 1033q117 91 255 91q389 0 389 -419v-705h-273v697q0 101 -33 145t-109 44q-110 0 -229 -133v-753h-271v1484h271v-451z" />
    <glyph glyph-name="i" unicode="i" horiz-adv-x="528" 
d="M412 0h-270v1098h270v-1098zM412 1201h-270v283h270v-283z" />
    <glyph glyph-name="j" unicode="j" horiz-adv-x="528" 
d="M408 -11q0 -123 -21 -200.5t-60.5 -121t-95.5 -59t-126 -15.5q-43 0 -85 4t-84 9v255q60 -20 92 -25.5t53 -5.5q17 0 28 7t17.5 26t9 50.5t2.5 81.5v1103h270v-1109zM408 1201h-270v283h270v-283z" />
    <glyph glyph-name="k" unicode="k" horiz-adv-x="1106" 
d="M1123 0h-324l-312 486l-59 -58v-428h-271v1484h271v-723l326 337h355l-435 -426z" />
    <glyph glyph-name="l" unicode="l" horiz-adv-x="528" 
d="M412 0h-270v1484h270v-1484z" />
    <glyph glyph-name="m" unicode="m" horiz-adv-x="1814" 
d="M1627 0h-274v697q0 103 -25 146t-85 43q-102 0 -213 -132v-754h-269v697q0 103 -25.5 146t-85.5 43q-100 0 -212 -132v-754h-270v1098h270v-63q57 46 115.5 67.5t124.5 21.5q106 0 179 -36t116 -111q46 48 84.5 77t73.5 44.5t68 20.5t69 5q359 0 359 -419v-705z" />
    <glyph glyph-name="n" unicode="n" 
d="M427 1033q117 91 255 91q389 0 389 -419v-705h-273v697q0 101 -33 145t-109 44q-110 0 -229 -133v-753h-271v1098h271v-65z" />
    <glyph glyph-name="o" unicode="o" 
d="M611 1124q120 0 216 -39t164 -112.5t104.5 -180.5t36.5 -242q0 -136 -37.5 -243t-105.5 -180.5t-164 -112t-214 -38.5q-116 0 -212 38t-164.5 111t-106 180t-37.5 245q0 135 37 242t105.5 180.5t164.5 112.5t213 39zM611 206q54 0 98.5 21.5t76.5 64.5t49.5 107.5
t17.5 150.5q0 85 -17.5 149.5t-49.5 108t-76.5 65t-98.5 21.5t-98.5 -21.5t-76.5 -65t-49.5 -108t-17.5 -149.5q0 -86 17.5 -150.5t49.5 -107.5t76.5 -64.5t98.5 -21.5z" />
    <glyph glyph-name="p" unicode="p" 
d="M428 1043q54 40 114.5 60.5t128.5 20.5q111 0 197 -40.5t145 -115t89.5 -179t30.5 -231.5q0 -132 -36 -239.5t-99.5 -183.5t-150 -117.5t-187.5 -41.5q-69 0 -124.5 13t-107.5 44v-421h-271v1486h271v-55zM428 301q100 -95 221 -95q95 0 150.5 88.5t55.5 263.5
q0 167 -52.5 251.5t-146.5 84.5q-119 0 -228 -144v-449z" />
    <glyph glyph-name="q" unicode="q" 
d="M1066 -388h-270v446q-107 -82 -243 -82q-113 0 -199.5 40.5t-145.5 114.5t-89 178.5t-30 232.5q0 135 36.5 243t100 183.5t150 115.5t186.5 40q131 0 234 -59v33h270v-1486zM796 796q-102 98 -222 98q-95 0 -151 -87.5t-56 -264.5q0 -168 52.5 -252t147.5 -84
q120 0 229 143v447z" />
    <glyph glyph-name="r" unicode="r" horiz-adv-x="751" 
d="M766 829q-46 14 -84.5 22t-70.5 8q-54 0 -100 -28t-91 -87v-744h-270v1098h270v-63q100 89 219 89q17 0 50 -4.5t77 -11.5v-279z" />
    <glyph glyph-name="s" unicode="s" horiz-adv-x="1106" 
d="M560 -24q-457 0 -485 414h277q2 -184 206 -184q89 0 135.5 33t46.5 83q0 23 -10 38t-38 28.5t-78.5 28t-131.5 34.5q-99 24 -170 48.5t-117.5 61t-68.5 90t-22 136.5q0 72 30 133.5t85 106.5t133 71t174 26q443 0 452 -372h-267q-10 142 -172 142q-35 0 -65.5 -6
t-52.5 -17.5t-34.5 -28t-12.5 -38.5q0 -18 6.5 -30t31 -23.5t72.5 -25t131 -33.5q101 -26 175.5 -52t123.5 -64.5t73 -94.5t24 -141q0 -78 -32 -144.5t-90.5 -115t-142 -76.5t-186.5 -28z" />
    <glyph glyph-name="t" unicode="t" horiz-adv-x="635" 
d="M629 9q-51 -13 -94 -18.5t-81 -5.5q-96 0 -152.5 22.5t-86 67t-38.5 111t-9 154.5v530h-124v228h124v252h273v-252h164v-228h-164v-538q0 -38 3.5 -61t10 -35.5t16.5 -16.5t22 -4q25 0 59.5 4t76.5 11v-221z" />
    <glyph glyph-name="u" unicode="u" 
d="M797 67q-118 -91 -258 -91q-389 0 -389 418v704h274v-695q0 -102 33.5 -145.5t108.5 -43.5q124 0 231 132v752h270v-1098h-270v67z" />
    <glyph glyph-name="v" unicode="v" horiz-adv-x="1106" 
d="M1083 1098l-415 -1098h-226l-415 1098h293l234 -691l235 691h294z" />
    <glyph glyph-name="w" unicode="w" horiz-adv-x="1577" 
d="M1533 1098l-328 -1098h-242l-183 625l-183 -625h-244l-331 1098h300l154 -635l186 635h236l188 -635l154 635h293z" />
    <glyph glyph-name="x" unicode="x" horiz-adv-x="1106" 
d="M1117 0h-337l-226 354l-225 -354h-335l403 570l-375 528h336l196 -312l196 312h336l-374 -528z" />
    <glyph glyph-name="y" unicode="y" horiz-adv-x="1106" 
d="M256 -156q96 0 169 199l-398 1055h293l234 -691l235 691h294l-404 -1069q-37 -97 -71.5 -177.5t-78 -138.5t-101 -90.5t-141.5 -32.5q-38 0 -78.5 6t-85.5 20v263q54 -21 84.5 -28t48.5 -7z" />
    <glyph glyph-name="z" unicode="z" horiz-adv-x="1106" 
d="M1046 0h-986v213l575 646h-538v239h917v-211l-574 -645h606v-242z" />
    <glyph glyph-name="braceleft" unicode="{" horiz-adv-x="728" 
d="M685 -409h-99q-58 0 -113 10.5t-100.5 38.5t-77.5 78t-44 130q-4 24 -6 60.5t-3 79t-2.5 88t-2.5 87t-3.5 76t-5.5 54.5q-3 28 -15 52t-34.5 42.5t-56 29.5t-79.5 12v240q47 1 80.5 12t55.5 29.5t33.5 42t15.5 50.5q3 20 4.5 54.5t3 76.5t3 87.5t3 88.5t3.5 79.5t6 60.5
q6 44 23 84t41.5 72t55.5 54.5t66 30.5q61 16 149 16h99v-236h-76q-69 0 -79 -26q-18 -44 -18 -266q0 -89 -10 -157.5t-30 -120t-50 -89t-69 -63.5q39 -26 68.5 -62t49.5 -87.5t30.5 -120.5t10.5 -160q0 -224 18 -266q10 -26 79 -26h76v-236z" />
    <glyph glyph-name="bar" unicode="|" horiz-adv-x="560" 
d="M400 -409h-240v1892h240v-1892z" />
    <glyph glyph-name="braceright" unicode="}" horiz-adv-x="728" 
d="M43 1507h98q45 0 83.5 -3.5t71.5 -14.5t62 -31.5t56 -54.5q50 -66 62 -153q3 -24 5.5 -60.5t4 -79.5t2.5 -88.5t2.5 -87.5t3 -76.5t4.5 -54.5q3 -27 14.5 -50.5t34 -42t56.5 -29.5t82 -12v-240q-47 -1 -80.5 -12t-56 -29t-35 -42.5t-15.5 -52.5q-2 -20 -4 -54.5t-3 -75.5
t-2.5 -86.5t-3 -88.5t-4 -79.5t-5.5 -60.5q-6 -43 -23.5 -82.5t-42 -71.5t-56 -54.5t-65.5 -32.5q-31 -9 -68 -12.5t-80 -3.5h-98v236h75q65 0 79 26q19 47 19 266q0 91 10 160t30 120t50 87.5t69 62.5q-40 27 -70 63.5t-49.5 88t-29.5 120t-10 158.5q0 221 -19 265
q-12 27 -79 27h-75v236z" />
    <glyph glyph-name="asciitilde" unicode="~" horiz-adv-x="1237" 
d="M1149 705q-111 -123 -287 -123q-56 0 -123 17t-145 52q-79 35 -135 52.5t-101 17.5q-68 0 -134 -34t-132 -105v215q112 121 285 121q60 0 125 -16.5t143 -53.5q79 -35 136.5 -52.5t101.5 -17.5q66 0 132 34t134 106v-213z" />
    <glyph glyph-name="nonbreakingspace" unicode="&#xa0;" horiz-adv-x="596" 
 />
    <glyph glyph-name="exclamdown" unicode="&#xa1;" horiz-adv-x="616" 
d="M174 1098h266v-252h-266v252zM174 -106l41 786h186l39 -786v-314h-266v314z" />
    <glyph glyph-name="cent" unicode="&#xa2;" horiz-adv-x="1179" 
d="M1064 390q-13 -101 -51.5 -178t-98.5 -129.5t-138.5 -79.5t-171.5 -27q-17 0 -34.5 1t-35.5 3l-64 -228l-188 51l63 233q-132 71 -195.5 198t-63.5 315q0 136 37 242.5t104.5 179.5t163.5 111t213 38h18.5t25.5 -1l63 227l187 -51l-61 -222q197 -96 226 -366h-281
q0 79 -16 109l-170 -610h8q36 0 67.5 12t55.5 35t39.5 57.5t18.5 79.5h279zM582 892q-49 -4 -89.5 -27t-69.5 -66t-45 -105.5t-16 -144.5q0 -163 58 -248z" />
    <glyph glyph-name="sterling" unicode="&#xa3;" horiz-adv-x="1179" 
d="M1075 35q-130 -59 -248 -59q-81 0 -226 45q-68 20 -116 31t-79 11q-144 0 -382 -114v269q55 29 93 59.5t62 69t34.5 89t10.5 119.5q0 20 -1 38t-4 37h-195v228h131q-16 63 -24.5 116t-8.5 92q0 104 35.5 186t98.5 138.5t151 86.5t193 30q98 0 181 -30t144.5 -87
t99.5 -140.5t46 -191.5h-277q-18 220 -198 220q-44 0 -80.5 -15.5t-62.5 -42.5t-40.5 -63t-14.5 -76q0 -47 9 -99t32 -124h310v-228h-254q2 -11 2.5 -21t0.5 -20q0 -137 -44 -221q-9 -19 -19 -35t-24 -34q32 0 67 -4.5t75 -11.5t81.5 -15.5t77.5 -15.5t64 -11.5t42 -4.5
q95 0 257 84v-285z" />
    <glyph glyph-name="currency" unicode="&#xa4;" horiz-adv-x="1277" 
d="M1183 408l-184 -186l-150 150q-113 -62 -238 -62q-66 0 -123 15.5t-112 48.5l-153 -152l-183 186l150 150q-61 113 -61 233q0 137 61 233l-150 152l183 181l151 -149q106 64 237 64q132 0 239 -63l149 149l183 -181l-148 -153q61 -109 61 -233q0 -63 -15 -121.5
t-47 -112.5zM611 567q46 0 86.5 17.5t71 48t48 71.5t17.5 87t-18 87t-48.5 71.5t-71 48t-85.5 17.5q-44 0 -84.5 -17.5t-71 -48t-48.5 -71.5t-18 -87t17.5 -87t48 -71.5t71 -48t85.5 -17.5z" />
    <glyph glyph-name="yen" unicode="&#xa5;" horiz-adv-x="1180" 
d="M1207 1484l-364 -636h271v-222h-391v-84h391v-220h-391v-322h-266v322h-396v220h396v84h-396v222h273l-366 636h309l310 -566l312 566h308z" />
    <glyph glyph-name="brokenbar" unicode="&#xa6;" horiz-adv-x="597" 
d="M413 -443h-252v878h252v-878zM413 721h-252v877h252v-877z" />
    <glyph glyph-name="section" unicode="&#xa7;" horiz-adv-x="1179" 
d="M714 1090q-18 188 -161 188q-64 0 -99 -29t-35 -77q0 -27 12.5 -50t46.5 -52t94 -67.5t154 -95.5q110 -67 181.5 -123t100.5 -101q30 -46 46 -93.5t16 -99.5q0 -87 -44 -157t-136 -127q113 -101 113 -259q0 -77 -31.5 -142t-88 -112.5t-134 -74.5t-169.5 -27
q-96 0 -176.5 28t-140.5 82.5t-99 135t-53 185.5h281q19 -199 188 -199q36 0 64.5 10t48 26.5t30 39t10.5 46.5q0 26 -17 50.5t-56.5 55.5t-104 71.5t-158.5 98.5q-227 140 -281 231q-56 94 -56 205q0 87 46.5 157t136.5 124q-47 53 -71.5 109.5t-24.5 115.5q0 65 27.5 127
t78.5 110t124.5 77.5t166.5 29.5q98 0 176.5 -28.5t135.5 -82t91.5 -131t45.5 -175.5h-279zM541 443q58 -35 105 -64t78 -49q81 49 81 123q0 26 -10.5 50.5t-36 51.5t-67.5 58t-105 69q-60 36 -106.5 67.5t-81.5 57.5q-75 -46 -75 -130q0 -28 11.5 -54t37.5 -53.5
t67.5 -58.5t101.5 -68z" />
    <glyph glyph-name="dieresis" unicode="&#xa8;" horiz-adv-x="767" 
d="M717 1198h-267v285h267v-285zM320 1198h-271v285h271v-285z" />
    <glyph glyph-name="copyright" unicode="&#xa9;" horiz-adv-x="1562" 
d="M781 1511q103 0 199.5 -28t181.5 -78t155 -120.5t120.5 -155t78.5 -181.5t28 -200q0 -104 -27.5 -201.5t-77 -182.5t-119 -155t-154.5 -120.5t-182.5 -78t-202.5 -27.5q-104 0 -201 27t-182.5 77t-155.5 119.5t-120.5 154.5t-78.5 183t-28 204q0 104 28 201.5t78.5 182
t121 154.5t155.5 120t182 77.5t201 27.5zM781 189q112 0 212.5 44t176 120t119.5 177.5t44 217.5q0 112 -43.5 212.5t-118.5 176.5t-175.5 120.5t-214.5 44.5q-76 0 -147 -20t-132.5 -56.5t-112.5 -87.5t-87 -112.5t-56 -132t-20 -145.5q0 -116 44 -217.5t119.5 -177.5
t176.5 -120t215 -44zM1183 639q-87 -350 -401 -350q-95 0 -173 32t-133.5 91.5t-86 143.5t-30.5 188q0 105 30 188.5t86 141t135.5 88.5t178.5 31q73 0 136.5 -22.5t113 -65t84 -104t49.5 -138.5h-227q-29 138 -159 138q-48 0 -86 -18.5t-64.5 -52t-40 -81.5t-13.5 -108
q0 -56 14 -102.5t40.5 -79.5t63 -51.5t81.5 -18.5q137 0 172 150h230z" />
    <glyph glyph-name="ordfeminine" unicode="&#xaa;" horiz-adv-x="849" 
d="M527 1043h-47q-219 0 -219 -97q0 -49 91 -49q21 0 45.5 5.5t48.5 16t45.5 25t35.5 31.5v68zM527 703v32q-47 -25 -100.5 -36.5t-114.5 -11.5q-65 0 -119.5 18t-94 51.5t-62 80.5t-22.5 104q0 302 490 282h19q0 41 -11 62t-29 30t-38 11.5t-43 2.5q-119 0 -124 -83h-243
q24 296 373 296q87 0 154 -17.5t112 -55.5t68.5 -99t23.5 -149v-518h-239z" />
    <glyph glyph-name="guillemotleft" unicode="&#xab;" horiz-adv-x="1277" 
d="M1131 74h-254l-357 515l357 515h254l-293 -515zM729 74h-253l-359 515l359 515h253l-294 -516z" />
    <glyph glyph-name="logicalnot" unicode="&#xac;" horiz-adv-x="1444" 
d="M1226 780v-511h-233v281h-807v230h1040z" />
    <glyph glyph-name="registered" unicode="&#xae;" horiz-adv-x="1562" 
d="M781 1511q103 0 199.5 -28t181.5 -78t155 -120.5t120.5 -155t78.5 -181.5t28 -200q0 -104 -27.5 -201.5t-77 -182.5t-119 -155t-154.5 -120.5t-182.5 -78t-202.5 -27.5q-104 0 -201 27t-182.5 77t-155.5 119.5t-120.5 154.5t-78.5 183t-28 204q0 104 28 201.5t78.5 182
t121 154.5t155.5 120t182 77.5t201 27.5zM781 189q112 0 212.5 44t176 120t119.5 177.5t44 217.5q0 112 -43.5 212.5t-118.5 176.5t-175.5 120.5t-214.5 44.5q-76 0 -147 -20t-132.5 -56.5t-112.5 -87.5t-87 -112.5t-56 -132t-20 -145.5q0 -116 44 -217.5t119.5 -177.5
t176.5 -120t215 -44zM1100 324h-241l-52 179q-23 63 -61 92.5t-73 29.5v-301h-215v841h257q351 0 351 -258q0 -88 -32.5 -147.5t-94.5 -89.5q23 -21 42.5 -49.5t33.5 -62.5zM673 820h30q139 0 139 78q0 74 -143 74h-26v-152z" />
    <glyph glyph-name="macron" unicode="&#xaf;" horiz-adv-x="1148" 
d="M1161 1669h-1171v191h1171v-191z" />
    <glyph glyph-name="degree" unicode="&#xb0;" horiz-adv-x="919" 
d="M441 1618q69 0 129 -27t104.5 -72.5t70 -105t25.5 -124.5q0 -68 -26 -128.5t-71 -105.5t-105 -71.5t-127 -26.5q-68 0 -128 26t-105 71t-71.5 105.5t-26.5 129.5q0 67 26.5 127t71.5 105t105 71t128 26zM441 1158q27 0 50 10.5t40.5 28.5t27.5 41.5t10 50.5t-10 50
t-27.5 40.5t-41 27.5t-49.5 10q-27 0 -50 -10t-40.5 -27t-27 -40.5t-9.5 -50.5t9.5 -50.5t27 -41.5t40.5 -28.5t50 -10.5z" />
    <glyph glyph-name="plusminus" unicode="&#xb1;" horiz-adv-x="1341" 
d="M1188 703h-412v-414h-265v414h-412v260h412v415h265v-415h412v-260zM1188 0h-1089v259h1089v-259z" />
    <glyph glyph-name="twosuperior" unicode="&#xb2;" horiz-adv-x="765" 
d="M739 755h-725q17 121 84 220.5t195 177.5q54 33 89.5 58.5t57 47t30 40t8.5 38.5q0 71 -94 71q-95 0 -119 -103h-248q58 313 368 313q82 0 146.5 -20.5t109.5 -56.5t69 -86t24 -109q0 -51 -12 -92.5t-40 -78.5t-74 -73t-113 -76q-23 -14 -45 -28.5t-41 -28.5h330v-214z
" />
    <glyph glyph-name="threesuperior" unicode="&#xb3;" horiz-adv-x="765" 
d="M704 1382q0 -111 -72 -171q108 -59 108 -193q0 -60 -25 -111.5t-71 -89.5t-112.5 -59.5t-148.5 -21.5q-329 0 -372 300h255q12 -92 111 -92q110 0 110 94q0 62 -113 62h-106v182q186 0 186 85q0 42 -79 42t-97 -75h-253q60 284 352 284q77 0 137.5 -18t102.5 -50
t64.5 -75t22.5 -93z" />
    <glyph glyph-name="acute" unicode="&#xb4;" horiz-adv-x="777" 
d="M642 1512l-279 -357h-237l170 357h346z" />
    <glyph glyph-name="mu" unicode="&#xb5;" horiz-adv-x="1180" 
d="M1136 -11h-140q-156 0 -214 101q-66 -60 -134 -87t-147 -27q-60 0 -117 18v-382h-270v1486h270v-730q0 -154 155 -154q30 0 55.5 6.5t50.5 22t51.5 41t57.5 63.5v751h271v-828q0 -38 24 -53t87 -15v-213z" />
    <glyph glyph-name="paragraph" unicode="&#xb6;" horiz-adv-x="1140" 
d="M1120 1257h-94v-1645h-253v1645h-122v-1645h-251v1000q-94 11 -166 48t-120.5 94t-73 129.5t-24.5 154.5q0 107 35 190.5t99.5 140.5t156.5 86.5t206 29.5h607v-228z" />
    <glyph glyph-name="periodcentered" unicode="&#xb7;" horiz-adv-x="616" 
d="M438 623h-287v283h287v-283z" />
    <glyph glyph-name="periodcentered" unicode="&#x2219;" horiz-adv-x="616" 
d="M438 623h-287v283h287v-283z" />
    <glyph glyph-name="cedilla" unicode="&#xb8;" horiz-adv-x="765" 
d="M441 -45q45 -8 73.5 -25.5t46.5 -40t26 -51t8 -71.5q0 -62 -19 -107t-59.5 -74.5t-105 -44t-154.5 -14.5q-11 0 -30.5 0.5t-41 1.5t-42.5 2.5t-36 2.5v213q55 -9 94.5 -11.5t62.5 -2.5q85 0 85 37q0 34 -142 34v228h234v-77z" />
    <glyph glyph-name="onesuperior" unicode="&#xb9;" horiz-adv-x="765" 
d="M548 755h-242v480q-84 -25 -229 -25v216q269 0 269 192h202v-863z" />
    <glyph glyph-name="ordmasculine" unicode="&#xba;" horiz-adv-x="838" 
d="M416 1542q84 0 155 -30.5t122 -86.5t79.5 -135.5t28.5 -178.5q0 -102 -28.5 -182.5t-79.5 -136t-122 -85t-155 -29.5q-88 0 -159 29t-121.5 84t-78 135.5t-27.5 184.5q0 100 28 179.5t79 135.5t122 86t157 30zM416 902q140 0 140 209q0 204 -140 204t-140 -204
q0 -209 140 -209z" />
    <glyph glyph-name="guillemotright" unicode="&#xbb;" horiz-adv-x="1277" 
d="M1108 589l-358 -515h-253l293 514l-293 516h253zM707 589l-360 -515h-253l293 514l-293 516h252z" />
    <glyph glyph-name="onequarter" unicode="&#xbc;" horiz-adv-x="1771" 
d="M556 699h-233v442q-78 -22 -213 -22v207q249 0 249 178h197v-805zM1524 1485l-1054 -1485h-263l1054 1485h263zM1622 147h-100v-147h-228v147h-366v175l411 481h183v-445h100v-211zM1294 358v104l-87 -104h87z" />
    <glyph glyph-name="onehalf" unicode="&#xbd;" horiz-adv-x="1771" 
d="M557 699h-233v442q-78 -22 -213 -22v207q249 0 249 178h197v-805zM1490 1485l-1054 -1485h-264l1055 1485h263zM1655 0h-690q27 226 273 375q58 35 92 58t51 40.5t22 33t5 35.5q0 62 -83 62q-86 0 -107 -96h-236q54 298 344 298q76 0 137 -19t103 -53t64.5 -81t22.5 -102
q0 -47 -12 -86t-39 -74.5t-69.5 -70t-103.5 -72.5q-27 -17 -36 -20.5t-12 -4t-5.5 -3t-16.5 -17.5h296v-203z" />
    <glyph glyph-name="threequarters" unicode="&#xbe;" horiz-adv-x="1771" 
d="M709 1282q0 -102 -61 -157q96 -57 96 -180q0 -56 -23.5 -104t-66.5 -83.5t-105 -56t-138 -20.5q-309 0 -351 293h245q10 -94 99 -94q100 0 100 85q0 52 -103 52h-99v194q170 0 170 55q0 38 -70 38q-69 0 -86 -79h-243q58 279 331 279q73 0 129.5 -17.5t95.5 -47.5
t59.5 -70.5t20.5 -86.5zM1569 1485l-1054 -1485h-262l1056 1485h260zM1650 147h-99v-147h-228v147h-366v175l411 481h183v-445h99v-211zM1323 358v104q-18 -22 -38 -45.5t-50 -58.5h88z" />
    <glyph glyph-name="questiondown" unicode="&#xbf;" horiz-adv-x="1180" 
d="M1069 81q-10 -113 -51 -204t-107 -155t-154 -98t-191 -34q-110 0 -201 32t-156 88.5t-101 134.5t-36 171q0 54 10.5 100.5t36 91.5t67.5 91t105 99q54 45 84.5 78t46 70t19 85.5t3.5 124.5h259q0 -118 -11.5 -197t-34.5 -127q-45 -88 -161 -188q-51 -44 -80.5 -74.5
t-44.5 -54.5t-19 -44t-4 -43q0 -47 16 -85.5t45 -66t69 -42.5t88 -15q189 0 229 262h274zM712 816h-287v282h287v-282z" />
    <glyph glyph-name="Agrave" unicode="&#xc0;" horiz-adv-x="1461" 
d="M898 675l-184 481l-174 -481h358zM1468 0h-316l-166 434h-531l-158 -434h-300l583 1518h270zM940 1617h-237l-280 357h347z" />
    <glyph glyph-name="Aacute" unicode="&#xc1;" horiz-adv-x="1461" 
d="M898 675l-184 481l-174 -481h358zM1468 0h-316l-166 434h-531l-158 -434h-300l583 1518h270zM1061 1974l-279 -357h-237l170 357h346z" />
    <glyph glyph-name="Acircumflex" unicode="&#xc2;" horiz-adv-x="1461" 
d="M898 675l-184 481l-174 -481h358zM1468 0h-316l-166 434h-531l-158 -434h-300l583 1518h270zM1128 1617h-312l-82 123l-82 -123h-312l280 356h228z" />
    <glyph glyph-name="Atilde" unicode="&#xc3;" horiz-adv-x="1461" 
d="M898 675l-184 481l-174 -481h358zM1468 0h-316l-166 434h-531l-158 -434h-300l583 1518h270zM1066 1926q0 -72 -18 -129t-49.5 -96.5t-75 -60.5t-95.5 -21q-15 0 -39 6t-51 15t-55 19t-51 19t-38.5 15t-18.5 6q-27 0 -26 -82h-214q0 71 18.5 128t50.5 97t76 61.5t95 21.5
q15 0 39 -6t50.5 -15.5t54 -20t50.5 -20t39 -15.5t20 -6q26 0 26 84h212z" />
    <glyph glyph-name="Adieresis" unicode="&#xc4;" horiz-adv-x="1461" 
d="M898 675l-184 481l-174 -481h358zM1468 0h-316l-166 434h-531l-158 -434h-300l583 1518h270zM1061 1617h-267v285h267v-285zM664 1617h-271v285h271v-285z" />
    <glyph glyph-name="Aring" unicode="&#xc5;" horiz-adv-x="1461" 
d="M898 675l-184 481l-174 -481h358zM1468 0h-316l-166 434h-531l-158 -434h-300l583 1518h270zM716 1963q46 0 86.5 -18.5t71 -49t48.5 -71t18 -83.5q0 -45 -17 -85t-46 -70.5t-69 -48.5t-86 -18q-49 0 -91 16t-72.5 45t-48 70t-17.5 91q0 44 17.5 84.5t47.5 71t70.5 48.5
t87.5 18zM758 1696.5q16 17.5 16 44.5q0 23 -17 41t-41 18q-23 0 -39.5 -18t-16.5 -41q0 -27 15.5 -44.5t38.5 -17.5q28 0 44 17.5z" />
    <glyph glyph-name="AE" unicode="&#xc6;" horiz-adv-x="2121" 
d="M2012 0h-1027v413h-429l-229 -413h-327l877 1518h1103v-261h-713v-343h657v-259h-657v-394h745v-261zM985 672v523l-289 -523h289z" />
    <glyph glyph-name="Ccedilla" unicode="&#xc7;" horiz-adv-x="1577" 
d="M1168 995q-5 68 -32.5 122.5t-72.5 93t-105.5 59t-129.5 20.5q-98 0 -176 -34.5t-133.5 -102t-85 -166.5t-29.5 -227t30 -227t84.5 -166.5t132 -103t173.5 -35.5q73 0 133.5 20.5t105.5 61t72 99t34 135.5h289q-12 -136 -63.5 -241.5t-135 -178t-193.5 -110.5t-239 -38
q-164 0 -295.5 55.5t-224 157.5t-142.5 247t-50 324t50.5 324t143.5 247.5t224.5 158t293.5 55.5q123 0 232 -39.5t193.5 -111.5t139 -173.5t66.5 -225.5h-290zM941 -45q45 -8 73.5 -25.5t46.5 -40t26 -51t8 -71.5q0 -62 -19 -107t-59.5 -74.5t-105 -44t-154.5 -14.5
q-11 0 -30.5 0.5t-41 1.5t-42.5 2.5t-36 2.5v213q55 -9 94.5 -11.5t62.5 -2.5q85 0 85 37q0 34 -142 34v228h234v-77z" />
    <glyph glyph-name="Egrave" unicode="&#xc8;" horiz-adv-x="1461" 
d="M1339 0h-1160v1518h1127v-261h-844v-343h790v-259h-790v-394h877v-261zM940 1617h-237l-280 357h347z" />
    <glyph glyph-name="Eacute" unicode="&#xc9;" horiz-adv-x="1461" 
d="M1339 0h-1160v1518h1127v-261h-844v-343h790v-259h-790v-394h877v-261zM1142 1974l-279 -357h-237l170 357h346z" />
    <glyph glyph-name="Ecircumflex" unicode="&#xca;" horiz-adv-x="1461" 
d="M1339 0h-1160v1518h1127v-261h-844v-343h790v-259h-790v-394h877v-261zM1158 1617h-312l-82 123l-82 -123h-312l280 356h228z" />
    <glyph glyph-name="Edieresis" unicode="&#xcb;" horiz-adv-x="1461" 
d="M1339 0h-1160v1518h1127v-261h-844v-343h790v-259h-790v-394h877v-261zM1041 1617h-267v285h267v-285zM644 1617h-271v285h271v-285z" />
    <glyph glyph-name="Igrave" unicode="&#xcc;" horiz-adv-x="635" 
d="M474 0h-282v1518h282v-1518zM530 1617h-237l-280 357h347z" />
    <glyph glyph-name="Iacute" unicode="&#xcd;" horiz-adv-x="635" 
d="M474 0h-282v1518h282v-1518zM642 1974l-279 -357h-237l170 357h346z" />
    <glyph glyph-name="Icircumflex" unicode="&#xce;" horiz-adv-x="635" 
d="M474 0h-282v1518h282v-1518zM728 1617h-312l-82 123l-82 -123h-312l280 356h228z" />
    <glyph glyph-name="Idieresis" unicode="&#xcf;" horiz-adv-x="635" 
d="M474 0h-282v1518h282v-1518zM677 1617h-267v285h267v-285zM280 1617h-271v285h271v-285z" />
    <glyph glyph-name="Eth" unicode="&#xd0;" horiz-adv-x="1577" 
d="M1456 767q0 -767 -775 -767h-500v630h-158v261h158v627h500q775 0 775 -751zM1168 767q0 115 -22.5 206t-78.5 154t-150 96.5t-237 33.5h-216v-366h390v-261h-390v-369h216q142 0 236 34.5t150 99.5t79 159t23 213z" />
    <glyph glyph-name="Ntilde" unicode="&#xd1;" horiz-adv-x="1577" 
d="M1397 0h-267l-677 1015v-1015h-273v1518h268l674 -1017v1017h275v-1518zM1144 1926q0 -72 -18 -129t-49.5 -96.5t-75 -60.5t-95.5 -21q-15 0 -39 6t-51 15t-55 19t-51 19t-38.5 15t-18.5 6q-27 0 -26 -82h-214q0 71 18.5 128t50.5 97t76 61.5t95 21.5q15 0 39 -6
t50.5 -15.5t54 -20t50.5 -20t39 -15.5t20 -6q26 0 26 84h212z" />
    <glyph glyph-name="Ograve" unicode="&#xd2;" horiz-adv-x="1696" 
d="M847 1542q159 0 293 -56t231 -158.5t151.5 -247t54.5 -320.5q0 -174 -53.5 -318t-150.5 -247.5t-231 -161t-295 -57.5t-295 57t-231 160t-150.5 247.5t-53.5 319.5q0 177 54.5 321.5t152 247t231.5 158t292 55.5zM846 228q97 0 178.5 36.5t140 105t91 167t32.5 223.5
q0 126 -33 224.5t-91.5 166t-139 103t-174.5 35.5q-96 0 -177.5 -36t-141 -104t-92.5 -166.5t-33 -222.5q0 -125 33 -223.5t91.5 -167t139 -105t176.5 -36.5zM1028 1617h-237l-280 357h347z" />
    <glyph glyph-name="Oacute" unicode="&#xd3;" horiz-adv-x="1696" 
d="M847 1542q159 0 293 -56t231 -158.5t151.5 -247t54.5 -320.5q0 -174 -53.5 -318t-150.5 -247.5t-231 -161t-295 -57.5t-295 57t-231 160t-150.5 247.5t-53.5 319.5q0 177 54.5 321.5t152 247t231.5 158t292 55.5zM846 228q97 0 178.5 36.5t140 105t91 167t32.5 223.5
q0 126 -33 224.5t-91.5 166t-139 103t-174.5 35.5q-96 0 -177.5 -36t-141 -104t-92.5 -166.5t-33 -222.5q0 -125 33 -223.5t91.5 -167t139 -105t176.5 -36.5zM1119 1974l-279 -357h-237l170 357h346z" />
    <glyph glyph-name="Ocircumflex" unicode="&#xd4;" horiz-adv-x="1696" 
d="M847 1542q159 0 293 -56t231 -158.5t151.5 -247t54.5 -320.5q0 -174 -53.5 -318t-150.5 -247.5t-231 -161t-295 -57.5t-295 57t-231 160t-150.5 247.5t-53.5 319.5q0 177 54.5 321.5t152 247t231.5 158t292 55.5zM846 228q97 0 178.5 36.5t140 105t91 167t32.5 223.5
q0 126 -33 224.5t-91.5 166t-139 103t-174.5 35.5q-96 0 -177.5 -36t-141 -104t-92.5 -166.5t-33 -222.5q0 -125 33 -223.5t91.5 -167t139 -105t176.5 -36.5zM1244 1617h-312l-82 123l-82 -123h-312l280 356h228z" />
    <glyph glyph-name="Otilde" unicode="&#xd5;" horiz-adv-x="1696" 
d="M847 1542q159 0 293 -56t231 -158.5t151.5 -247t54.5 -320.5q0 -174 -53.5 -318t-150.5 -247.5t-231 -161t-295 -57.5t-295 57t-231 160t-150.5 247.5t-53.5 319.5q0 177 54.5 321.5t152 247t231.5 158t292 55.5zM846 228q97 0 178.5 36.5t140 105t91 167t32.5 223.5
q0 126 -33 224.5t-91.5 166t-139 103t-174.5 35.5q-96 0 -177.5 -36t-141 -104t-92.5 -166.5t-33 -222.5q0 -125 33 -223.5t91.5 -167t139 -105t176.5 -36.5zM1194 1926q0 -72 -18 -129t-49.5 -96.5t-75 -60.5t-95.5 -21q-15 0 -39 6t-51 15t-55 19t-51 19t-38.5 15t-18.5 6
q-27 0 -26 -82h-214q0 71 18.5 128t50.5 97t76 61.5t95 21.5q15 0 39 -6t50.5 -15.5t54 -20t50.5 -20t39 -15.5t20 -6q26 0 26 84h212z" />
    <glyph glyph-name="Odieresis" unicode="&#xd6;" horiz-adv-x="1696" 
d="M847 1542q159 0 293 -56t231 -158.5t151.5 -247t54.5 -320.5q0 -174 -53.5 -318t-150.5 -247.5t-231 -161t-295 -57.5t-295 57t-231 160t-150.5 247.5t-53.5 319.5q0 177 54.5 321.5t152 247t231.5 158t292 55.5zM846 228q97 0 178.5 36.5t140 105t91 167t32.5 223.5
q0 126 -33 224.5t-91.5 166t-139 103t-174.5 35.5q-96 0 -177.5 -36t-141 -104t-92.5 -166.5t-33 -222.5q0 -125 33 -223.5t91.5 -167t139 -105t176.5 -36.5zM1184 1617h-267v285h267v-285zM787 1617h-271v285h271v-285z" />
    <glyph glyph-name="multiply" unicode="&#xd7;" horiz-adv-x="1238" 
d="M1093 434l-177 -177l-298 298l-298 -298l-176 177l298 298l-298 297l176 177l298 -298l298 298l177 -177l-298 -297z" />
    <glyph glyph-name="Oslash" unicode="&#xd8;" horiz-adv-x="1651" 
d="M1569 1449l-180 -197q143 -206 143 -492q0 -174 -53.5 -318t-150.5 -247.5t-231 -161t-295 -57.5q-241 0 -432 137l-166 -187l-167 144l178 196q-74 106 -108.5 226.5t-34.5 267.5q0 177 54.5 321.5t152 247t231.5 158t292 55.5q128 0 234 -34t197 -101l166 184z
M1056 1208q-54 39 -116 60t-135 21q-96 0 -177.5 -36t-141 -104t-92.5 -166.5t-33 -222.5q0 -81 12.5 -149t37.5 -126zM548 309q53 -39 117 -60t136 -21q97 0 178.5 36.5t140 105t91.5 167t33 223.5q0 78 -12.5 147.5t-38.5 127.5z" />
    <glyph glyph-name="Ugrave" unicode="&#xd9;" horiz-adv-x="1577" 
d="M788 -24q-143 0 -244 28.5t-168.5 77.5t-106.5 115t-59 140.5t-25 154t-5 156.5v870h283v-867q0 -129 21.5 -210.5t63 -127t102 -62t138.5 -16.5q79 0 140 17t101.5 62.5t61.5 126.5t21 210v867h285v-870q0 -158 -27.5 -283t-96.5 -211.5t-186.5 -132t-298.5 -45.5z
M998 1617h-237l-280 357h347z" />
    <glyph glyph-name="Uacute" unicode="&#xda;" horiz-adv-x="1577" 
d="M788 -24q-143 0 -244 28.5t-168.5 77.5t-106.5 115t-59 140.5t-25 154t-5 156.5v870h283v-867q0 -129 21.5 -210.5t63 -127t102 -62t138.5 -16.5q79 0 140 17t101.5 62.5t61.5 126.5t21 210v867h285v-870q0 -158 -27.5 -283t-96.5 -211.5t-186.5 -132t-298.5 -45.5z
M1139 1974l-279 -357h-237l170 357h346z" />
    <glyph glyph-name="Ucircumflex" unicode="&#xdb;" horiz-adv-x="1577" 
d="M788 -24q-143 0 -244 28.5t-168.5 77.5t-106.5 115t-59 140.5t-25 154t-5 156.5v870h283v-867q0 -129 21.5 -210.5t63 -127t102 -62t138.5 -16.5q79 0 140 17t101.5 62.5t61.5 126.5t21 210v867h285v-870q0 -158 -27.5 -283t-96.5 -211.5t-186.5 -132t-298.5 -45.5z
M1174 1617h-312l-82 123l-82 -123h-312l280 356h228z" />
    <glyph glyph-name="Udieresis" unicode="&#xdc;" horiz-adv-x="1577" 
d="M788 -24q-143 0 -244 28.5t-168.5 77.5t-106.5 115t-59 140.5t-25 154t-5 156.5v870h283v-867q0 -129 21.5 -210.5t63 -127t102 -62t138.5 -16.5q79 0 140 17t101.5 62.5t61.5 126.5t21 210v867h285v-870q0 -158 -27.5 -283t-96.5 -211.5t-186.5 -132t-298.5 -45.5z
M1119 1617h-267v285h267v-285zM722 1617h-271v285h271v-285z" />
    <glyph glyph-name="Yacute" unicode="&#xdd;" horiz-adv-x="1461" 
d="M1474 1518l-601 -880v-638h-283v638l-602 880h343l401 -615l399 615h343zM1081 1974l-279 -357h-237l170 357h346z" />
    <glyph glyph-name="Thorn" unicode="&#xde;" horiz-adv-x="1416" 
d="M417 1239h299q92 0 170.5 -7.5t144 -28.5t116.5 -59.5t89 -100.5q76 -125 76 -267q0 -242 -147.5 -364t-435.5 -122h-312v-290h-283v1518h283v-279zM417 550h317q78 0 133 14.5t89.5 42t50.5 68t16 93.5q0 36 -9 67.5t-25 57t-38 43t-47 25.5q-29 9 -72 13t-104 4h-311
v-428z" />
    <glyph glyph-name="germandbls" unicode="&#xdf;" horiz-adv-x="1296" 
d="M115 0v997q0 511 458 511q91 0 165.5 -25t127.5 -67.5t81.5 -100.5t28.5 -124q0 -109 -102 -290q-20 -35 -30.5 -59t-10.5 -38q0 -15 5 -26.5t21.5 -26.5t47 -36.5t82.5 -55.5q63 -42 104 -79.5t65 -75.5t33.5 -78t9.5 -86q0 -74 -28.5 -140t-80.5 -116t-125 -79
t-161 -29q-80 0 -149 24.5t-121 70.5t-83 110.5t-35 144.5h262q15 -120 122 -120q58 0 92 33.5t34 87.5q0 25 -5.5 42t-21 33.5t-43.5 35.5t-72 48q-56 34 -98.5 67.5t-71 68t-42.5 72.5t-14 82q0 38 19.5 91t56.5 121q39 72 59.5 117t20.5 67q0 46 -41 75.5t-105 29.5
q-42 0 -76 -12.5t-58.5 -45t-37.5 -88.5t-13 -142v-989h-270z" />
    <glyph glyph-name="agrave" unicode="&#xe0;" 
d="M796 489h-79q-345 0 -345 -168q0 -56 45.5 -85.5t120.5 -29.5q38 0 75 7.5t71 22t62.5 36.5t49.5 51v166zM796 57q-134 -81 -310 -81q-83 0 -154 24t-123 68.5t-82 106.5t-30 137q0 398 656 398h43q-1 45 -7 79t-26.5 57.5t-59.5 35.5t-105 12q-195 0 -203 -173h-273
q23 403 487 403q106 0 190.5 -19t143.5 -67t91 -131t32 -210v-697h-270v57zM822 1155h-237l-280 357h347z" />
    <glyph glyph-name="aacute" unicode="&#xe1;" 
d="M796 489h-79q-345 0 -345 -168q0 -56 45.5 -85.5t120.5 -29.5q38 0 75 7.5t71 22t62.5 36.5t49.5 51v166zM796 57q-134 -81 -310 -81q-83 0 -154 24t-123 68.5t-82 106.5t-30 137q0 398 656 398h43q-1 45 -7 79t-26.5 57.5t-59.5 35.5t-105 12q-195 0 -203 -173h-273
q23 403 487 403q106 0 190.5 -19t143.5 -67t91 -131t32 -210v-697h-270v57zM943 1512l-279 -357h-237l170 357h346z" />
    <glyph glyph-name="acircumflex" unicode="&#xe2;" 
d="M796 489h-79q-345 0 -345 -168q0 -56 45.5 -85.5t120.5 -29.5q38 0 75 7.5t71 22t62.5 36.5t49.5 51v166zM796 57q-134 -81 -310 -81q-83 0 -154 24t-123 68.5t-82 106.5t-30 137q0 398 656 398h43q-1 45 -7 79t-26.5 57.5t-59.5 35.5t-105 12q-195 0 -203 -173h-273
q23 403 487 403q106 0 190.5 -19t143.5 -67t91 -131t32 -210v-697h-270v57zM1008 1155h-312l-82 123l-82 -123h-312l280 356h228z" />
    <glyph glyph-name="atilde" unicode="&#xe3;" 
d="M796 489h-79q-345 0 -345 -168q0 -56 45.5 -85.5t120.5 -29.5q38 0 75 7.5t71 22t62.5 36.5t49.5 51v166zM796 57q-134 -81 -310 -81q-83 0 -154 24t-123 68.5t-82 106.5t-30 137q0 398 656 398h43q-1 45 -7 79t-26.5 57.5t-59.5 35.5t-105 12q-195 0 -203 -173h-273
q23 403 487 403q106 0 190.5 -19t143.5 -67t91 -131t32 -210v-697h-270v57zM958 1493q0 -72 -18 -129t-49.5 -96.5t-75 -60.5t-95.5 -21q-15 0 -39 6t-51 15t-55 19t-51 19t-38.5 15t-18.5 6q-27 0 -26 -82h-214q0 71 18.5 128t50.5 97t76 61.5t95 21.5q15 0 39 -6
t50.5 -15.5t54 -20t50.5 -20t39 -15.5t20 -6q26 0 26 84h212z" />
    <glyph glyph-name="adieresis" unicode="&#xe4;" 
d="M796 489h-79q-345 0 -345 -168q0 -56 45.5 -85.5t120.5 -29.5q38 0 75 7.5t71 22t62.5 36.5t49.5 51v166zM796 57q-134 -81 -310 -81q-83 0 -154 24t-123 68.5t-82 106.5t-30 137q0 398 656 398h43q-1 45 -7 79t-26.5 57.5t-59.5 35.5t-105 12q-195 0 -203 -173h-273
q23 403 487 403q106 0 190.5 -19t143.5 -67t91 -131t32 -210v-697h-270v57zM953 1198h-267v285h267v-285zM556 1198h-271v285h271v-285z" />
    <glyph glyph-name="aring" unicode="&#xe5;" 
d="M796 489h-79q-345 0 -345 -168q0 -56 45.5 -85.5t120.5 -29.5q38 0 75 7.5t71 22t62.5 36.5t49.5 51v166zM796 57q-134 -81 -310 -81q-83 0 -154 24t-123 68.5t-82 106.5t-30 137q0 398 656 398h43q-1 45 -7 79t-26.5 57.5t-59.5 35.5t-105 12q-195 0 -203 -173h-273
q23 403 487 403q106 0 190.5 -19t143.5 -67t91 -131t32 -210v-697h-270v57zM610 1606q45 0 85 -18t70 -48t47.5 -69t17.5 -82q0 -44 -17 -83.5t-46.5 -69t-70 -47t-86.5 -17.5q-45 0 -85 16.5t-69 46t-46 69t-17 85.5q0 44 17 83.5t46 69t69 47t85 17.5zM610 1329
q24 0 40.5 17t16.5 43q0 23 -16.5 40.5t-40.5 17.5q-22 0 -38 -17.5t-16 -40.5q0 -24 16 -42t38 -18z" />
    <glyph glyph-name="ae" unicode="&#xe6;" horiz-adv-x="1887" 
d="M747 489h-76q-329 0 -329 -168q0 -115 156 -115q56 0 102 16.5t78.5 48.5t50.5 79.5t18 110.5v28zM1259 -24q-248 0 -390 163q-29 -36 -65 -66t-86 -51.5t-116 -33.5t-154 -12q-85 0 -155 24t-120.5 68.5t-78 106.5t-27.5 137q0 398 636 398h43q-2 43 -9.5 77t-27.5 58
t-56 36.5t-93 12.5q-181 0 -196 -173h-273q32 403 478 403q242 0 353 -112q128 112 319 112q119 0 213 -39t159.5 -112.5t100.5 -180.5t35 -242v-87h-727q20 -129 82 -193t155 -64q36 0 70.5 12t62 35.5t45 57.5t19.5 79h282q-14 -100 -54.5 -177t-102.5 -129.5t-144 -80
t-178 -27.5zM1459 692q-48 202 -218 202q-167 0 -212 -202h430z" />
    <glyph glyph-name="ccedilla" unicode="&#xe7;" horiz-adv-x="1106" 
d="M610 -24q-116 0 -212 38t-164.5 111t-106.5 180t-38 245q0 135 37 242t105.5 180.5t164.5 112.5t214 39q91 0 169 -27t138.5 -80t100 -130.5t53.5 -179.5h-284q-2 46 -16 81t-37.5 58.5t-55.5 35.5t-68 12q-54 0 -98.5 -21.5t-77 -65t-50 -108t-17.5 -149.5
q0 -86 17.5 -150.5t50 -107.5t77 -64.5t98.5 -21.5q34 0 65 11.5t55.5 34.5t39.5 57.5t17 80.5h284q-14 -103 -54.5 -180.5t-101 -129.5t-138 -78t-167.5 -26zM701 -45q45 -8 73.5 -25.5t46.5 -40t26 -51t8 -71.5q0 -62 -19 -107t-59.5 -74.5t-105 -44t-154.5 -14.5
q-11 0 -30.5 0.5t-41 1.5t-42.5 2.5t-36 2.5v213q55 -9 94.5 -11.5t62.5 -2.5q85 0 85 37q0 34 -142 34v228h234v-77z" />
    <glyph glyph-name="egrave" unicode="&#xe8;" 
d="M631 -24q-120 0 -219.5 38.5t-171 112t-110.5 180.5t-39 243q0 133 38 239.5t106.5 180.5t164 114t211.5 40q120 0 216 -39t164 -112.5t104.5 -180.5t36.5 -242v-87h-756q10 -65 33 -113t56 -80t75.5 -48t90.5 -16q36 0 72 12t65 35.5t47.5 57.5t19.5 79h286
q-15 -100 -58 -177t-107.5 -129.5t-147.5 -80t-177 -27.5zM840 692q-26 102 -85.5 152t-143.5 50q-81 0 -142 -50t-87 -152h458zM822 1155h-237l-280 357h347z" />
    <glyph glyph-name="eacute" unicode="&#xe9;" 
d="M631 -24q-120 0 -219.5 38.5t-171 112t-110.5 180.5t-39 243q0 133 38 239.5t106.5 180.5t164 114t211.5 40q120 0 216 -39t164 -112.5t104.5 -180.5t36.5 -242v-87h-756q10 -65 33 -113t56 -80t75.5 -48t90.5 -16q36 0 72 12t65 35.5t47.5 57.5t19.5 79h286
q-15 -100 -58 -177t-107.5 -129.5t-147.5 -80t-177 -27.5zM840 692q-26 102 -85.5 152t-143.5 50q-81 0 -142 -50t-87 -152h458zM1002 1512l-279 -357h-237l170 357h346z" />
    <glyph glyph-name="ecircumflex" unicode="&#xea;" 
d="M631 -24q-120 0 -219.5 38.5t-171 112t-110.5 180.5t-39 243q0 133 38 239.5t106.5 180.5t164 114t211.5 40q120 0 216 -39t164 -112.5t104.5 -180.5t36.5 -242v-87h-756q10 -65 33 -113t56 -80t75.5 -48t90.5 -16q36 0 72 12t65 35.5t47.5 57.5t19.5 79h286
q-15 -100 -58 -177t-107.5 -129.5t-147.5 -80t-177 -27.5zM840 692q-26 102 -85.5 152t-143.5 50q-81 0 -142 -50t-87 -152h458zM1008 1155h-312l-82 123l-82 -123h-312l280 356h228z" />
    <glyph glyph-name="edieresis" unicode="&#xeb;" 
d="M631 -24q-120 0 -219.5 38.5t-171 112t-110.5 180.5t-39 243q0 133 38 239.5t106.5 180.5t164 114t211.5 40q120 0 216 -39t164 -112.5t104.5 -180.5t36.5 -242v-87h-756q10 -65 33 -113t56 -80t75.5 -48t90.5 -16q36 0 72 12t65 35.5t47.5 57.5t19.5 79h286
q-15 -100 -58 -177t-107.5 -129.5t-147.5 -80t-177 -27.5zM840 692q-26 102 -85.5 152t-143.5 50q-81 0 -142 -50t-87 -152h458zM943 1198h-267v285h267v-285zM546 1198h-271v285h271v-285z" />
    <glyph glyph-name="igrave" unicode="&#xec;" horiz-adv-x="528" 
d="M412 0h-270v1098h270v-1098zM294 1512l170 -357h-237l-280 357h347z" />
    <glyph glyph-name="iacute" unicode="&#xed;" horiz-adv-x="528" 
d="M412 0h-270v1098h270v-1098zM613 1512l-279 -357h-238l171 357h346z" />
    <glyph glyph-name="icircumflex" unicode="&#xee;" horiz-adv-x="528" 
d="M412 0h-270v1098h270v-1098zM673 1155h-312l-84 124l-82 -124h-310l280 356h228z" />
    <glyph glyph-name="idieresis" unicode="&#xef;" horiz-adv-x="528" 
d="M412 0h-270v1098h270v-1098zM598 1198h-268v285h268v-285zM232 1198h-270v285h270v-285z" />
    <glyph glyph-name="eth" unicode="&#xf0;" horiz-adv-x="1180" 
d="M325 1070l-64 154l176 74q-43 35 -108 81t-151 105h368q57 -44 109 -84l216 100l73 -155l-163 -75q95 -111 149.5 -198t89 -173t51 -175t16.5 -186q0 -132 -37 -236t-105 -176.5t-164.5 -111t-214.5 -38.5q-116 0 -212 38t-164.5 110t-106 176.5t-37.5 237.5
q0 96 20 177.5t57 146.5t99.5 119.5t155.5 85.5t188 31q16 0 31 -1t29 -3q-11 16 -21.5 30.5t-38.5 51.5zM566 206q54 0 98.5 20.5t76.5 62t49.5 103.5t17.5 146q0 82 -17.5 144.5t-49.5 104t-76.5 62.5t-98.5 21t-98.5 -21t-76.5 -62.5t-49.5 -104t-17.5 -144.5
q0 -84 17.5 -146t49.5 -103.5t76.5 -62t98.5 -20.5z" />
    <glyph glyph-name="ntilde" unicode="&#xf1;" 
d="M427 1033q117 91 255 91q389 0 389 -419v-705h-273v697q0 101 -33 145t-109 44q-110 0 -229 -133v-753h-271v1098h271v-65zM988 1493q0 -72 -18 -129t-49.5 -96.5t-75 -60.5t-95.5 -21q-15 0 -39 6t-51 15t-55 19t-51 19t-38.5 15t-18.5 6q-27 0 -26 -82h-214
q0 71 18.5 128t50.5 97t76 61.5t95 21.5q15 0 39 -6t50.5 -15.5t54 -20t50.5 -20t39 -15.5t20 -6q26 0 26 84h212z" />
    <glyph glyph-name="ograve" unicode="&#xf2;" 
d="M611 1124q120 0 216 -39t164 -112.5t104.5 -180.5t36.5 -242q0 -136 -37.5 -243t-105.5 -180.5t-164 -112t-214 -38.5q-116 0 -212 38t-164.5 111t-106 180t-37.5 245q0 135 37 242t105.5 180.5t164.5 112.5t213 39zM611 206q54 0 98.5 21.5t76.5 64.5t49.5 107.5
t17.5 150.5q0 85 -17.5 149.5t-49.5 108t-76.5 65t-98.5 21.5t-98.5 -21.5t-76.5 -65t-49.5 -108t-17.5 -149.5q0 -86 17.5 -150.5t49.5 -107.5t76.5 -64.5t98.5 -21.5zM822 1155h-237l-280 357h347z" />
    <glyph glyph-name="oacute" unicode="&#xf3;" 
d="M611 1124q120 0 216 -39t164 -112.5t104.5 -180.5t36.5 -242q0 -136 -37.5 -243t-105.5 -180.5t-164 -112t-214 -38.5q-116 0 -212 38t-164.5 111t-106 180t-37.5 245q0 135 37 242t105.5 180.5t164.5 112.5t213 39zM611 206q54 0 98.5 21.5t76.5 64.5t49.5 107.5
t17.5 150.5q0 85 -17.5 149.5t-49.5 108t-76.5 65t-98.5 21.5t-98.5 -21.5t-76.5 -65t-49.5 -108t-17.5 -149.5q0 -86 17.5 -150.5t49.5 -107.5t76.5 -64.5t98.5 -21.5zM933 1512l-279 -357h-237l170 357h346z" />
    <glyph glyph-name="ocircumflex" unicode="&#xf4;" 
d="M611 1124q120 0 216 -39t164 -112.5t104.5 -180.5t36.5 -242q0 -136 -37.5 -243t-105.5 -180.5t-164 -112t-214 -38.5q-116 0 -212 38t-164.5 111t-106 180t-37.5 245q0 135 37 242t105.5 180.5t164.5 112.5t213 39zM611 206q54 0 98.5 21.5t76.5 64.5t49.5 107.5
t17.5 150.5q0 85 -17.5 149.5t-49.5 108t-76.5 65t-98.5 21.5t-98.5 -21.5t-76.5 -65t-49.5 -108t-17.5 -149.5q0 -86 17.5 -150.5t49.5 -107.5t76.5 -64.5t98.5 -21.5zM1018 1155h-312l-82 123l-82 -123h-312l280 356h228z" />
    <glyph glyph-name="otilde" unicode="&#xf5;" 
d="M611 1124q120 0 216 -39t164 -112.5t104.5 -180.5t36.5 -242q0 -136 -37.5 -243t-105.5 -180.5t-164 -112t-214 -38.5q-116 0 -212 38t-164.5 111t-106 180t-37.5 245q0 135 37 242t105.5 180.5t164.5 112.5t213 39zM611 206q54 0 98.5 21.5t76.5 64.5t49.5 107.5
t17.5 150.5q0 85 -17.5 149.5t-49.5 108t-76.5 65t-98.5 21.5t-98.5 -21.5t-76.5 -65t-49.5 -108t-17.5 -149.5q0 -86 17.5 -150.5t49.5 -107.5t76.5 -64.5t98.5 -21.5zM988 1493q0 -72 -18 -129t-49.5 -96.5t-75 -60.5t-95.5 -21q-15 0 -39 6t-51 15t-55 19t-51 19
t-38.5 15t-18.5 6q-27 0 -26 -82h-214q0 71 18.5 128t50.5 97t76 61.5t95 21.5q15 0 39 -6t50.5 -15.5t54 -20t50.5 -20t39 -15.5t20 -6q26 0 26 84h212z" />
    <glyph glyph-name="odieresis" unicode="&#xf6;" 
d="M611 1124q120 0 216 -39t164 -112.5t104.5 -180.5t36.5 -242q0 -136 -37.5 -243t-105.5 -180.5t-164 -112t-214 -38.5q-116 0 -212 38t-164.5 111t-106 180t-37.5 245q0 135 37 242t105.5 180.5t164.5 112.5t213 39zM611 206q54 0 98.5 21.5t76.5 64.5t49.5 107.5
t17.5 150.5q0 85 -17.5 149.5t-49.5 108t-76.5 65t-98.5 21.5t-98.5 -21.5t-76.5 -65t-49.5 -108t-17.5 -149.5q0 -86 17.5 -150.5t49.5 -107.5t76.5 -64.5t98.5 -21.5zM943 1198h-267v285h267v-285zM546 1198h-271v285h271v-285z" />
    <glyph glyph-name="divide" unicode="&#xf7;" horiz-adv-x="1238" 
d="M762 897h-286v283h286v-283zM1127 608h-1016v248h1016v-248zM762 283h-286v284h286v-284z" />
    <glyph glyph-name="oslash" unicode="&#xf8;" horiz-adv-x="1180" 
d="M983 925q104 -148 104 -375q0 -136 -37.5 -243t-105.5 -180.5t-164 -112t-214 -38.5q-76 0 -140.5 16t-123.5 48l-98 -126l-166 123l113 134q-105 147 -105 379q0 135 37 242t105.5 180.5t164.5 112.5t213 39q75 0 140 -16t123 -48l97 127l164 -121zM680 865
q-25 14 -54.5 21.5t-59.5 7.5q-54 0 -98.5 -21.5t-76.5 -65t-50 -108t-18 -149.5q0 -36 3.5 -68.5t8.5 -62.5zM796 682q-303 -387 -352 -444q52 -32 122 -32q54 0 98.5 21.5t76.5 64.5t49.5 107.5t17.5 150.5q0 73 -12 132z" />
    <glyph glyph-name="ugrave" unicode="&#xf9;" 
d="M797 67q-118 -91 -258 -91q-389 0 -389 418v704h274v-695q0 -102 33.5 -145.5t108.5 -43.5q124 0 231 132v752h270v-1098h-270v67zM822 1155h-237l-280 357h347z" />
    <glyph glyph-name="uacute" unicode="&#xfa;" 
d="M797 67q-118 -91 -258 -91q-389 0 -389 418v704h274v-695q0 -102 33.5 -145.5t108.5 -43.5q124 0 231 132v752h270v-1098h-270v67zM943 1512l-279 -357h-237l170 357h346z" />
    <glyph glyph-name="ucircumflex" unicode="&#xfb;" 
d="M797 67q-118 -91 -258 -91q-389 0 -389 418v704h274v-695q0 -102 33.5 -145.5t108.5 -43.5q124 0 231 132v752h270v-1098h-270v67zM1008 1155h-312l-82 123l-82 -123h-312l280 356h228z" />
    <glyph glyph-name="udieresis" unicode="&#xfc;" 
d="M797 67q-118 -91 -258 -91q-389 0 -389 418v704h274v-695q0 -102 33.5 -145.5t108.5 -43.5q124 0 231 132v752h270v-1098h-270v67zM943 1198h-267v285h267v-285zM546 1198h-271v285h271v-285z" />
    <glyph glyph-name="yacute" unicode="&#xfd;" horiz-adv-x="1106" 
d="M256 -156q96 0 169 199l-398 1055h293l234 -691l235 691h294l-404 -1069q-37 -97 -71.5 -177.5t-78 -138.5t-101 -90.5t-141.5 -32.5q-38 0 -78.5 6t-85.5 20v263q54 -21 84.5 -28t48.5 -7zM943 1512l-279 -357h-237l170 357h346z" />
    <glyph glyph-name="thorn" unicode="&#xfe;" horiz-adv-x="1180" 
d="M383 1043q54 40 114.5 60.5t128.5 20.5q111 0 197 -40.5t145 -115t89.5 -179t30.5 -231.5q0 -132 -36 -239.5t-99.5 -183.5t-150 -117.5t-187.5 -41.5q-69 0 -124.5 13t-107.5 44v-421h-271v1872h271v-441zM383 301q100 -95 221 -95q95 0 150.5 88.5t55.5 263.5
q0 167 -52.5 251.5t-146.5 84.5q-119 0 -228 -144v-449z" />
    <glyph glyph-name="ydieresis" unicode="&#xff;" horiz-adv-x="1106" 
d="M256 -156q96 0 169 199l-398 1055h293l234 -691l235 691h294l-404 -1069q-37 -97 -71.5 -177.5t-78 -138.5t-101 -90.5t-141.5 -32.5q-38 0 -78.5 6t-85.5 20v263q54 -21 84.5 -28t48.5 -7zM874 1198h-267v285h267v-285zM477 1198h-271v285h271v-285z" />
    <glyph glyph-name="dotlessi" unicode="&#x131;" horiz-adv-x="528" 
d="M412 0h-270v1098h270v-1098z" />
    <glyph glyph-name="OE" unicode="&#x152;" horiz-adv-x="2121" 
d="M1968 0h-895v112q-72 -65 -163 -100.5t-189 -35.5q-148 0 -267 53.5t-202.5 154t-128.5 246t-45 330.5q0 184 45 329t128 245.5t202 154t268 53.5q46 0 93.5 -9.5t93 -27.5t87.5 -43t78 -56v112h863v-261h-579v-343h524v-259h-524v-394h611v-261zM719 228q354 0 354 532
q0 529 -348 529q-84 0 -150.5 -34.5t-112 -101.5t-70 -165.5t-24.5 -227.5q0 -128 24 -227.5t69.5 -167t110.5 -102.5t147 -35z" />
    <glyph glyph-name="oe" unicode="&#x153;" horiz-adv-x="2003" 
d="M1861 463h-758q9 -66 32.5 -114.5t57 -80t75.5 -47t90 -15.5q38 0 74.5 12.5t65.5 36t48 57.5t22 78h278q-13 -100 -55.5 -177t-107 -129.5t-148 -80t-177.5 -27.5q-244 0 -394 156q-69 -83 -162 -119.5t-219 -36.5q-116 0 -212 38t-164.5 111t-106.5 180t-38 245
q0 135 37 242t105.5 180.5t164.5 112.5t214 39q121 0 214 -38t165 -117q71 82 163 118.5t214 36.5q120 0 217 -39t164.5 -112.5t104 -180.5t36.5 -242v-87zM1569 692q-26 100 -87 151t-143 51q-80 0 -141.5 -50t-85.5 -152h457zM583 206q53 0 97.5 21.5t76.5 64.5t50 107.5
t18 150.5q0 85 -18 149.5t-50 108t-76.5 65t-97.5 21.5q-54 0 -98.5 -21.5t-77 -65t-50 -108t-17.5 -149.5q0 -86 17.5 -150.5t50 -107.5t77 -64.5t98.5 -21.5z" />
    <glyph glyph-name="Scaron" unicode="&#x160;" horiz-adv-x="1461" 
d="M765 -24q-163 0 -284.5 42.5t-203.5 118.5t-124.5 181.5t-46.5 231.5h275q7 -81 39.5 -140.5t82.5 -98.5t114.5 -57.5t137.5 -18.5q69 0 126 14t97.5 39.5t62.5 62.5t22 83q0 47 -21.5 80t-69.5 59t-126 47.5t-192 44.5q-130 29 -224 67.5t-154.5 91t-89.5 121t-29 157.5
q0 96 40 176.5t113.5 139t175.5 91.5t227 33q130 0 237.5 -35.5t185.5 -102t122.5 -163t47.5 -218.5h-272q-30 259 -313 259q-138 0 -211 -46.5t-73 -127.5q0 -33 16 -58t51 -45t90 -36.5t133 -33.5q73 -15 147 -33.5t142 -44t127.5 -61t103.5 -84.5t69 -113.5t25 -148.5
q0 -105 -43 -192t-119.5 -149.5t-182.5 -97.5t-231 -35zM1114 1980l-287 -363h-232l-287 363h317l86 -127l84 127h319z" />
    <glyph glyph-name="scaron" unicode="&#x161;" horiz-adv-x="1106" 
d="M560 -24q-457 0 -485 414h277q2 -184 206 -184q89 0 135.5 33t46.5 83q0 23 -10 38t-38 28.5t-78.5 28t-131.5 34.5q-99 24 -170 48.5t-117.5 61t-68.5 90t-22 136.5q0 72 30 133.5t85 106.5t133 71t174 26q443 0 452 -372h-267q-10 142 -172 142q-35 0 -65.5 -6
t-52.5 -17.5t-34.5 -28t-12.5 -38.5q0 -18 6.5 -30t31 -23.5t72.5 -25t131 -33.5q101 -26 175.5 -52t123.5 -64.5t73 -94.5t24 -141q0 -78 -32 -144.5t-90.5 -115t-142 -76.5t-186.5 -28zM910 1515l-280 -360h-228l-281 360h311l84 -126l82 126h312z" />
    <glyph glyph-name="Ydieresis" unicode="&#x178;" horiz-adv-x="1461" 
d="M1474 1518l-601 -880v-638h-283v638l-602 880h343l401 -615l399 615h343zM1041 1558h-267v285h267v-285zM644 1558h-271v285h271v-285z" />
    <glyph glyph-name="Zcaron" unicode="&#x17d;" horiz-adv-x="1341" 
d="M1277 0h-1223v239l836 1018h-755v261h1116v-240l-836 -1017h862v-261zM1091 1980l-288 -363h-231l-288 363h318l86 -127l83 127h320z" />
    <glyph glyph-name="zcaron" unicode="&#x17e;" horiz-adv-x="1106" 
d="M1046 0h-986v213l575 646h-538v239h917v-211l-574 -645h606v-242zM951 1515l-280 -360h-229l-280 360h311l83 -125l84 125h311z" />
    <glyph glyph-name="florin" unicode="&#x192;" horiz-adv-x="1179" 
d="M1072 1207q-124 34 -191 34q-12 0 -22.5 -4t-20 -16t-17.5 -34.5t-15 -60.5l-9 -48h192l-38 -220h-196l-174 -984q-13 -75 -37 -128.5t-60.5 -88t-87 -50.5t-116.5 -16q-99 0 -240 27v242q78 -15 128.5 -23t77.5 -8q19 0 31.5 6.5t20.5 20t13 34.5t10 48l161 920h-189
l34 220h193l15 92q15 99 44 161.5t69.5 98t91.5 48.5t111 13q52 0 106 -6t115 -17v-261z" />
    <glyph glyph-name="circumflex" unicode="&#x2c6;" horiz-adv-x="800" 
d="M778 1155h-312l-82 123l-82 -123h-312l280 356h228z" />
    <glyph glyph-name="caron" unicode="&#x2c7;" horiz-adv-x="800" 
d="M779 1515l-280 -360h-229l-280 360h311l83 -125l84 125h311z" />
    <glyph glyph-name="ZWNJ" unicode="&#x2d8;" horiz-adv-x="0" 
d="M36 -275h-72v1859h72v-1859z" />
    <glyph glyph-name="ZWNJ" unicode="&#x200c;" horiz-adv-x="0" 
d="M36 -275h-72v1859h72v-1859z" />
    <glyph glyph-name="ZWJ" unicode="&#x2d9;" horiz-adv-x="0" 
d="M219 1369l-49 -49l-134 136v-1731h-72v1731l-134 -136l-49 49l171 169l-171 168l49 49l170 -171l170 171l49 -49l-171 -168z" />
    <glyph glyph-name="ZWJ" unicode="&#x200d;" horiz-adv-x="0" 
d="M219 1369l-49 -49l-134 136v-1731h-72v1731l-134 -136l-49 49l171 169l-171 168l49 49l170 -171l170 171l49 -49l-171 -168z" />
    <glyph glyph-name="ring" unicode="&#x2da;" horiz-adv-x="764" 
d="M382 1606q45 0 85 -18t70 -48t47.5 -69t17.5 -82q0 -44 -17 -83.5t-46.5 -69t-70 -47t-86.5 -17.5q-45 0 -85 16.5t-69 46t-46 69t-17 85.5q0 44 17 83.5t46 69t69 47t85 17.5zM382 1329q24 0 40.5 17t16.5 43q0 23 -16.5 40.5t-40.5 17.5q-22 0 -38 -17.5t-16 -40.5
q0 -24 16 -42t38 -18z" />
    <glyph glyph-name="tilde" unicode="&#x2dc;" horiz-adv-x="840" 
d="M768 1493q0 -72 -18 -129t-49.5 -96.5t-75 -60.5t-95.5 -21q-15 0 -39 6t-51 15t-55 19t-51 19t-38.5 15t-18.5 6q-27 0 -26 -82h-214q0 71 18.5 128t50.5 97t76 61.5t95 21.5q15 0 39 -6t50.5 -15.5t54 -20t50.5 -20t39 -15.5t20 -6q26 0 26 84h212z" />
    <glyph glyph-name="dev_udatta" unicode="&#x951;" horiz-adv-x="0" 
d="M-415 1022h-187v984h187v-984z" />
    <glyph glyph-name="dev_anudatta" unicode="&#x952;" horiz-adv-x="0" 
d="M14 -641h-1373v166h1373v-166z" />
    <glyph glyph-name="dev_danda" unicode="&#x964;" horiz-adv-x="1221" 
d="M847 -153h-292v2139h292v-2139z" />
    <glyph glyph-name="dev_dbldanda" unicode="&#x965;" horiz-adv-x="1793" 
d="M1447 -153h-292v2139h292v-2139zM847 -153h-292v2139h292v-2139z" />
    <glyph glyph-name="ml_anusvara" unicode="&#xd02;" horiz-adv-x="1201" 
d="M1080 456q0 -96 -39 -182.5t-105 -152t-152.5 -104t-182.5 -38.5q-97 0 -184 38.5t-152.5 103.5t-104 152t-38.5 183q0 97 38 184.5t103.5 153.5t152.5 105t185 39q95 0 182 -39t153 -105t105 -153.5t39 -184.5zM870 456q0 54 -22 103t-59 86.5t-85.5 59.5t-102.5 22
t-103.5 -22t-87 -59t-59.5 -86.5t-22 -103.5t22 -102.5t59.5 -85t87 -58t103.5 -21.5q53 0 101.5 22t86 58.5t59.5 85t22 101.5z" />
    <glyph glyph-name="ml_visarga" unicode="&#xd03;" horiz-adv-x="792" 
d="M671 1067q0 -55 -22.5 -105t-60 -88t-87.5 -60.5t-105 -22.5q-56 0 -105.5 22.5t-87 60t-59.5 87.5t-22 106q0 55 22.5 105t60 87.5t87.5 59.5t104 22q55 0 104.5 -22t87.5 -59.5t60.5 -87.5t22.5 -105zM499 1067q0 21 -8 39.5t-22.5 32t-33 21.5t-39.5 8q-20 0 -38.5 -8
t-33 -22t-23 -32.5t-8.5 -38.5t8.5 -39t22.5 -33t33 -22.5t39 -8.5t38.5 8.5t33 22.5t23 33t8.5 39zM671 253q0 -55 -22.5 -105t-60 -87.5t-87.5 -59.5t-105 -22q-56 0 -105.5 22t-87 59.5t-59.5 87t-22 105.5q0 55 22 105t59.5 87.5t87.5 60t105 22.5q54 0 103.5 -22.5
t88 -61t61 -88t22.5 -103.5zM499 253q0 21 -8 39.5t-22.5 33t-33 22.5t-39.5 8q-20 0 -39 -8.5t-33 -23t-22.5 -33t-8.5 -38.5t8.5 -38t22.5 -32t32.5 -22.5t39.5 -8.5t39.5 8t33 21.5t22.5 32t8 39.5z" />
    <glyph glyph-name="ml_a" unicode="&#xd05;" horiz-adv-x="3014" 
d="M2893 595q0 -70 -12.5 -143t-38 -141.5t-63.5 -129t-89 -105.5t-115 -71t-141 -26q-95 0 -174.5 35t-137 97.5t-89.5 149t-32 190.5q0 109 39.5 205t111 169t170.5 118.5t218 52.5q-109 130 -275 130q-83 0 -154 -39.5t-122.5 -106.5t-81 -156.5t-29.5 -189.5v-634h-217
v634q0 373 -276 468q60 -92 60 -206q0 -151 -104 -229q32 -22 60 -53.5t49 -68.5t33 -76.5t12 -76.5q0 -84 -34 -159.5t-91.5 -131.5t-134.5 -89t-162 -33q-86 0 -161.5 25.5t-138.5 71t-112.5 107.5t-84 134.5t-52.5 153t-18 162.5q0 262 160 455q-75 -29 -135.5 -79.5
t-102.5 -116.5t-64.5 -144t-22.5 -162q0 -242 199 -429l-131 -171q-287 230 -287 607q0 161 58.5 298t161 237t241.5 156.5t299 56.5q103 0 169 -19q80 19 175 19q354 0 538 -283q35 60 90.5 111.5t121.5 89.5t138 60t141 22q98 0 184 -29.5t156.5 -81t126 -122.5t93.5 -154
t58 -174.5t20 -184.5zM2664 582q0 105 -23 180q-41 11 -85 11q-68 0 -129.5 -26.5t-108 -71t-73.5 -103t-27 -121.5q0 -55 13.5 -102t38.5 -81.5t60.5 -54t80.5 -19.5q56 0 102.5 30.5t80 83.5t52 123.5t18.5 150.5zM1279 373q0 171 -303 171v215q251 0 251 143
q0 197 -182 197q-67 0 -125.5 -39t-102 -104t-68.5 -149t-25 -174q0 -92 25 -172t70 -139.5t108 -93.5t138 -34q41 0 79.5 14t68.5 38t48 56.5t18 70.5z" />
    <glyph glyph-name="ml_aa" unicode="&#xd06;" horiz-adv-x="3286" 
d="M3165 268q0 -153 -53.5 -282t-148 -222.5t-224.5 -146t-284 -52.5q-259 0 -473 178l131 164q167 -125 351 -125q104 0 193.5 37.5t155 104.5t103 158t37.5 199q0 122 -58 239q-9 -120 -46.5 -221.5t-97.5 -175t-140 -114.5t-173 -41q-96 0 -176 36t-137 99.5t-89 150.5
t-32 189q0 113 40.5 210.5t112.5 170.5t171 117t216 52q-110 131 -275 131q-84 0 -155 -40t-122.5 -108t-81 -158t-29.5 -190v-628h-217v628q0 89 -18.5 165t-53.5 137t-86.5 104t-118.5 66q60 -93 60 -207q0 -152 -104 -232q32 -22 60 -53.5t49 -68.5t33 -77t12 -78
q0 -86 -34 -161.5t-91.5 -132t-134.5 -89.5t-163 -33q-256 0 -419 211q-148 191 -148 448q0 263 160 459q-75 -30 -135.5 -81t-103 -117t-65 -144.5t-22.5 -164.5q0 -243 199 -432l-130 -172q-288 232 -288 612q0 108 26.5 205.5t75 181.5t117.5 151.5t153.5 115.5t182.5 74
t206 26q100 0 169 -19q82 19 176 19q354 0 538 -286q36 60 91.5 112.5t122 91t138.5 60.5t141 22q98 0 186.5 -30.5t163.5 -87t133.5 -137.5t97.5 -183q75 -51 135.5 -121t102.5 -152.5t64.5 -175t22.5 -186.5zM2668 576q0 104 -23 181q-41 11 -85 11q-66 0 -127 -26
t-108 -70t-75 -103.5t-28 -125.5q0 -56 13.5 -103t39 -81.5t60.5 -54t79 -19.5q57 0 104 31t80.5 84t51.5 124.5t18 151.5zM1281 364q0 174 -304 174v217q252 0 252 143q0 199 -182 199q-68 0 -126.5 -40t-102 -106t-68.5 -150.5t-25 -173.5q0 -92 25.5 -172.5t70.5 -140.5
t107.5 -94.5t137.5 -34.5q43 0 82 14.5t68.5 39t47 57t17.5 68.5z" />
    <glyph glyph-name="ml_i" unicode="&#xd07;" horiz-adv-x="2452" 
d="M2331 -641h-1839q-370 0 -370 287q0 281 370 281h972q144 0 247.5 16t175.5 51.5t116 93t68 141.5q38 135 38 431q0 46 -10 98.5t-29.5 104t-48 98.5t-65.5 83t-81.5 57.5t-96.5 21.5q-53 0 -102.5 -21t-92.5 -58t-78.5 -86.5t-60.5 -106.5t-39 -119t-14 -123v-495h-221
v495q0 117 -27 212t-77.5 162t-123 103.5t-163.5 36.5q-92 0 -172.5 -36.5t-139.5 -98.5t-93 -145.5t-34 -177.5q0 -114 31 -195q16 55 49.5 100t79.5 76.5t101 48.5t115 17q73 0 138.5 -29.5t114.5 -79t77.5 -115.5t28.5 -139q0 -71 -30.5 -135.5t-81 -113.5t-116 -78
t-136.5 -29q-92 0 -171 29.5t-144.5 80.5t-116.5 120.5t-86 149.5t-53 166.5t-18 172.5t23.5 166.5t66.5 150t103.5 127t134.5 99t160 64t179 22.5q314 0 488 -292q175 292 480 292q127 0 233 -52.5t181.5 -144.5t117.5 -216t42 -268q0 -517 -156 -716q-182 -233 -690 -233
h-1012q-133 0 -133 -65q0 -70 133 -70h1858v-217zM857 352q0 28 -11.5 54t-31 45.5t-45 31t-53.5 11.5q-29 0 -55 -11t-46 -30.5t-31.5 -45.5t-11.5 -55q0 -43 6 -70.5t22 -43t44 -21.5t72 -6q28 0 53.5 12t45 31.5t31 45t11.5 52.5z" />
    <glyph glyph-name="ml_ii" unicode="&#xd08;" horiz-adv-x="3852" 
d="M2331 -641h-1839q-370 0 -370 287q0 281 370 281h972q144 0 247.5 16t175.5 51.5t116 93t68 141.5q38 135 38 431q0 46 -10 98.5t-29.5 104t-48 98.5t-65.5 83t-81.5 57.5t-96.5 21.5q-53 0 -102.5 -21t-92.5 -58t-78.5 -86.5t-60.5 -106.5t-39 -119t-14 -123v-495h-221
v495q0 117 -27 212t-77.5 162t-123 103.5t-163.5 36.5q-92 0 -172.5 -36.5t-139.5 -98.5t-93 -145.5t-34 -177.5q0 -114 31 -195q16 55 49.5 100t79.5 76.5t101 48.5t115 17q73 0 138.5 -29.5t114.5 -79t77.5 -115.5t28.5 -139q0 -71 -30.5 -135.5t-81 -113.5t-116 -78
t-136.5 -29q-92 0 -171 29.5t-144.5 80.5t-116.5 120.5t-86 149.5t-53 166.5t-18 172.5t23.5 166.5t66.5 150t103.5 127t134.5 99t160 64t179 22.5q314 0 488 -292q175 292 480 292q127 0 233 -52.5t181.5 -144.5t117.5 -216t42 -268q0 -517 -156 -716q-182 -233 -690 -233
h-1012q-133 0 -133 -65q0 -70 133 -70h1858v-217zM857 352q0 28 -11.5 54t-31 45.5t-45 31t-53.5 11.5q-29 0 -55 -11t-46 -30.5t-31.5 -45.5t-11.5 -55q0 -43 6 -70.5t22 -43t44 -21.5t72 -6q28 0 53.5 12t45 31.5t31 45t11.5 52.5zM3731 672q0 -161 -33.5 -289t-97.5 -218
t-157.5 -138t-214.5 -48q-105 0 -186 32.5t-136.5 94t-84 151.5t-28.5 204h214q0 -267 221 -267q297 0 297 455q0 130 -12 221t-37 148t-64 82.5t-92 25.5q-178 0 -178 -257v-152h-215q0 220 -14 278q-33 131 -156 131q-36 0 -69.5 -13.5t-59 -37t-41 -53.5t-15.5 -63
q0 -76 74 -147l-168 -145q-119 130 -119 300q0 74 32.5 142t87 119.5t125 82t146.5 30.5q171 0 285 -130q102 130 267 130q109 0 190 -39.5t134 -121t79 -208t26 -300.5z" />
    <glyph glyph-name="ml_u" unicode="&#xd09;" horiz-adv-x="1783" 
d="M1662 -641h-1156q-84 0 -154.5 20t-121.5 58t-79.5 91.5t-28.5 121.5q0 67 25 118.5t72 86.5t115 53.5t154 18.5h451q317 0 421 147q83 118 83 462q0 124 -42 231.5t-115.5 186.5t-173.5 124t-215 45q-104 0 -198.5 -39.5t-169 -108.5t-124.5 -163t-64 -202
q103 92 235 92q72 0 137 -29.5t114.5 -79t79 -114.5t29.5 -137t-29 -137t-78 -114.5t-114 -78.5t-137 -29q-70 0 -131 25t-112 68t-90.5 100t-66.5 121.5t-41.5 132.5t-14.5 133q0 168 58 310.5t161 246.5t245.5 162.5t310.5 58.5q113 0 213.5 -29t185 -81.5t152 -126
t114.5 -163t72 -192t25 -213.5q0 -420 -143 -608q-166 -217 -577 -217h-479q-36 0 -59.5 -3t-37 -10t-18.5 -19t-5 -29q0 -78 158 -78h1164v-213zM719 342q0 27 -12 53t-32 46t-46 32t-53 12t-53.5 -12.5t-48.5 -33t-36.5 -46.5t-16.5 -53q9 -29 25.5 -54t37.5 -44t44.5 -30
t47.5 -11q28 0 53.5 12t45.5 31.5t32 45t12 52.5z" />
    <glyph glyph-name="ml_uu" unicode="&#xd0a;" horiz-adv-x="3212" 
d="M1662 -641h-1156q-84 0 -154.5 20t-121.5 58t-79.5 91.5t-28.5 121.5q0 67 25 118.5t72 86.5t115 53.5t154 18.5h451q317 0 421 147q83 118 83 462q0 124 -42 231.5t-115.5 186.5t-173.5 124t-215 45q-104 0 -198.5 -39.5t-169 -108.5t-124.5 -163t-64 -202
q103 92 235 92q72 0 137 -29.5t114.5 -79t79 -114.5t29.5 -137t-29 -137t-78 -114.5t-114 -78.5t-137 -29q-70 0 -131 25t-112 68t-90.5 100t-66.5 121.5t-41.5 132.5t-14.5 133q0 168 58 310.5t161 246.5t245.5 162.5t310.5 58.5q113 0 213.5 -29t185 -81.5t152 -126
t114.5 -163t72 -192t25 -213.5q0 -420 -143 -608q-166 -217 -577 -217h-479q-36 0 -59.5 -3t-37 -10t-18.5 -19t-5 -29q0 -78 158 -78h1164v-213zM719 342q0 27 -12 53t-32 46t-46 32t-53 12t-53.5 -12.5t-48.5 -33t-36.5 -46.5t-16.5 -53q9 -29 25.5 -54t37.5 -44t44.5 -30
t47.5 -11q28 0 53.5 12t45.5 31.5t32 45t12 52.5zM3090 672q0 -161 -33.5 -289t-97.5 -218t-157.5 -138t-214.5 -48q-105 0 -186 32.5t-136.5 94t-84 151.5t-28.5 204h214q0 -267 221 -267q297 0 297 455q0 130 -12 221t-37 148t-64 82.5t-92 25.5q-178 0 -178 -257v-152
h-215q0 220 -14 278q-33 131 -156 131q-36 0 -69.5 -13.5t-59 -37t-41 -53.5t-15.5 -63q0 -76 74 -147l-168 -145q-119 130 -119 300q0 74 32.5 142t87 119.5t125 82t146.5 30.5q171 0 285 -130q102 130 267 130q109 0 190 -39.5t134 -121t79 -208t26 -300.5z" />
    <glyph glyph-name="ml_ri" unicode="&#xd0b;" horiz-adv-x="2208" 
d="M2086 761q0 -424 -461 -651q326 -146 326 -375q0 -96 -39 -168.5t-104.5 -125.5t-151.5 -88t-179.5 -56t-188.5 -29.5t-178 -8.5q-208 0 -367 30.5t-267 90.5t-163.5 149t-55.5 205q0 230 325 372q-105 51 -190 122t-145 154.5t-92.5 177t-32.5 191.5q0 70 17.5 141
t50 136.5t78.5 122.5t103 99.5t123.5 66.5t140.5 24q75 0 139.5 -28.5t111.5 -78t73.5 -115.5t26.5 -141q0 -71 -29.5 -135.5t-79 -113.5t-114 -78.5t-135.5 -29.5q-175 0 -287 145q0 -103 34.5 -180t93.5 -138.5t137 -107t165 -75t178 -44.5t175 -15q83 0 169 15.5
t166.5 46.5t152 77t126.5 106.5t89.5 136t39.5 165.5q-110 -132 -272 -132q-75 0 -141 29t-115.5 79t-78 116t-28.5 141q0 70 28 134.5t76 113.5t111.5 78t134.5 29q72 0 138 -24t122 -65t101 -97.5t77 -120.5t49 -134t17 -139zM1756 1032q-73 91 -165 91q-29 0 -54.5 -11.5
t-45 -31t-31 -45.5t-11.5 -54q0 -29 11.5 -54.5t31 -45t45 -31t54.5 -11.5q32 0 61.5 15.5t52 42t36 61.5t15.5 74zM769 981q0 28 -12 53.5t-31.5 45t-45 31.5t-53.5 12q-87 0 -166 -85q1 -40 14.5 -76t36 -63.5t52 -43.5t63.5 -16q29 0 54.5 12t45 31.5t31 45t11.5 53.5z
M1735 -266q0 57 -50 104t-137 80.5t-204 52t-251 18.5q-128 0 -241 -18.5t-197 -52t-133 -80.5t-49 -104q0 -53 29 -92t78 -68t113 -47.5t134.5 -29.5t141.5 -15.5t135 -4.5q60 0 130.5 5t140.5 16.5t135 31t115 48t80 67t30 89.5z" />
    <glyph glyph-name="ml_li" unicode="&#xd0c;" horiz-adv-x="2334" 
d="M2179.5 334q-32.5 -108 -92.5 -187t-144 -123.5t-187 -44.5q-89 0 -163 35t-127.5 96t-83.5 144t-30 179q0 428 436 636q-77 57 -160 57q-49 0 -95.5 -19t-88 -52t-76.5 -76t-60.5 -91t-39.5 -98t-14 -96v-695h-218v695q0 81 -27.5 158.5t-75 138.5t-109.5 98t-131 37
q-58 0 -106.5 -23t-87.5 -62t-69 -90t-50 -107t-30 -113t-10 -119q87 78 227 78q72 0 137.5 -28.5t116 -77t80 -113.5t29.5 -137q0 -71 -29 -135t-78 -113t-114 -78t-136 -29q-78 0 -141.5 27t-114 73.5t-87 108.5t-61 132t-36 144t-11.5 144q0 82 17.5 168t51.5 167.5
t83 153.5t112.5 126.5t140.5 86t166 31.5q65 0 129.5 -20t123.5 -57t109.5 -88.5t88.5 -115.5q37 60 91.5 111t117.5 89t130.5 59.5t132.5 21.5q96 0 177.5 -30t147.5 -82t116.5 -123t85 -153.5t52 -172.5t17.5 -181q0 -157 -32.5 -265zM1984 556q0 180 -56 324
q-80 -21 -147 -64t-115 -102t-75 -131t-27 -150q0 -53 12 -96.5t34 -75.5t53 -49.5t69 -17.5q59 0 105.5 26.5t79 74.5t50 114.5t17.5 146.5zM712 334q0 28 -12 53.5t-32 45t-45.5 31t-53.5 11.5q-111 0 -162 -115q37 -166 162 -166q28 0 54 11.5t45.5 31t31.5 44.5t12 53z
" />
    <glyph glyph-name="ml_e" unicode="&#xd0e;" horiz-adv-x="3046" 
d="M2924 555q0 -787 -389 -1161l-151 139q324 396 324 1022q0 91 -13 193t-41 201t-72.5 189.5t-107 159.5t-145 109.5t-186.5 40.5q-100 0 -178.5 -42t-138 -112t-101 -162t-68 -191t-38.5 -199t-12 -187q0 -90 5 -173.5t15 -163.5h423v895h219v-1231q0 -505 -341 -505
q-207 0 -349 229q-115 183 -133 394h-723v199q122 17 122 143q0 42 -21.5 81.5t-56.5 70t-78.5 49t-87.5 18.5q-53 0 -100.5 -17.5t-83 -47.5t-56 -71t-20.5 -89q0 -113 102 -180l-109 -185q-212 107 -212 365q0 95 37.5 176t102.5 140.5t152.5 93t186.5 33.5
q57 0 114 -15.5t108.5 -43t95.5 -66.5t76.5 -86.5t51 -102t18.5 -113.5q0 -84 -22 -134h367q-8 73 -12.5 156.5t-4.5 180.5q0 119 19 247.5t58 252t99.5 234.5t144.5 194.5t192 133t241 49.5q137 0 248.5 -48t197.5 -130.5t148.5 -192t103 -233t60 -254t19.5 -253.5z
M2050 -151v151h-383q67 -405 261 -405q34 0 57 12t37.5 41.5t21 78t6.5 122.5z" />
    <glyph glyph-name="ml_ee" unicode="&#xd0f;" horiz-adv-x="3050" 
d="M2929 844q0 -562 -267 -734q149 -122 149 -342q0 -93 -32 -166.5t-92 -124t-145 -77.5t-190 -27v210q75 12 122.5 27t73.5 38t35.5 55t9.5 78q0 219 -262 219v215q237 41 321 217q58 129 58 409q0 132 -33 242t-94 189.5t-147.5 123.5t-194.5 44q-153 0 -273 -62.5
t-203 -178t-127 -278t-44 -362.5q0 -86 6 -171t19 -170h419v899h218v-1131q0 -605 -338 -605q-360 0 -478 619h-717v200q122 17 122 143q0 40 -20.5 78t-55 66.5t-78.5 46t-90 17.5q-55 0 -102.5 -16t-82.5 -44.5t-55 -68t-20 -85.5q0 -112 102 -181l-109 -184
q-212 107 -212 365q0 94 36.5 173t101 136.5t152 90t189.5 32.5q85 0 168 -32t149 -87.5t106.5 -132t40.5 -164.5q0 -84 -22 -135h361q-10 81 -15 166t-5 175q0 137 22 272t67.5 257t115 226t164 180.5t215.5 119.5t270 43q158 0 285.5 -60t217.5 -168t139 -257.5t49 -327.5
zM2038 -56v56h-380q87 -401 260 -401q32 0 55 17.5t37.5 58t21 106.5t6.5 163z" />
    <glyph glyph-name="ml_ai" unicode="&#xd10;" horiz-adv-x="4290" 
d="M1301 634q0 -406 -240 -668l-135 169q160 172 160 499q0 105 -26.5 195t-75.5 155.5t-117 103t-152 37.5q-85 0 -155 -38t-120.5 -105.5t-78 -159t-27.5 -213.5q97 81 225 81q72 0 136 -29t113 -78t77.5 -113.5t28.5 -135.5q0 -70 -28 -134t-76 -113t-111.5 -78.5
t-133.5 -29.5q-78 0 -141 27t-112.5 73.5t-85 109t-59 132t-34.5 143.5t-11 144q0 158 41.5 292.5t119 232t187 152.5t245.5 55q94 0 174.5 -27.5t145.5 -76.5t114.5 -115.5t83.5 -145t51 -165.5t17 -176zM700 334q0 27 -11.5 52.5t-30.5 45t-44.5 31.5t-52.5 12
q-97 0 -162 -116q34 -165 162 -165q28 0 53.5 11.5t44.5 30.5t30 44.5t11 53.5zM4167 555q0 -787 -389 -1161l-151 139q324 396 324 1022q0 91 -13 193t-41 201t-72.5 189.5t-107 159.5t-145 109.5t-186.5 40.5q-100 0 -178.5 -42t-138 -112t-101 -162t-68 -191t-38.5 -199
t-12 -187q0 -90 5 -173.5t15 -163.5h423v895h219v-1231q0 -505 -341 -505q-207 0 -349 229q-115 183 -133 394h-723v199q122 17 122 143q0 42 -21.5 81.5t-56.5 70t-78.5 49t-87.5 18.5q-53 0 -100.5 -17.5t-83 -47.5t-56 -71t-20.5 -89q0 -113 102 -180l-109 -185
q-212 107 -212 365q0 95 37.5 176t102.5 140.5t152.5 93t186.5 33.5q57 0 114 -15.5t108.5 -43t95.5 -66.5t76.5 -86.5t51 -102t18.5 -113.5q0 -84 -22 -134h367q-8 73 -12.5 156.5t-4.5 180.5q0 119 19 247.5t58 252t99.5 234.5t144.5 194.5t192 133t241 49.5
q137 0 248.5 -48t197.5 -130.5t148.5 -192t103 -233t60 -254t19.5 -253.5zM3293 -151v151h-383q67 -405 261 -405q34 0 57 12t37.5 41.5t21 78t6.5 122.5z" />
    <glyph glyph-name="ml_o" unicode="&#xd12;" horiz-adv-x="1753" 
d="M1632 342q0 -75 -29 -141t-78.5 -115.5t-115.5 -78t-141 -28.5q-122 0 -273 114l138 179q70 -78 135 -78q32 0 59.5 11t47.5 31t31 47.5t11 60.5q0 45 -10.5 76t-34.5 50.5t-63 28t-96 8.5h-109v214h109q204 0 204 163q0 242 -479 242q-117 0 -219.5 -36.5t-182.5 -103.5
t-133 -161.5t-70 -209.5q94 75 221 75q73 0 137.5 -28t113 -76.5t76.5 -113.5t28 -138q0 -72 -27.5 -136.5t-74.5 -113t-110.5 -77t-136.5 -28.5q-95 0 -175 43.5t-138.5 118.5t-91.5 174.5t-33 212.5q0 120 29 226.5t82 197t127 162.5t164.5 122.5t195.5 77.5t218 27
q163 0 291.5 -32t217.5 -93.5t136 -152.5t47 -208q0 -33 -11 -67.5t-30 -65.5t-45 -57t-55 -43q30 -20 56 -52.5t45.5 -71t30.5 -79.5t11 -77zM696 334q0 27 -12 52.5t-32 45t-45.5 31.5t-52.5 12q-29 0 -55.5 -12.5t-48 -33.5t-37 -49.5t-21.5 -60.5q77 -125 162 -125
q27 0 53 11.5t45.5 31t31.5 44.5t12 53z" />
    <glyph glyph-name="ml_oo" unicode="&#xd13;" horiz-adv-x="2929" 
d="M1632 342q0 -75 -29 -141t-78.5 -115.5t-115.5 -78t-141 -28.5q-122 0 -273 114l138 179q70 -78 135 -78q32 0 59.5 11t47.5 31t31 47.5t11 60.5q0 45 -10.5 76t-34.5 50.5t-63 28t-96 8.5h-109v214h109q204 0 204 163q0 242 -479 242q-117 0 -219.5 -36.5t-182.5 -103.5
t-133 -161.5t-70 -209.5q94 75 221 75q73 0 137.5 -28t113 -76.5t76.5 -113.5t28 -138q0 -72 -27.5 -136.5t-74.5 -113t-110.5 -77t-136.5 -28.5q-95 0 -175 43.5t-138.5 118.5t-91.5 174.5t-33 212.5q0 120 29 226.5t82 197t127 162.5t164.5 122.5t195.5 77.5t218 27
q163 0 291.5 -32t217.5 -93.5t136 -152.5t47 -208q0 -33 -11 -67.5t-30 -65.5t-45 -57t-55 -43q30 -20 56 -52.5t45.5 -71t30.5 -79.5t11 -77zM696 334q0 27 -12 52.5t-32 45t-45.5 31.5t-52.5 12q-29 0 -55.5 -12.5t-48 -33.5t-37 -49.5t-21.5 -60.5q77 -125 162 -125
q27 0 53 11.5t45.5 31t31.5 44.5t12 53zM2807 668q0 -88 -18.5 -173t-54 -161.5t-87.5 -141.5t-118 -112.5t-145.5 -74t-171.5 -26.5q-239 0 -429 225l154 127q154 -137 285 -137q81 0 149 37t117.5 101.5t77.5 150.5t28 185q0 86 -29.5 168t-79.5 146.5t-116 104t-138 39.5
q-159 0 -289 -141l-162 133q184 223 432 223q90 0 169.5 -25.5t145.5 -71.5t118 -109t88 -138t55 -158.5t19 -170.5z" />
    <glyph glyph-name="ml_au" unicode="&#xd14;" horiz-adv-x="3316" 
d="M1632 342q0 -75 -29 -141t-78.5 -115.5t-115.5 -78t-141 -28.5q-122 0 -273 114l138 179q70 -78 135 -78q32 0 59.5 11t47.5 31t31 47.5t11 60.5q0 45 -10.5 76t-34.5 50.5t-63 28t-96 8.5h-109v214h109q204 0 204 163q0 242 -479 242q-117 0 -219.5 -36.5t-182.5 -103.5
t-133 -161.5t-70 -209.5q94 75 221 75q73 0 137.5 -28t113 -76.5t76.5 -113.5t28 -138q0 -72 -27.5 -136.5t-74.5 -113t-110.5 -77t-136.5 -28.5q-95 0 -175 43.5t-138.5 118.5t-91.5 174.5t-33 212.5q0 120 29 226.5t82 197t127 162.5t164.5 122.5t195.5 77.5t218 27
q163 0 291.5 -32t217.5 -93.5t136 -152.5t47 -208q0 -33 -11 -67.5t-30 -65.5t-45 -57t-55 -43q30 -20 56 -52.5t45.5 -71t30.5 -79.5t11 -77zM696 334q0 27 -12 52.5t-32 45t-45.5 31.5t-52.5 12q-29 0 -55.5 -12.5t-48 -33.5t-37 -49.5t-21.5 -60.5q77 -125 162 -125
q27 0 53 11.5t45.5 31t31.5 44.5t12 53zM3194 672q0 -161 -33.5 -289t-97.5 -218t-157.5 -138t-214.5 -48q-105 0 -186 32.5t-136.5 94t-84 151.5t-28.5 204h214q0 -267 221 -267q297 0 297 455q0 130 -12 221t-37 148t-64 82.5t-92 25.5q-178 0 -178 -257v-152h-215
q0 220 -14 278q-33 131 -156 131q-36 0 -69.5 -13.5t-59 -37t-41 -53.5t-15.5 -63q0 -76 74 -147l-168 -145q-119 130 -119 300q0 74 32.5 142t87 119.5t125 82t146.5 30.5q171 0 285 -130q102 130 267 130q109 0 190 -39.5t134 -121t79 -208t26 -300.5z" />
    <glyph glyph-name="ml_ka" unicode="&#xd15;" horiz-adv-x="2151" 
d="M2029 367q0 -78 -28.5 -148.5t-78 -124t-115.5 -84.5t-142 -31q-35 0 -60.5 2.5t-51 11.5t-55.5 26.5t-74 47.5l96 194q82 -67 134 -67q35 0 64 14t50 37.5t32.5 55t11.5 66.5q0 57 -19 100.5t-59 73.5t-103 48.5t-151 26.5q-16 -637 -423 -637q-168 0 -269 107
q-145 -107 -298 -107q-80 0 -147.5 29.5t-116.5 81.5t-76.5 123t-27.5 154q0 409 521 459q53 515 414 515q354 0 414 -513q145 -11 250 -45t173.5 -91t101.5 -138t33 -187zM1253 837q-36 289 -196 289q-163 0 -197 -289h393zM1263 622h-411q0 -428 205 -428q54 0 92.5 24
t64 76t37.5 133t12 195zM685 269q-23 69 -35.5 154.5t-13.5 189.5q-80 -9 -136.5 -27t-92 -48t-52 -72t-16.5 -99q0 -78 39.5 -125.5t111.5 -47.5q99 0 195 75z" />
    <glyph glyph-name="ml_kha" unicode="&#xd16;" horiz-adv-x="2378" 
d="M2257 0h-1207v203q226 145 226 456q0 99 -37 184.5t-102 148t-152.5 98.5t-189.5 36q-99 0 -182.5 -39t-144.5 -107.5t-95.5 -161t-34.5 -199.5q0 -22 1 -46q103 117 264 117q75 0 141 -27.5t115 -75.5t77.5 -113t28.5 -140t-28.5 -140t-77.5 -113t-115 -75t-141 -27
q-73 0 -136.5 29.5t-117 80t-95.5 116t-71.5 137.5t-45 145.5t-15.5 138.5q0 94 23.5 183.5t66 168.5t103.5 146t135.5 115t161.5 75t183 27q144 0 270 -52.5t220.5 -144.5t149 -216.5t54.5 -268.5q0 -279 -138 -445h689v1107h217v-1321zM747 334q0 28 -11.5 53.5t-31 45
t-45 31t-53.5 11.5q-124 0 -160 -135q32 -146 160 -146q28 0 53.5 11.5t45 31t31 45t11.5 52.5z" />
    <glyph glyph-name="ml_ga" unicode="&#xd17;" horiz-adv-x="1908" 
d="M1786 668q0 -74 -15 -152t-44.5 -152t-72.5 -140.5t-99 -116.5t-125 -79t-161 -29v215q67 0 122.5 36t95 98t61.5 144.5t22 175.5q0 39 -5.5 88.5t-18 100t-31.5 99t-46.5 86.5t-64 61t-82.5 23q-60 0 -101 -32t-70.5 -87t-49.5 -128.5t-37.5 -156t-34.5 -170t-40.5 -170
t-56 -156t-80 -128.5t-113.5 -87t-156 -32q-82 0 -148 31t-117.5 83t-88 121t-60.5 146t-35.5 156t-11.5 152q0 140 35.5 259.5t101 207t157.5 137t205 49.5v-215q-60 -2 -111.5 -40t-90 -98.5t-60 -136.5t-21.5 -154q0 -39 5 -90t17 -105t31 -105.5t46 -92t63 -65.5t83 -25
q49 0 83 32t59 87t43.5 128.5t36.5 156t37 170t45 170t61.5 156t86 128.5t118.5 87t159 32q84 0 152 -29t120.5 -78.5t90.5 -115.5t62.5 -141t36.5 -154t12 -155z" />
    <glyph glyph-name="ml_gha" unicode="&#xd18;" horiz-adv-x="2907" 
d="M2786 0h-1606v397h-457v197q121 13 121 140q0 40 -21 77.5t-55 66t-77.5 45.5t-89.5 17q-56 0 -103.5 -15.5t-82 -43.5t-54.5 -67t-20 -85q0 -110 101 -178l-108 -183q-212 108 -212 361q0 92 37 170t101.5 135t152 89t188.5 32q90 0 173.5 -33t148 -89.5t103 -131
t38.5 -158.5q0 -82 -21 -131h137v204q0 71 21 137.5t58.5 125t88.5 106.5t111.5 83t128 54t137.5 19t137.5 -19t127.5 -53.5t110.5 -83t86.5 -107t56.5 -125t20.5 -137.5v-419h-867v-182h1170v1106h219v-1321zM2046 612v194q0 63 -26 120.5t-70 102t-102 71t-123 26.5
q-64 0 -123.5 -25.5t-105 -69.5t-72.5 -102t-27 -123v-194h649z" />
    <glyph glyph-name="ml_nga" unicode="&#xd19;" horiz-adv-x="2105" 
d="M1983 345q0 -346 -536 -346v215q321 0 321 160q0 154 -311 154v213q70 0 125.5 12t94.5 35.5t60 57.5t21 78q0 47 -16.5 84.5t-47 63.5t-74 40t-97.5 14q-55 0 -104 -17t-86.5 -47.5t-59.5 -72t-22 -90.5v-900h-216v649q0 478 -343 478q-58 0 -106.5 -23t-87.5 -62
t-69 -90t-50 -106.5t-30 -113t-10 -115.5q85 74 227 74q72 0 137.5 -29t115 -78t79 -113.5t29.5 -135.5t-29 -135.5t-77.5 -113t-113 -77.5t-135.5 -29q-78 0 -142 27t-114 73.5t-86.5 108.5t-60.5 132t-35.5 144t-11.5 144q0 87 16 175.5t47.5 170t79 152t111 123
t142.5 82.5t174 30q268 0 418 -183q135 183 394 183q109 0 197.5 -30t151 -85.5t96.5 -134.5t34 -178q0 -164 -126 -267q126 -107 126 -301zM710 334q0 27 -11.5 52.5t-31 45t-45.5 31.5t-54 12q-113 0 -163 -116q8 -36 24 -66t37.5 -52t47.5 -34.5t54 -12.5t54 11.5
t45.5 31t31 45t11.5 52.5z" />
    <glyph glyph-name="ml_ca" unicode="&#xd1a;" horiz-adv-x="2347" 
d="M2225 0h-2103v215h744q123 0 237 123t114 244q0 51 -13.5 95.5t-38.5 76.5t-59 50.5t-76 18.5q-40 0 -75.5 -15.5t-62.5 -41.5t-42.5 -61.5t-15.5 -75.5q0 -63 85 -121l-120 -165q-183 133 -183 296q0 84 31.5 157t86 127t128.5 84.5t159 30.5q91 0 167.5 -34.5
t131.5 -95.5t85.5 -144.5t30.5 -181.5q0 -207 -151 -367h722v1105h218v-1320z" />
    <glyph glyph-name="ml_cha" unicode="&#xd1b;" horiz-adv-x="3238" 
d="M3103 569q0 -126 -32.5 -234t-92.5 -187t-145 -124t-189 -45q-89 0 -164 35t-129 96t-84 144t-30 179q0 415 376 608q-125 80 -271 80q-72 0 -141 -19t-131 -53t-114 -82t-90 -106.5t-59.5 -126t-21.5 -140.5q0 -69 16 -134.5t45.5 -118t69.5 -88.5t88 -46v-207h-1882
v214h493q42 0 84.5 16t82.5 43t74 63.5t60 77.5t40.5 85t14.5 85q0 50 -14.5 93t-40.5 75t-62.5 50.5t-80.5 18.5q-41 0 -77 -14.5t-63 -40t-42.5 -60.5t-15.5 -76q0 -59 92 -119l-120 -174q-192 133 -192 297q0 84 33.5 157.5t90.5 128t132.5 86.5t160.5 32
q91 0 167.5 -35.5t132 -98t86.5 -146.5t31 -180q0 -210 -169 -364h650q-105 169 -105 372q0 106 28.5 203.5t79.5 181.5t123 152t158 116.5t184.5 75t203.5 26.5q103 0 199 -29t181 -80.5t155 -123t120 -157.5t78 -183t28 -199zM2874 556q0 166 -85 309q-74 -19 -136 -60.5
t-107 -99t-70 -127.5t-25 -145q0 -53 12 -96.5t34 -75.5t53.5 -49.5t69.5 -17.5q59 0 106 27t80 75t50.5 114.5t17.5 145.5z" />
    <glyph glyph-name="ml_ja" unicode="&#xd1c;" horiz-adv-x="1685" 
d="M1563 265q0 -64 -23 -117t-63 -90.5t-94.5 -58t-117.5 -20.5q-44 0 -86.5 14.5t-78.5 40.5t-63 62t-41 78q-267 -195 -505 -195q-179 0 -274 82.5t-95 238.5q0 59 20 103.5t55 77.5t82.5 56t102 40.5t113.5 30.5t117 25q22 5 132.5 29.5t313.5 69.5q290 65 290 218
q0 38 -14 70.5t-39.5 56t-60 36.5t-74.5 13q-179 0 -179 -277h-215v81q0 47 -16 85t-44.5 65t-67.5 41.5t-85 14.5q-32 0 -55 -17q91 -26 142.5 -91.5t51.5 -151.5q0 -52 -22.5 -97t-60.5 -78t-87.5 -52t-103.5 -19q-66 0 -120.5 23.5t-93.5 65.5t-60.5 99t-21.5 124
q0 79 35 151.5t93.5 127.5t134 87.5t156.5 32.5q197 0 328 -132q115 132 290 132q93 0 167.5 -27t127 -77.5t81 -123t28.5 -163.5q0 -99 -38 -166t-102.5 -112t-149.5 -73t-179 -50l-431 -100q-48 -11 -105 -22.5t-106 -28t-81.5 -40t-32.5 -58.5q0 -106 162 -106
q79 0 150 26t136 65t125.5 85t118.5 85t115 65t115 26q62 0 117 -21t96.5 -58.5t65.5 -89t24 -112.5zM1351 273q0 16 -7.5 32t-20.5 28.5t-29 20.5t-33 8q-37 0 -78 -34q-5 -18 -5 -38q0 -98 87 -98q86 0 86 81zM477 879q0 24 -19.5 42.5t-43.5 18.5q-34 0 -59 -13
q-4 -20 -4 -36q0 -15 5 -28.5t14 -24t20.5 -16.5t23.5 -6q63 0 63 63z" />
    <glyph glyph-name="ml_jha" unicode="&#xd1d;" horiz-adv-x="3265" 
d="M3143 649q0 -73 -12 -151t-36.5 -152t-62.5 -141t-90 -117t-118.5 -79.5t-147.5 -29.5q-196 0 -325 133q-106 -133 -295 -133q-84 0 -148 22t-110.5 62t-77.5 95.5t-49.5 121.5t-26 140.5t-7.5 153.5q0 64 -7 129.5t-25 127t-48.5 115t-77.5 94t-112.5 63.5t-152.5 23
q198 -233 198 -593q0 -117 -32 -218t-89.5 -176t-138 -117.5t-177.5 -42.5q-96 0 -176.5 43t-138 118t-89.5 176t-32 217q0 81 15 166t41.5 164t63.5 147t82 115q-63 -4 -117 -30.5t-98.5 -69t-79.5 -97t-58.5 -114.5t-36 -122.5t-12.5 -119.5q0 -266 176 -444l-148 -148
q-245 242 -245 592q0 96 20 190t58.5 179.5t94.5 158.5t128 126.5t159.5 84t189.5 30.5q94 0 201 -43q102 43 291 43q115 0 203 -33.5t154 -94t111 -143.5t74.5 -182t45 -210.5t21.5 -228.5q4 -73 17.5 -122t36 -78.5t52.5 -42t67 -12.5q196 0 196 294v833h217v-833
q0 -59 16 -112.5t45 -94t68.5 -64t87.5 -23.5q59 0 105.5 38t79 105.5t49.5 161.5t17 205q0 67 -14.5 135t-41 130.5t-64.5 116.5t-85 94l115 177q306 -231 306 -708zM1193 533q0 65 -17.5 139t-47.5 145.5t-70.5 133.5t-86.5 103q-47 -37 -86 -94t-67.5 -126.5
t-44.5 -146.5t-16 -154q0 -75 15 -137.5t43.5 -107t68.5 -69.5t91 -25q47 0 87 27.5t69 74.5t45.5 108t16.5 129z" />
    <glyph glyph-name="ml_nya" unicode="&#xd1e;" horiz-adv-x="2854" 
d="M2733 553q0 -300 -233 -572l-167 132q41 44 74.5 98t57.5 113.5t37 120.5t13 118q0 63 -12.5 129t-37 128.5t-61 118t-84 97t-105.5 66t-135 24.5q200 -248 200 -577q0 -208 -88 -368q-111 -202 -315 -202q-211 0 -336 194q-105 163 -105 376q0 345 208 577
q-131 -17 -207.5 -64t-116 -122.5t-50.5 -180t-11 -236.5v-523h-219v648q0 112 -23 201t-67 150.5t-108 94t-147 32.5q-56 0 -104 -22t-87.5 -59.5t-70.5 -87.5t-52 -105t-32 -112t-11 -125q94 75 231 75q73 0 138.5 -29t115.5 -78t79.5 -113.5t29.5 -135.5q0 -70 -29 -134
t-78 -113t-114 -78.5t-136 -29.5q-79 0 -143 27t-114 73t-87 108t-61.5 132t-36 144t-11.5 145q0 82 17.5 168t51.5 167.5t84 153.5t113.5 126.5t140.5 86t166 31.5q69 0 135 -19t125 -55t109 -87t88 -115q35 65 86.5 116.5t114.5 87t135 54t148 18.5q114 0 222 -51
q118 51 241 51q100 0 186 -32.5t156.5 -89t125 -133t91.5 -164t56 -182t19 -187.5zM2062 539q0 321 -208 505q-200 -159 -200 -485q0 -75 15.5 -141.5t44 -116t67.5 -78.5t87 -29q45 0 81 25.5t61 71t38.5 109t13.5 139.5zM715 334q0 28 -12 53.5t-31.5 45t-46 31
t-54.5 11.5q-119 0 -164 -113q34 -168 164 -168q29 0 55 11.5t46 31t31.5 44.5t11.5 53z" />
    <glyph glyph-name="ml_tta" unicode="&#xd1f;" horiz-adv-x="1210" 
d="M1088 379q0 -89 -37 -162.5t-102.5 -126t-153.5 -82t-190 -29.5q-483 0 -483 423h210q0 -208 263 -208q55 0 106.5 14t90.5 38.5t62.5 58.5t23.5 74q0 48 -16 81.5t-54 54.5t-102 30.5t-160 9.5q-206 0 -315 101t-109 291q0 88 36.5 160.5t102 124.5t156 80.5t198.5 28.5
q109 0 197 -28.5t149 -83t94 -133t33 -178.5h-208q-10 208 -265 208q-62 0 -114 -12.5t-89.5 -36t-58.5 -56.5t-21 -74q0 -67 27.5 -103t73 -52.5t104 -19t119.5 -2.5q99 0 178.5 -27t136 -77.5t87 -123t30.5 -163.5z" />
    <glyph glyph-name="ml_ttha" unicode="&#xd20;" horiz-adv-x="1519" 
d="M1397 661q0 -93 -21 -179.5t-60 -162.5t-95 -138.5t-127 -107.5t-155.5 -69.5t-179.5 -24.5q-137 0 -254 52t-202 143.5t-133 216.5t-48 270q0 134 48 257t133.5 217t202 150t253.5 56q91 0 173.5 -25.5t153.5 -71.5t128.5 -109t98 -139t62.5 -161t22 -174zM1184 661
q0 95 -33.5 179.5t-91.5 148t-135 100.5t-165 37q-89 0 -166.5 -37t-134.5 -100.5t-90 -148t-33 -179.5q0 -96 33 -180.5t90 -148.5t134.5 -101t166.5 -37q94 0 172 35t134.5 97t87.5 147.5t31 187.5z" />
    <glyph glyph-name="ml_dda" unicode="&#xd21;" horiz-adv-x="2533" 
d="M2411 707q0 -168 -33 -302.5t-96 -229t-154.5 -145.5t-208.5 -51q-197 0 -326 159q-120 -159 -320 -159q-221 0 -338.5 120.5t-117.5 348.5q0 16 3 45t7 63.5t9 72t9 72t7 63.5t3 46q0 316 -199 316q-67 0 -125 -36.5t-101 -97.5t-67.5 -140.5t-24.5 -164.5
q0 -317 209 -532l-119 -190q-306 301 -306 722q0 75 15.5 153.5t45.5 151.5t73.5 137t101 112t127.5 75.5t152 27.5q106 0 187 -32.5t136 -95t83 -154.5t28 -211q0 -17 -3 -46.5t-7 -65t-9.5 -74.5t-9.5 -74.5t-7 -65t-3 -46.5q0 -80 13.5 -134t42.5 -88t74.5 -48.5
t110.5 -14.5q216 0 216 340v787h216v-787q0 -340 214 -340q64 0 115.5 37t86.5 104.5t54 161.5t19 207q0 290 -207 467l120 185q304 -253 304 -649z" />
    <glyph glyph-name="ml_ddha" unicode="&#xd22;" horiz-adv-x="2736" 
d="M2614 710q0 -168 -36 -303t-105.5 -230t-170.5 -146.5t-230 -51.5q-260 0 -435 195q-25 -44 -64.5 -79.5t-87.5 -61.5t-102 -40t-108 -14q-107 0 -191.5 32t-143.5 92.5t-90.5 147.5t-31.5 197q0 16 2.5 45t6 63.5t7.5 72.5t7.5 72.5t6 63.5t2.5 45q0 316 -193 316
q-67 0 -125 -36.5t-101 -97.5t-67.5 -140.5t-24.5 -164.5q0 -317 209 -532l-119 -190q-307 301 -307 722q0 76 15.5 154t45.5 151t74 137t101.5 112t127.5 75.5t152 27.5q103 0 183 -34t135 -98t83.5 -155.5t28.5 -205.5q0 -17 -2 -46.5t-5 -65t-7 -74.5t-7 -74.5t-5 -65
t-2 -46.5q0 -81 13 -135.5t41 -88t73 -47.5t108 -14q49 0 89.5 25t68.5 70t43.5 107.5t15.5 137.5v787h216v-787q0 -68 30.5 -129.5t81 -109t116.5 -75.5t138 -28q316 0 322 530q-101 -92 -230 -92q-72 0 -138 28.5t-116.5 77.5t-80 113t-29.5 136q0 71 29 135.5t78 113.5
t114 78t137 29q78 0 142 -27t114.5 -74t87.5 -109t61.5 -132.5t36.5 -144.5t12 -144zM2327 1008q-55 118 -162 118q-29 0 -55 -11.5t-45.5 -30.5t-31.5 -45t-12 -54t11.5 -53.5t31 -44.5t46 -30.5t55.5 -11.5q125 0 162 163z" />
    <glyph glyph-name="ml_nna" unicode="&#xd23;" horiz-adv-x="2748" 
d="M2627 704q0 -111 -16 -205t-52.5 -180.5t-95.5 -171t-144 -176.5l-112 181q201 202 201 543q0 42 -10 90.5t-28.5 96t-45.5 92t-61 78t-75 54t-88 20.5q-186 0 -186 -364v-763h-218v754q0 103 -11 174t-35 115.5t-61 64t-88 19.5q-243 0 -243 -438v-689h-218v689
q0 97 -24 177.5t-69 138.5t-109 90t-143 32q-58 0 -107 -23t-88 -62t-69 -90t-50 -107t-30 -113t-10 -118q94 77 228 77q74 0 140 -28.5t115.5 -77t78.5 -113.5t29 -137q0 -71 -29 -135t-78 -113t-114 -78t-136 -29q-79 0 -143 27t-114 73t-87 108t-61.5 132t-36 144
t-11.5 145q0 86 16.5 174t48.5 169.5t80.5 152.5t112 123.5t142.5 83t173 30.5q273 0 431 -233q120 233 375 233q177 0 301 -136q132 136 298 136q80 0 150.5 -26.5t129 -72t104.5 -107.5t78 -132.5t48.5 -147t16.5 -151.5zM714 334q0 28 -12 53.5t-32 45t-45.5 31
t-53.5 11.5q-26 0 -51 -8.5t-47 -24t-39 -36.5t-27 -45q38 -167 164 -167q28 0 54 11.5t45.5 31t31.5 44.5t12 53z" />
    <glyph glyph-name="ml_ta" unicode="&#xd24;" horiz-adv-x="1978" 
d="M1855 578q0 -333 -231 -609l-165 132q39 42 72 97t57 116.5t37.5 125.5t13.5 123q0 120 -30 223t-85.5 178.5t-133.5 118.5t-183 43q199 -229 199 -584q0 -63 -11 -129.5t-33 -129t-55 -118t-78.5 -97t-103 -65.5t-127.5 -24q-96 0 -174.5 43t-133.5 119t-85 179t-30 222
q0 349 219 591q-99 0 -183 -45.5t-144.5 -123t-95 -181t-34.5 -220.5q0 -59 14 -124.5t39 -128t58 -117.5t71 -92l-163 -130q-32 30 -61.5 72t-55.5 91t-47.5 103t-37 108.5t-24 107.5t-8.5 100q0 96 19.5 192t57 183.5t92.5 163t127 131t159.5 87t190.5 31.5q116 0 221 -50
q117 50 238 50q97 0 181.5 -31t154.5 -85.5t124.5 -128t91.5 -158t56.5 -176.5t19.5 -184zM1190 533q0 347 -202 512q-43 -36 -79 -92t-62 -122.5t-40.5 -138.5t-14.5 -140q0 -74 14.5 -139t41.5 -114t65 -77t85 -28q44 0 79.5 25.5t60.5 70.5t38.5 107t13.5 136z" />
    <glyph glyph-name="ml_tha" unicode="&#xd25;" horiz-adv-x="1767" 
d="M1646 0h-1524v1321h216v-1106h427v637q0 95 33.5 183.5t92 156.5t136.5 108.5t167 40.5q94 0 176.5 -38.5t144 -103.5t96.5 -152.5t35 -184.5v-862zM1430 215v657q0 49 -18.5 95t-50 81t-72.5 56.5t-86 21.5q-49 0 -89.5 -22.5t-69.5 -60.5t-45 -90t-16 -110v-628h447z
" />
    <glyph glyph-name="ml_da" unicode="&#xd26;" horiz-adv-x="1373" 
d="M1251 942q0 -192 -134 -299q124 -106 124 -283q0 -85 -31 -152t-88.5 -113.5t-138.5 -71t-180 -24.5h-231v215q45 -1 70.5 -2t50.5 -1.5t40 -0.5q297 0 297 150q0 47 -15.5 80.5t-50.5 54.5t-92.5 31t-141.5 10h-158v215h240q49 0 91 13t72 36.5t47 57t17 74.5
q0 42 -21 77.5t-56.5 61.5t-82 40.5t-96.5 14.5q-115 0 -203 -38t-148 -111.5t-90.5 -180.5t-30.5 -246q0 -45 9.5 -100t25 -108.5t36.5 -100t44 -75.5l-121 -206q-202 262 -202 590q0 177 46 322.5t132.5 250t210 161.5t278.5 57q104 0 192.5 -28.5t152.5 -80.5t100 -126
t36 -164z" />
    <glyph glyph-name="ml_dha" unicode="&#xd27;" horiz-adv-x="1865" 
d="M1743 629q0 -80 -15 -159t-44.5 -151t-73.5 -134t-102 -108t-130 -72t-157 -26q-176 0 -296 127q-118 -127 -280 -127q-84 0 -155 26.5t-129.5 73t-103 109t-74.5 134.5t-45.5 150.5t-15.5 156.5q0 76 6 141.5t19.5 124.5t36.5 114.5t56.5 111.5t79.5 116t105 127
l114 -181q-201 -204 -201 -544q0 -87 23.5 -167.5t64.5 -142t97 -98.5t122 -37q180 0 180 327v800h217v-800q0 -71 12.5 -130.5t35.5 -103.5t56 -68.5t75 -24.5q64 0 120 37t97.5 99t65 142.5t23.5 166.5q0 341 -200 544l111 179q82 -76 139.5 -155t94.5 -167.5t54 -189.5
t17 -221z" />
    <glyph glyph-name="ml_na" unicode="&#xd28;" horiz-adv-x="1863" 
d="M1742 705q0 -443 -304 -732l-112 180q200 198 200 542q0 91 -18.5 170t-52.5 137t-82 91t-107 33q-224 0 -224 -337v-789h-217v789q0 97 -10 161.5t-31.5 103.5t-55.5 55.5t-83 16.5q-47 0 -88 -20.5t-75 -54t-60.5 -78t-45 -92t-28 -96t-9.5 -90.5q0 -332 205 -540
l-118 -182q-304 310 -304 732q0 76 16 153t47 147.5t76 132t103.5 106.5t128.5 71t152 26q180 0 307 -133q126 133 296 133q117 0 209 -44.5t155.5 -127t96.5 -200.5t33 -264z" />
    <glyph glyph-name="ml_pa" unicode="&#xd2a;" horiz-adv-x="2367" 
d="M2245 0h-1525v196q121 16 121 141q0 40 -21 77t-55 65.5t-77.5 45.5t-88.5 17q-56 0 -103 -15.5t-82 -43.5t-54.5 -67t-19.5 -85q0 -110 101 -178l-108 -182q-211 103 -211 360q0 92 36.5 170t100.5 135t151.5 89t188.5 32q89 0 172 -33t147.5 -89t103 -130.5
t38.5 -158.5q0 -82 -22 -132h989v1106h218v-1320z" />
    <glyph glyph-name="ml_pha" unicode="&#xd2b;" horiz-adv-x="2381" 
d="M2259 0h-1539v196q121 16 121 141q0 40 -20.5 77.5t-54.5 65.5t-77.5 45t-89.5 17q-56 0 -103 -15.5t-82 -43.5t-54.5 -67t-19.5 -85q0 -110 101 -178l-108 -182q-211 103 -211 360q0 93 37 171.5t101.5 135t151.5 88t187 31.5q90 0 173 -33t147 -89t102.5 -130.5
t38.5 -157.5t-22 -133h336v638q0 96 33.5 184.5t91 156t135.5 108t168 40.5q96 0 179 -38t145 -103t97.5 -152t35.5 -186v-862zM2040 214v628q0 56 -16.5 107.5t-46 90.5t-70 62.5t-87.5 23.5q-46 0 -87.5 -21t-72.5 -56.5t-49.5 -81.5t-18.5 -96v-657h448z" />
    <glyph glyph-name="ml_ba" unicode="&#xd2c;" horiz-adv-x="2797" 
d="M2676 0h-1041v205q48 26 86.5 74t65 113.5t40.5 144.5t14 167q0 87 -24 164t-66.5 134t-101.5 90.5t-129 33.5q-56 0 -96.5 -19.5t-69.5 -53.5t-47.5 -80t-29 -99t-14.5 -111.5t-4 -116.5v-646h-217v648q0 108 -24 196.5t-68.5 151t-108.5 96.5t-145 34q-58 0 -107 -23
t-88.5 -61.5t-69 -89.5t-50 -107t-30.5 -113.5t-10 -120.5q91 79 230 79q72 0 137.5 -29t115.5 -78t79.5 -113.5t29.5 -135.5t-29 -135.5t-78.5 -113t-114.5 -77.5t-136 -29q-79 0 -143 27t-114 73t-87 108t-61.5 132t-36 144t-11.5 145q0 88 16 176.5t48 169.5t80 152
t112 123t143.5 82t174.5 30q260 0 421 -222q31 50 74 91t94.5 70t108.5 45t116 16q86 0 160.5 -24.5t135.5 -67.5t108 -103t79 -130.5t48.5 -150t16.5 -161.5q0 -321 -125 -490h523v1107h220v-1321zM714 334q0 27 -11.5 52.5t-31 45t-45.5 31.5t-54 12q-116 0 -165 -115
q34 -166 165 -166q29 0 55 11.5t45.5 30.5t30.5 44.5t11 53.5z" />
    <glyph glyph-name="ml_bha" unicode="&#xd2d;" horiz-adv-x="1599" 
d="M1477 327q0 -81 -38 -145.5t-105.5 -109.5t-160.5 -69t-202 -24q-299 0 -526 200l142 149q164 -137 379 -137q295 0 295 130q0 92 -186 92q-22 0 -65 -7t-90.5 -15.5t-91.5 -15.5t-66 -7q-65 0 -122.5 24t-100 65.5t-67.5 98t-25 122.5q0 62 28 118t74 98.5t106 67.5
t124 25q17 0 46 -3t64 -7.5t73 -10t73 -10t64 -7.5t46 -3q75 0 75 72q0 30 -15.5 50.5t-51 33t-93.5 18.5t-143 6q-150 0 -259.5 -38t-181 -117t-105.5 -201t-34 -291q0 -187 77 -457l-207 -48q-85 312 -85 505q0 210 50.5 371t149.5 270t246 165t340 56q527 0 527 -323
q0 -55 -23 -106.5t-61.5 -92t-88 -65t-102.5 -24.5q-17 0 -45 3.5t-61.5 8.5t-70.5 11t-70.5 11t-61.5 8.5t-44 3.5q-64 0 -105 -27.5t-41 -73.5q0 -23 8.5 -40t26 -29t37 -14.5t37.5 -2.5q21 0 61.5 6t85 13.5t85 13.5t60.5 6q99 0 176 -19.5t130 -58t81 -94.5t28 -129z
" />
    <glyph glyph-name="ml_ma" unicode="&#xd2e;" horiz-adv-x="1649" 
d="M1527 0h-1405v759q0 261 226 429q205 153 476 153q270 0 476 -153q227 -168 227 -429v-759zM1312 215v486q0 81 -24.5 149t-70.5 120.5t-112 88.5t-149 54q56 -109 56 -232q0 -146 -130 -289q-51 -56 -242 -215q-130 -107 -131 -162h803zM803 872q0 34 -8.5 68.5
t-23.5 66.5t-36 59t-45 45q-353 -74 -353 -410v-342q10 13 38 40.5t65 62t79 72t79.5 71.5t66.5 60.5t40 38.5q98 104 98 168z" />
    <glyph glyph-name="ml_ya" unicode="&#xd2f;" horiz-adv-x="2321" 
d="M2199 771q0 -99 -22 -196t-63 -185t-101 -163t-136 -130.5t-167 -86.5t-195 -31q-160 0 -311 84q-161 -84 -335 -84q-170 0 -308 62t-235.5 169.5t-150.5 252.5t-53 312q0 67 15.5 135t45 131t71.5 117.5t95 95t116 64t134 23.5q220 0 328 -156q115 156 279 156
q66 0 122 -23t101 -62.5t79 -92.5t57 -112.5t34.5 -123t11.5 -123.5q0 -352 -219 -595q55 -15 129 -15q71 0 132.5 25.5t112.5 69t91 102t67.5 123.5t42 134t14.5 134q0 69 -25 131t-68.5 110t-102 78t-125.5 34l71 208q103 -13 189.5 -62t148 -125t96 -174.5t34.5 -210.5z
M1393 821q0 58 -14.5 113t-39.5 97.5t-59 68.5t-74 26q-163 0 -163 -329q0 -275 168 -464q182 174 182 488zM1036 219q-48 64 -79.5 114t-51.5 94.5t-32 87t-21 90.5l-27 201q-25 166 -76 243t-137 77q-57 0 -107 -29t-86.5 -77.5t-57.5 -111.5t-21 -131q0 -126 39 -232.5
t108.5 -184.5t166 -122t212.5 -44q92 0 170 25z" />
    <glyph glyph-name="ml_ra" unicode="&#xd30;" horiz-adv-x="1729" 
d="M1607 531q0 -119 -34 -220t-94.5 -174.5t-145.5 -115.5t-187 -42q-107 0 -194.5 42t-150 116.5t-96.5 177t-34 224.5q0 94 25.5 179.5t73.5 157.5t117 127.5t156 89.5q-81 33 -163 33q-111 0 -210 -44t-172.5 -120.5t-116.5 -179t-43 -219.5q0 -236 149 -403l-116 -195
q-249 271 -249 617q0 103 26.5 199t75.5 180.5t117.5 154t151.5 120t178.5 78t199.5 27.5q107 0 203 -31t178 -86.5t147.5 -132t111.5 -166.5t71 -190.5t25 -203.5zM1391 539q0 231 -156 381q-78 -2 -142.5 -32t-110 -81t-71 -119.5t-25.5 -148.5q0 -68 19 -130t53 -110
t79.5 -76.5t98.5 -28.5q57 0 104 26.5t80.5 73t52 109.5t18.5 136z" />
    <glyph glyph-name="ml_rra" unicode="&#xd31;" horiz-adv-x="1707" 
d="M1586 634q0 -86 -26 -176.5t-73 -178t-112 -168t-144 -144.5l-136 167q61 68 111.5 123t86.5 110.5t55.5 119t19.5 147.5q0 103 -41 192.5t-111 156t-164 105t-200 38.5q-105 0 -198 -38.5t-163 -105t-111 -156t-41 -192.5q0 -84 20 -147.5t56 -120t86.5 -111.5
t111.5 -121l-137 -167q-80 64 -145 144.5t-111.5 168t-72 178t-25.5 176.5q0 102 26 194.5t73.5 171t114 141.5t147.5 107.5t174.5 68.5t194.5 24t194.5 -24t175 -68.5t149 -107.5t115 -141.5t74 -171t26.5 -194.5z" />
    <glyph glyph-name="ml_la" unicode="&#xd32;" horiz-adv-x="1955" 
d="M1833 0h-1711v810q0 105 45 201.5t120 169.5t172 116.5t202 43.5q71 0 138 -19.5t126 -55.5t108 -85t84.5 -108t55.5 -126t20 -137v-413h-856v-182h1281v1106h215v-1321zM977 606v194q0 64 -25.5 123t-68.5 104t-100.5 72t-121.5 27q-65 0 -123.5 -26.5t-103 -71.5
t-71 -104t-26.5 -124v-194h640z" />
    <glyph glyph-name="ml_lla" unicode="&#xd33;" horiz-adv-x="1640" 
d="M1519 -641h-1109q-56 0 -107.5 25t-91 66.5t-63.5 94t-24 108.5q0 62 23.5 115t64 91.5t94 60.5t113.5 22h434q123 0 209 14t140 42.5t78.5 73t24.5 106.5q0 56 -22 99.5t-64 73.5t-102.5 46t-136.5 16v218q325 0 325 217q0 62 -28 113t-78 87t-119 55.5t-150 19.5
q-116 0 -216 -34.5t-177.5 -98t-130 -153.5t-71.5 -200q88 75 220 75q73 0 137.5 -28.5t112.5 -77.5t76 -114.5t28 -139.5q0 -76 -29 -141.5t-79 -114t-116.5 -76t-142.5 -27.5q-69 0 -126.5 24.5t-104 66.5t-82 97.5t-59.5 118.5t-36 129t-12 128q0 113 28 215t79.5 189
t124 157.5t161 120t191.5 76t215 26.5q132 0 241.5 -34.5t189 -99t123.5 -155.5t44 -204q0 -43 -12.5 -92t-33.5 -95t-49.5 -85t-60.5 -62q156 -98 156 -326q0 -120 -37.5 -207t-119 -143.5t-209.5 -84t-309 -27.5h-415q-90 0 -90 -74q0 -14 6 -28t16 -24.5t23 -17t26 -6.5
h1109v-217zM694 352q0 28 -12 54t-31.5 45.5t-45 31t-52.5 11.5q-136 0 -165 -158q62 -125 165 -125q28 0 54 11t45 30.5t30.5 45t11.5 54.5z" />
    <glyph glyph-name="ml_llla" unicode="&#xd34;" horiz-adv-x="1722" 
d="M1600 947q0 -55 -17.5 -109.5t-49.5 -106t-76 -98t-96 -85t-110.5 -67t-120.5 -43.5q-17 -459 -491 -459q-63 0 -127.5 18t-125.5 50t-116 77.5t-98 101.5l170 155q123 -187 332 -187q213 0 237 205q-31 -1 -60 -1q-83 0 -169 16.5t-167 49t-152.5 80.5t-125 110.5
t-84.5 139t-31 166.5q0 227 215 403l136 -158q-135 -134 -135 -254q0 -55 25.5 -101t67.5 -83.5t96.5 -65.5t113 -47.5t115.5 -29t105 -9.5q24 0 44 1q-36 220 -36 325q0 79 28.5 151.5t77.5 127.5t115 88t141 33q84 0 152 -28.5t116 -80t74.5 -124.5t26.5 -161zM1380 951
q0 33 -11.5 64.5t-32 56t-47.5 39.5t-58 15q-30 0 -56.5 -15.5t-47 -41t-32 -59t-11.5 -69.5q0 -129 30 -286q54 18 102.5 50t84.5 72t57.5 85t21.5 89z" />
    <glyph glyph-name="ml_va" unicode="&#xd35;" horiz-adv-x="2530" 
d="M2408 0h-1191l-110 134q69 67 117.5 122t83.5 110.5t55 119t20 148.5q0 103 -41 192.5t-112 156t-166 105t-203 38.5q-107 0 -201.5 -39t-165.5 -105.5t-112 -156t-41 -191.5q0 -84 20.5 -148t57 -120.5t87.5 -111t113 -120.5l-138 -167q-81 64 -147.5 144.5t-113.5 168
t-72.5 178t-25.5 176.5q0 154 58.5 284t159 224t235 146.5t286.5 52.5q101 0 196 -23.5t177.5 -68t150.5 -107.5t116.5 -141.5t75.5 -171t27 -195.5q0 -209 -136 -420h722v1107h218v-1321z" />
    <glyph glyph-name="ml_sha" unicode="&#xd36;" horiz-adv-x="2018" 
d="M1895 569q0 -136 -26.5 -245.5t-78.5 -186t-127.5 -117.5t-173.5 -41q-90 0 -162 29t-122.5 83t-77.5 130.5t-27 170.5q0 97 30.5 196t85 189.5t130.5 167.5t167 131q-77 50 -191 50q-211 0 -264 -365q-23 -158 -35 -241.5t-14 -93.5q-25 -116 -63 -200.5t-91.5 -139.5
t-123 -81t-156.5 -26q-107 0 -191 44t-142 125t-89 194.5t-31 252.5q0 142 30 265t88 220t141.5 165t190.5 99l50 -204q-63 -17 -115 -69t-89.5 -126t-58 -164.5t-20.5 -185.5q0 -92 15.5 -166t45 -126.5t72.5 -80.5t98 -28q103 0 167.5 99.5t90.5 314.5q8 63 14 124t14 123
q81 486 468 486q571 0 571 -772zM1672 569q0 202 -37 323q-69 -41 -128.5 -98.5t-102.5 -124t-67.5 -138t-24.5 -139.5q0 -198 154 -198q53 0 91.5 20.5t64 65.5t38 116.5t12.5 172.5z" />
    <glyph glyph-name="ml_ssa" unicode="&#xd37;" horiz-adv-x="2378" 
d="M2257 0h-1537v196q121 16 121 141q0 40 -20.5 77.5t-54.5 65.5t-77.5 45t-89.5 17q-56 0 -103 -15.5t-82 -43.5t-54.5 -67t-19.5 -85q0 -110 101 -178l-108 -182q-211 103 -211 360q0 93 37 171t101 135t151 88.5t188 31.5q90 0 173 -33t147 -89t102.5 -130.5
t38.5 -157.5t-22 -133h447v362q-22 -2 -37 -2q-129 0 -231 28t-172.5 81.5t-108 131.5t-37.5 178q0 73 30 136.5t82 110.5t120.5 74t146.5 27q404 0 424 -513q76 25 138 61.5t106.5 81t69 95t24.5 104.5v151h217v-1321zM2040 214v552q-150 -119 -337 -162v-390h337z
M1485 800q0 326 -207 326q-35 0 -65 -10t-51.5 -27.5t-34 -42t-12.5 -53.5q0 -207 350 -207q10 0 20 1v13z" />
    <glyph glyph-name="ml_sa" unicode="&#xd38;" horiz-adv-x="2523" 
d="M2401 675q0 -258 -116 -455q-141 -241 -394 -241q-417 0 -417 449q0 17 1.5 48t3.5 68t5 78t5 78t3.5 68t1.5 48q0 68 -16.5 125t-46.5 98t-72.5 64t-94.5 23q-214 0 -214 -337v-789h-219v789q0 97 -10 161.5t-31.5 103.5t-56.5 55.5t-84 16.5q-47 0 -88.5 -20.5
t-75.5 -54t-61 -78t-45.5 -92t-28 -96t-9.5 -90.5q0 -331 206 -540l-119 -183q-84 85 -142.5 166.5t-94.5 168t-52.5 184t-16.5 214.5q0 76 16.5 153t48 148t77 132t104 106t129 71t152.5 26q183 0 310 -133q127 133 299 133q106 0 191 -34t144.5 -97t91.5 -152t32 -198
q0 -19 -1.5 -50.5t-4 -70t-5.5 -80.5t-5.5 -80.5t-4 -70.5t-1.5 -50q0 -71 11.5 -121t36.5 -82t62.5 -46.5t90.5 -14.5q63 0 116.5 37t92.5 100t60.5 145.5t21.5 173.5q0 318 -202 521l116 192q300 -296 300 -688z" />
    <glyph glyph-name="ml_ha" unicode="&#xd39;" horiz-adv-x="3064" 
d="M2930 634q0 -86 -26 -176.5t-73 -177.5t-113.5 -167t-148.5 -146l-138 167q83 83 137 147.5t85.5 121.5t44 111.5t12.5 119.5q0 103 -42.5 193t-114.5 156.5t-167.5 104.5t-201.5 38t-200.5 -38t-166 -104t-113 -156t-41.5 -194q0 -60 10.5 -112.5t34 -103.5t64 -104
t106.5 -115v-199h-1155v196q122 17 122 141q0 41 -21.5 78.5t-56 65.5t-78.5 44.5t-88 16.5q-55 0 -102.5 -16t-82.5 -44t-55 -66.5t-20 -84.5q0 -111 102 -178l-109 -182q-212 104 -212 360q0 93 37 171t101.5 135t152 88.5t188.5 31.5q85 0 168 -31t149 -86t106.5 -130.5
t40.5 -163.5q0 -82 -22 -132h534q-135 210 -135 420q0 104 26.5 197t75 171.5t116 141t150 106.5t177 67.5t197.5 23.5q102 0 196.5 -23.5t177.5 -68t151.5 -107.5t117.5 -141.5t76 -171t27 -195.5z" />
    <glyph glyph-name="uni0D3D" unicode="&#xd3d;" horiz-adv-x="1255" 
d="M1298 1795q0 -52 -11.5 -88.5t-31 -59t-46 -33t-56.5 -10.5q-22 0 -42.5 11.5t-36.5 32.5t-25.5 50.5t-9.5 64.5q0 20 2.5 38t7.5 35q-39 -26 -66 -79t-45.5 -117.5t-30.5 -132.5t-21 -125l-233 -1451q-17 -108 -54.5 -211.5t-95.5 -185t-138 -131t-183 -49.5
q-105 0 -156 52t-51 140q0 52 11.5 88.5t31 59t46 33t56.5 10.5q22 0 42.5 -11.5t36.5 -32.5t25.5 -50.5t9.5 -64.5q0 -20 -2.5 -38t-7.5 -35q39 26 66 79t45.5 117.5t30.5 132.5t21 125l233 1451q17 108 54.5 211.5t95.5 185t138 131t183 49.5q105 0 156 -52t51 -140z" />
    <glyph glyph-name="ml_aakaar" unicode="&#xd3e;" horiz-adv-x="1231" 
d="M1110 668q0 -88 -18.5 -173t-54 -161.5t-87.5 -141.5t-118 -112.5t-145.5 -74t-171.5 -26.5q-239 0 -429 225l154 127q154 -137 285 -137q81 0 149 37t117.5 101.5t77.5 150.5t28 185q0 86 -29.5 168t-79.5 146.5t-116 104t-138 39.5q-159 0 -289 -141l-162 133
q184 223 432 223q90 0 169.5 -25.5t145.5 -71.5t118 -109t88 -138t55 -158.5t19 -170.5z" />
    <glyph glyph-name="ml_ikaar" unicode="&#xd3f;" horiz-adv-x="855" 
d="M734 0h-213v1489q0 61 -23.5 117.5t-63.5 99.5t-93 68.5t-112 25.5q-60 0 -113.5 -22t-94.5 -60t-67 -90t-32 -113q-2 -13 -2 -38v-73h-212v59q0 120 38.5 220.5t107 174t163 114.5t206.5 41q108 0 201.5 -42.5t162.5 -115.5t108 -170.5t39 -207.5v-1477z" />
    <glyph glyph-name="ml_iikaar" unicode="&#xd40;" horiz-adv-x="664" 
d="M541 0h-212v1346q0 96 -23.5 178t-66.5 142t-104 95t-136 39q39 -65 39 -147q0 -56 -18.5 -103.5t-52 -82t-80 -54t-101.5 -19.5q-54 0 -100.5 18t-81 51t-54.5 79t-20 102q0 80 37 147.5t99.5 117t145 77t174.5 27.5q254 0 412 -213q143 -193 143 -455v-1345zM-143 1654
q0 62 -67 105q-15 -5 -29 -16.5t-25.5 -26t-18 -31t-6.5 -31.5t6 -28t16.5 -23t23.5 -16t28 -6q30 0 51 21.5t21 51.5z" />
    <glyph glyph-name="ml_ukaar" unicode="&#xd41;" horiz-adv-x="811" 
d="M689 794q0 -68 -13.5 -126t-41.5 -117t-69.5 -125t-98.5 -149q-96 -131 -108 -226q48 -24 87 -59t66.5 -78t43 -91.5t15.5 -99.5q0 -71 -28.5 -136.5t-76 -116t-109.5 -81t-130 -30.5q-74 0 -137.5 29t-110.5 78t-74 114.5t-27 138.5q0 63 17.5 118.5t50.5 101.5
t79.5 79.5t104.5 52.5q7 52 33 111.5t73 124.5q36 51 79 106.5t80 114.5t62 121t25 125q0 65 -17.5 123t-50 105.5t-79.5 82.5t-105 53l64 207q396 -108 396 -551zM362 -280q0 27 -11.5 53t-31 46t-44 32t-51.5 12t-52 -12t-44 -32t-30.5 -46t-11.5 -53t11 -53t30 -46
t44 -32t53 -12q27 0 52 12t44 32.5t30.5 46t11.5 52.5z" />
    <glyph glyph-name="ml_uukaar" unicode="&#xd42;" horiz-adv-x="1098" 
d="M977 -378q0 -70 -20.5 -134t-57 -118.5t-88 -99.5t-113 -76.5t-131.5 -48.5t-144 -17q-111 0 -210 38t-173.5 105t-118 157t-43.5 194q0 73 32 142.5t87.5 127t131.5 100t163 62.5q27 109 200 364q154 226 154 355q0 65 -17.5 122.5t-50.5 104.5t-80.5 82.5t-107.5 56.5
l64 206q98 -26 173 -76t126 -121t77.5 -160.5t26.5 -195.5q0 -62 -12 -120.5t-36.5 -118.5t-61.5 -123.5t-87 -135.5q-93 -134 -131 -232q94 -15 175.5 -55.5t142 -99t95.5 -131.5t35 -154zM576 -259q0 30 -11.5 55.5t-31.5 44t-47.5 29t-59.5 10.5q-26 0 -49.5 -11.5
t-41 -30.5t-28 -44.5t-10.5 -52.5q0 -29 11 -55t30 -45.5t44 -31.5t54 -12q27 0 52.5 12t45 32.5t31 46.5t11.5 53zM793 -391q0 54 -35 106q-5 -63 -32.5 -118.5t-70.5 -97t-99.5 -65t-119.5 -23.5q-69 0 -128 25.5t-102.5 70t-68 104.5t-24.5 142q-51 -59 -51 -131
q0 -60 32 -115.5t83.5 -98t117.5 -68t134 -25.5q64 0 129 24.5t117 65.5t85 94t33 110z" />
    <glyph glyph-name="ml_rikaar" unicode="&#xd43;" horiz-adv-x="1205" 
d="M1084 -141q0 -162 -48 -296t-136 -231t-211.5 -150.5t-273.5 -53.5q-114 0 -212 27t-170 76t-113.5 118.5t-41.5 155.5q0 82 41.5 150.5t113.5 117.5t168 76t204 27q94 0 208.5 -15.5t254.5 -46.5q2 30 2 58q0 208 -112 466l-207 444q-111 265 -111 487l203 90
q0 -238 114 -520l213 -474q114 -278 114 -506zM824 -398q-204 57 -416 57q-73 0 -131.5 -10t-99.5 -29.5t-63 -47t-22 -62.5q0 -38 24 -68t67 -51t102.5 -32.5t129.5 -11.5q302 0 409 255z" />
    <glyph glyph-name="uni0D44" unicode="&#xd44;" horiz-adv-x="1205" 
d="M1084 -141q0 -162 -48 -296t-136 -231t-211.5 -150.5t-273.5 -53.5q-114 0 -212 27t-170 76t-113.5 118.5t-41.5 155.5q0 82 41.5 150.5t113.5 117.5t168 76t204 27q94 0 208.5 -15.5t254.5 -46.5q2 30 2 58q0 208 -112 466l-207 444q-111 265 -111 487l203 90
q0 -238 114 -520l213 -474q114 -278 114 -506zM824 -398q-204 57 -416 57q-73 0 -131.5 -10t-99.5 -29.5t-63 -47t-22 -62.5q0 -38 24 -68t67 -51t102.5 -32.5t129.5 -11.5q302 0 409 255zM634 -499q0 -25 -4 -43t-10 -31.5t-13 -23.5t-14 -18l-49 32q15 20 20.5 43t5.5 40
q0 12 -1.5 25.5t-7 25t-16.5 19.5t-31 8q-29 0 -44.5 -17.5t-15.5 -60.5v-109h-55v109q0 44 -10 61t-39 17q-38 0 -52 -21.5t-14 -56.5q0 -17 4 -40t21 -43l-49 -32q-7 8 -14 17.5t-13 23t-10 31.5t-4 44q0 28 8 52t24 42t41 28.5t58 10.5q22 0 44 -8t38 -23q31 31 78 31
q33 0 56.5 -10.5t38.5 -29t22 -42.5t7 -51z" />
    <glyph glyph-name="ml_ekaar" unicode="&#xd46;" horiz-adv-x="1423" 
d="M1301 634q0 -406 -240 -668l-135 169q160 172 160 499q0 105 -26.5 195t-75.5 155.5t-117 103t-152 37.5q-85 0 -155 -38t-120.5 -105.5t-78 -159t-27.5 -213.5q97 81 225 81q72 0 136 -29t113 -78t77.5 -113.5t28.5 -135.5q0 -70 -28 -134t-76 -113t-111.5 -78.5
t-133.5 -29.5q-78 0 -141 27t-112.5 73.5t-85 109t-59 132t-34.5 143.5t-11 144q0 158 41.5 292.5t119 232t187 152.5t245.5 55q94 0 174.5 -27.5t145.5 -76.5t114.5 -115.5t83.5 -145t51 -165.5t17 -176zM700 334q0 27 -11.5 52.5t-30.5 45t-44.5 31.5t-52.5 12
q-97 0 -162 -116q34 -165 162 -165q28 0 53.5 11.5t44.5 30.5t30 44.5t11 53.5z" />
    <glyph glyph-name="ml_eekaar" unicode="&#xd47;" horiz-adv-x="1257" 
d="M1135 312q0 -75 -32.5 -136.5t-89 -105t-132 -67.5t-161.5 -24q-90 0 -169.5 27.5t-145.5 75.5t-119 113.5t-89 142t-55.5 161t-19.5 169.5q0 81 19 163t55 156.5t87.5 139t116 112.5t140.5 75t162 27q91 0 170 -24.5t137.5 -69.5t92 -107.5t33.5 -137.5q0 -56 -23 -108
t-61.5 -91.5t-89.5 -63.5t-108 -24q-62 0 -114.5 23t-91.5 62.5t-61 93t-22 115.5q0 46 17 91q-52 -24 -97 -69t-78 -103.5t-52 -125.5t-19 -134q0 -69 18.5 -139t51.5 -131t77.5 -108t96.5 -70q-16 41 -16 95q0 62 22.5 115.5t61.5 92.5t92 61t115 22q60 0 111.5 -23.5
t89 -63.5t59 -93.5t21.5 -113.5zM922 1004q0 13 -7.5 28t-19 27.5t-25.5 22t-27 11.5q-67 -34 -67 -89q0 -30 22 -52t52 -22q14 0 27 6t23 16.5t16 23.5t6 28zM922 316q0 15 -6 28t-16 23.5t-23 16.5t-27 6q-30 0 -52 -22t-22 -52q0 -59 61 -90q85 24 85 90z" />
    <glyph glyph-name="ml_aikaar" unicode="&#xd48;" horiz-adv-x="2731" 
d="M1301 634q0 -406 -240 -668l-135 169q160 172 160 499q0 105 -26.5 195t-75.5 155.5t-117 103t-152 37.5q-85 0 -155 -38t-120.5 -105.5t-78 -159t-27.5 -213.5q97 81 225 81q72 0 136 -29t113 -78t77.5 -113.5t28.5 -135.5q0 -70 -28 -134t-76 -113t-111.5 -78.5
t-133.5 -29.5q-78 0 -141 27t-112.5 73.5t-85 109t-59 132t-34.5 143.5t-11 144q0 158 41.5 292.5t119 232t187 152.5t245.5 55q94 0 174.5 -27.5t145.5 -76.5t114.5 -115.5t83.5 -145t51 -165.5t17 -176zM700 334q0 27 -11.5 52.5t-30.5 45t-44.5 31.5t-52.5 12
q-97 0 -162 -116q34 -165 162 -165q28 0 53.5 11.5t44.5 30.5t30 44.5t11 53.5zM2609 634q0 -406 -240 -668l-135 169q160 172 160 499q0 105 -26.5 195t-75.5 155.5t-117 103t-152 37.5q-85 0 -155 -38t-120.5 -105.5t-78 -159t-27.5 -213.5q97 81 225 81q72 0 136 -29
t113 -78t77.5 -113.5t28.5 -135.5q0 -70 -28 -134t-76 -113t-111.5 -78.5t-133.5 -29.5q-78 0 -141 27t-112.5 73.5t-85 109t-59 132t-34.5 143.5t-11 144q0 158 41.5 292.5t119 232t187 152.5t245.5 55q94 0 174.5 -27.5t145.5 -76.5t114.5 -115.5t83.5 -145t51 -165.5
t17 -176zM2008 334q0 27 -11.5 52.5t-30.5 45t-44.5 31.5t-52.5 12q-97 0 -162 -116q34 -165 162 -165q28 0 53.5 11.5t44.5 30.5t30 44.5t11 53.5z" />
    <glyph glyph-name="ml_okaar" unicode="&#xd4a;" horiz-adv-x="3681" 
d="M1301 634q0 -406 -240 -668l-135 169q160 172 160 499q0 105 -26.5 195t-75.5 155.5t-117 103t-152 37.5q-85 0 -155 -38t-120.5 -105.5t-78 -159t-27.5 -213.5q97 81 225 81q72 0 136 -29t113 -78t77.5 -113.5t28.5 -135.5q0 -70 -28 -134t-76 -113t-111.5 -78.5
t-133.5 -29.5q-78 0 -141 27t-112.5 73.5t-85 109t-59 132t-34.5 143.5t-11 144q0 158 41.5 292.5t119 232t187 152.5t245.5 55q94 0 174.5 -27.5t145.5 -76.5t114.5 -115.5t83.5 -145t51 -165.5t17 -176zM700 334q0 27 -11.5 52.5t-30.5 45t-44.5 31.5t-52.5 12
q-97 0 -162 -116q34 -165 162 -165q28 0 53.5 11.5t44.5 30.5t30 44.5t11 53.5zM3560 668q0 -88 -18.5 -173t-54 -161.5t-87.5 -141.5t-118 -112.5t-145.5 -74t-171.5 -26.5q-239 0 -429 225l154 127q154 -137 285 -137q81 0 149 37t117.5 101.5t77.5 150.5t28 185
q0 86 -29.5 168t-79.5 146.5t-116 104t-138 39.5q-159 0 -289 -141l-162 133q184 223 432 223q90 0 169.5 -25.5t145.5 -71.5t118 -109t88 -138t55 -158.5t19 -170.5z" />
    <glyph glyph-name="ml_ookaar" unicode="&#xd4b;" horiz-adv-x="3681" 
d="M1135 312q0 -75 -32.5 -136.5t-89 -105t-132 -67.5t-161.5 -24q-90 0 -169.5 27.5t-145.5 75.5t-119 113.5t-89 142t-55.5 161t-19.5 169.5q0 81 19 163t55 156.5t87.5 139t116 112.5t140.5 75t162 27q91 0 170 -24.5t137.5 -69.5t92 -107.5t33.5 -137.5q0 -56 -23 -108
t-61.5 -91.5t-89.5 -63.5t-108 -24q-62 0 -114.5 23t-91.5 62.5t-61 93t-22 115.5q0 46 17 91q-52 -24 -97 -69t-78 -103.5t-52 -125.5t-19 -134q0 -69 18.5 -139t51.5 -131t77.5 -108t96.5 -70q-16 41 -16 95q0 62 22.5 115.5t61.5 92.5t92 61t115 22q60 0 111.5 -23.5
t89 -63.5t59 -93.5t21.5 -113.5zM922 1004q0 13 -7.5 28t-19 27.5t-25.5 22t-27 11.5q-67 -34 -67 -89q0 -30 22 -52t52 -22q14 0 27 6t23 16.5t16 23.5t6 28zM922 316q0 15 -6 28t-16 23.5t-23 16.5t-27 6q-30 0 -52 -22t-22 -52q0 -59 61 -90q85 24 85 90zM3560 668
q0 -88 -18.5 -173t-54 -161.5t-87.5 -141.5t-118 -112.5t-145.5 -74t-171.5 -26.5q-239 0 -429 225l154 127q154 -137 285 -137q81 0 149 37t117.5 101.5t77.5 150.5t28 185q0 86 -29.5 168t-79.5 146.5t-116 104t-138 39.5q-159 0 -289 -141l-162 133q184 223 432 223
q90 0 169.5 -25.5t145.5 -71.5t118 -109t88 -138t55 -158.5t19 -170.5z" />
    <glyph glyph-name="ml_aukaar" unicode="&#xd4c;" horiz-adv-x="4181" 
d="M1301 634q0 -406 -240 -668l-135 169q160 172 160 499q0 105 -26.5 195t-75.5 155.5t-117 103t-152 37.5q-85 0 -155 -38t-120.5 -105.5t-78 -159t-27.5 -213.5q97 81 225 81q72 0 136 -29t113 -78t77.5 -113.5t28.5 -135.5q0 -70 -28 -134t-76 -113t-111.5 -78.5
t-133.5 -29.5q-78 0 -141 27t-112.5 73.5t-85 109t-59 132t-34.5 143.5t-11 144q0 158 41.5 292.5t119 232t187 152.5t245.5 55q94 0 174.5 -27.5t145.5 -76.5t114.5 -115.5t83.5 -145t51 -165.5t17 -176zM700 334q0 27 -11.5 52.5t-30.5 45t-44.5 31.5t-52.5 12
q-97 0 -162 -116q34 -165 162 -165q28 0 53.5 11.5t44.5 30.5t30 44.5t11 53.5zM4059 672q0 -161 -33.5 -289t-97.5 -218t-157.5 -138t-214.5 -48q-105 0 -186 32.5t-136.5 94t-84 151.5t-28.5 204h214q0 -267 221 -267q297 0 297 455q0 130 -12 221t-37 148t-64 82.5
t-92 25.5q-178 0 -178 -257v-152h-215q0 220 -14 278q-33 131 -156 131q-36 0 -69.5 -13.5t-59 -37t-41 -53.5t-15.5 -63q0 -76 74 -147l-168 -145q-119 130 -119 300q0 74 32.5 142t87 119.5t125 82t146.5 30.5q171 0 285 -130q102 130 267 130q109 0 190 -39.5t134 -121
t79 -208t26 -300.5z" />
    <glyph glyph-name="ml_chandrakkala" unicode="&#xd4d;" horiz-adv-x="204" 
d="M150 1786q0 -74 -33.5 -139t-90.5 -113.5t-131 -76.5t-155 -28q-87 0 -164 27t-135 74.5t-91.5 112.5t-33.5 140q0 120 98 227l162 -124q-51 -65 -51 -99q0 -33 17 -61.5t45.5 -49.5t66 -32.5t79.5 -11.5q39 0 76 11.5t66 32t47 47.5t18 57q0 45 -53 101l165 132
q98 -130 98 -227z" />
    <glyph glyph-name="ml_aumark" unicode="&#xd57;" horiz-adv-x="1616" 
d="M1494 672q0 -161 -33.5 -289t-97.5 -218t-157.5 -138t-214.5 -48q-105 0 -186 32.5t-136.5 94t-84 151.5t-28.5 204h214q0 -267 221 -267q297 0 297 455q0 130 -12 221t-37 148t-64 82.5t-92 25.5q-178 0 -178 -257v-152h-215q0 220 -14 278q-33 131 -156 131
q-36 0 -69.5 -13.5t-59 -37t-41 -53.5t-15.5 -63q0 -76 74 -147l-168 -145q-119 130 -119 300q0 74 32.5 142t87 119.5t125 82t146.5 30.5q171 0 285 -130q102 130 267 130q109 0 190 -39.5t134 -121t79 -208t26 -300.5z" />
    <glyph glyph-name="ml_rri" unicode="&#xd60;" horiz-adv-x="2208" 
d="M2086 755q0 -436 -461 -651q327 -155 327 -389q0 -474 -842 -474q-204 0 -362.5 31t-267.5 91t-166 148t-57 203q0 57 23.5 112t66 105t102 93t131.5 75q-458 212 -458 646q0 70 17.5 141t50 137.5t78.5 124.5t103 100.5t123.5 67.5t140.5 25q75 0 139.5 -28.5t111.5 -78
t73.5 -115.5t26.5 -141q0 -71 -29.5 -135.5t-79 -113.5t-114 -78.5t-135.5 -29.5q-175 0 -287 145q3 -102 39 -183t95 -144t136.5 -108t163.5 -74.5t175.5 -43t173.5 -13.5q80 0 166 16.5t169 48t157 79t130 109t89 137t33 164.5q-109 -133 -273 -133q-75 0 -141 29
t-115.5 78.5t-78 115.5t-28.5 141q0 70 28 134.5t76 114t111.5 78.5t134.5 29q72 0 137.5 -24.5t121.5 -66.5t101 -99t77 -122t49.5 -135.5t17.5 -138.5zM1795 1067q-99 101 -192 101q-34 0 -65 -14t-54 -37t-37 -54.5t-14 -65.5q0 -35 13.5 -65.5t37 -54t54 -37t65.5 -13.5
q41 0 76 19.5t61 52.5t40.5 76.5t14.5 91.5zM769 981q0 28 -12 53.5t-31.5 45t-45 31.5t-53.5 12q-80 0 -164 -88q2 -40 15.5 -75.5t35.5 -62.5t51 -42.5t62 -15.5q28 0 54 11.5t45.5 31t31 45t11.5 54.5zM1735 -286q0 63 -44.5 112.5t-127 84t-199 53t-260.5 18.5
q-142 0 -258.5 -18.5t-199 -53t-128 -84.5t-45.5 -112q0 -257 631 -257t631 257zM1552 -286q0 -35 -15.5 -67.5t-40.5 -58t-57 -41t-66 -15.5q-36 0 -68.5 15t-58 40.5t-40.5 58t-15 68.5q0 35 15 67.5t40.5 57t58 39.5t68.5 15q34 0 66.5 -15t57.5 -40t40 -57.5t15 -66.5z
M1432 -283q0 59 -60 59q-61 0 -61 -59q0 -61 61 -61q60 0 60 61zM1021 -286q0 -35 -15 -67.5t-40 -58t-57.5 -41t-66.5 -15.5q-35 0 -67.5 15.5t-58 41t-40.5 58t-15 67.5t15 67.5t40.5 57t58 39.5t67.5 15t67.5 -15t57 -40t39.5 -57.5t15 -66.5zM902 -286q0 59 -60 59
q-62 0 -62 -59q0 -61 62 -61q60 0 60 61z" />
    <glyph glyph-name="ml_lli" unicode="&#xd61;" horiz-adv-x="2610" 
d="M2488 262q0 -162 -50.5 -295.5t-143.5 -229t-223.5 -147.5t-290.5 -52q-253 0 -471 179l133 163q167 -125 347 -125q108 0 198 38t154 107t99.5 164.5t35.5 210.5q0 132 -62 251q-11 -126 -47.5 -229t-95 -176.5t-137 -113.5t-174.5 -40q-100 0 -180 34t-136 97
t-86 151.5t-30 196.5q0 111 41 206.5t114 167.5t172.5 116.5t215.5 52.5q-96 135 -241 135q-75 0 -143 -36.5t-119.5 -96.5t-81.5 -137.5t-30 -159.5v-694h-217v695q0 96 -24 175t-69 135.5t-109 87.5t-143 31q-53 0 -100 -21.5t-86.5 -57.5t-71.5 -84.5t-54 -101.5
t-33.5 -108.5t-11.5 -106.5q0 -18 2 -42q100 82 230 82q72 0 137.5 -29t115.5 -78t79.5 -114.5t29.5 -137.5q0 -71 -29 -135.5t-78.5 -114t-114 -79t-135.5 -29.5q-79 0 -143.5 27t-114.5 74t-86.5 109.5t-60.5 133t-35.5 145.5t-11.5 146q0 87 16 176t48 171t79.5 153.5
t111 124.5t143 83.5t174.5 30.5q287 0 454 -272q40 60 95.5 110t118 86t129 56t129.5 20q92 0 175 -30.5t152.5 -88t124.5 -140t90 -185.5q326 -258 326 -635zM1990 569q0 99 -23 183q-46 11 -84 11q-66 0 -128 -26t-109.5 -70t-76.5 -101.5t-29 -119.5q0 -59 13.5 -107.5
t39 -83t62 -53t82.5 -18.5q57 0 103.5 30t79.5 81.5t51.5 122t18.5 151.5zM713 325q0 28 -12 53.5t-31.5 45t-45 31.5t-53.5 12q-100 0 -166 -117q34 -166 166 -166q28 0 54 11.5t45.5 31t31 45t11.5 53.5z" />
    <glyph glyph-name="uni0D62" unicode="&#xd62;" horiz-adv-x="0" 
d="M-913 -698v368q0 80 -36 121t-119 41q30 -53 45.5 -116t15.5 -113q0 -60 -14.5 -116.5t-44.5 -100.5t-75.5 -71t-107.5 -27q-71 0 -119.5 30t-79.5 76t-44.5 102t-13.5 109q0 98 37 173t94.5 125.5t127 76.5t134.5 26q97 0 170.5 -24.5t128.5 -71.5q26 26 61 44.5t75 30
t81.5 16.5t81.5 5q65 0 134.5 -26t127 -76.5t94.5 -125.5t37 -173q0 -53 -13.5 -109t-44.5 -102t-80 -76t-119 -30q-62 0 -107.5 27t-75.5 71t-44.5 100.5t-14.5 116.5q0 50 15.5 113t45.5 116q-83 0 -119 -41t-36 -121v-368h-198zM-1205 -389q0 18 -2 42t-6 48.5t-10 47.5
t-13 39q-31 -31 -51.5 -76.5t-20.5 -102.5q0 -37 4.5 -61.5t12 -38.5t17.5 -20t22 -6q21 0 34 37t13 91zM-423 -389q0 -54 13 -91t34 -37q12 0 22 6t17.5 20t12 38.5t4.5 61.5q0 57 -20.5 102.5t-51.5 76.5q-8 -16 -13.5 -39t-9.5 -47.5t-6 -48.5t-2 -42z" />
    <glyph glyph-name="uni0D63" unicode="&#xd63;" horiz-adv-x="0" 
d="M-1180 -698v368q0 80 -36 121t-119 41q30 -53 45.5 -116t15.5 -113q0 -60 -14.5 -116.5t-44.5 -100.5t-75.5 -71t-107.5 -27q-71 0 -119.5 30t-79.5 76t-44.5 102t-13.5 109q0 98 37 173t94.5 125.5t127 76.5t134.5 26q97 0 170.5 -24.5t128.5 -71.5q26 26 61 44.5t75 30
t81.5 16.5t81.5 5q30 0 61.5 -5.5t63.5 -16.5q24 7 47 11.5t42 7t32 3t16 0.5q78 0 149.5 -29.5t127 -86.5t88.5 -140.5t33 -191.5q0 -129 -40 -220t-102 -149t-137.5 -85t-146.5 -27q-33 0 -69.5 2.5t-76.5 12.5t-82.5 29t-85.5 51l72 102q16 -8 43 -15t58.5 -11.5t65 -7
t62.5 -2.5q67 0 114.5 27.5t77 72.5t43 102.5t13.5 117.5q0 42 -9.5 87.5t-28 86t-47 71.5t-67.5 42q35 -48 55.5 -107.5t20.5 -132.5q0 -53 -13.5 -109t-44.5 -102t-80 -76t-119 -30q-62 0 -107.5 27t-75.5 71t-44.5 100.5t-14.5 116.5q0 50 15.5 113t45.5 116
q-83 0 -119 -41t-36 -121v-368h-198zM-1472 -389q0 18 -2 42t-6 48.5t-10 47.5t-13 39q-31 -31 -51.5 -76.5t-20.5 -102.5q0 -37 4.5 -61.5t12 -38.5t17.5 -20t22 -6q21 0 34 37t13 91zM-690 -389q0 -54 13 -91t34 -37q12 0 22 6t17.5 20t12 38.5t4.5 61.5q0 57 -20.5 102.5
t-51.5 76.5q-8 -16 -13.5 -39t-9.5 -47.5t-6 -48.5t-2 -42z" />
    <glyph glyph-name="uni0D66" unicode="&#xd66;" horiz-adv-x="1201" 
d="M1080 456q0 -96 -39 -182.5t-105 -152t-152.5 -104t-182.5 -38.5q-97 0 -184 38.5t-152.5 103.5t-104 152t-38.5 183q0 97 38 184.5t103.5 153.5t152.5 105t185 39q96 0 183 -39t153 -105t104.5 -153.5t38.5 -184.5zM833 456q0 46 -19 88.5t-51 74.5t-74 51.5t-88 19.5
q-47 0 -89.5 -19t-75 -51t-51.5 -74.5t-19 -89.5q0 -46 19 -88t51 -73.5t75 -50t90 -18.5q46 0 88 19t74 51t51 73.5t19 86.5z" />
    <glyph glyph-name="ml_one" unicode="&#xd67;" horiz-adv-x="2003" 
d="M1882 0h-1517q-42 0 -42 -42q0 -44 42 -44h592v-215h-586q-51 0 -96.5 21t-79.5 56.5t-53.5 82.5t-19.5 99q0 54 17 101.5t48 82t75 54.5t98 20h643v635q0 96 33 184.5t91 156.5t135 108.5t166 40.5q96 0 179 -38t144 -103.5t96 -153t35 -185.5v-861zM1663 216v654
q0 51 -18 97t-49 81t-71.5 56t-86.5 21q-47 0 -87.5 -23t-69.5 -62t-45.5 -90.5t-16.5 -108.5v-625h444z" />
    <glyph glyph-name="ml_two" unicode="&#xd68;" horiz-adv-x="2696" 
d="M2574 0h-1408v191q219 235 219 443q0 102 -41 191.5t-112 156.5t-166.5 105.5t-203.5 38.5q-107 0 -201.5 -38.5t-165 -105t-112 -156.5t-41.5 -192q0 -84 20.5 -147.5t57 -120t87.5 -111.5t112 -121l-138 -167q-81 65 -147 145t-113.5 167t-73 178t-25.5 177
q0 103 26.5 195.5t75 171t116 141.5t150 107t177 68t195.5 24t196 -23.5t177.5 -68t150.5 -107.5t117 -141.5t76 -171t27 -195.5q0 -209 -136 -420h1104v-214z" />
    <glyph glyph-name="ml_three" unicode="&#xd69;" horiz-adv-x="2411" 
d="M2289 0h-753v695q0 99 -17.5 178.5t-51 136t-82.5 86.5t-111 30q-225 0 -225 -337v-789h-218v789q0 97 -10 161.5t-32 103.5t-56.5 55.5t-83.5 16.5q-48 0 -89 -20t-75.5 -54t-61 -78t-45 -92t-28 -96.5t-9.5 -90.5q0 -331 206 -540l-119 -182q-84 85 -142.5 166.5
t-94.5 168t-52.5 183.5t-16.5 214q0 77 16.5 154t47.5 147.5t76.5 131.5t104.5 106t129.5 71t152.5 26q181 0 309 -134q131 134 316 134q114 0 203 -44.5t150.5 -126.5t94 -199t32.5 -262v-494h535v-215z" />
    <glyph glyph-name="ml_four" unicode="&#xd6a;" horiz-adv-x="1726" 
d="M1604 567q0 -122 -34.5 -229.5t-97 -187t-149 -125.5t-189.5 -46q-87 0 -155.5 24.5t-116.5 70t-73.5 110.5t-25.5 146q0 53 16.5 118t42.5 134.5t58 141.5t63.5 139.5t58.5 127.5t43 106q-73 38 -158 38q-117 0 -217.5 -44.5t-174 -121t-115.5 -180.5t-42 -222
q0 -251 146 -403l-110 -192q-252 249 -252 615q0 105 26.5 203t75 183t117.5 155t153 119.5t181 77t203 27.5q113 0 245 -53q8 43 8 71q0 158 -248 158q-59 0 -123 -3v218h170q87 0 163.5 -26.5t132.5 -73.5t88.5 -112t32.5 -142q0 -91 -37 -208q67 -51 121.5 -120
t92.5 -149.5t59 -168t21 -176.5zM1388 558q0 283 -161 412q-20 -55 -45.5 -113t-53 -116t-54 -115.5t-47 -110.5t-33.5 -101t-13 -87q0 -131 153 -131q55 0 102 29.5t80.5 79t52.5 115t19 138.5z" />
    <glyph glyph-name="ml_five" unicode="&#xd6b;" horiz-adv-x="1639" 
d="M1511 593q0 -261 -135 -499l-160 116q82 182 82 361q0 124 -37 226.5t-105.5 175.5t-165 113t-214.5 40q-94 0 -174.5 -35.5t-139 -97.5t-91.5 -147t-33 -184q0 -110 28 -197t82 -147t132.5 -92t179.5 -32q43 0 80.5 10.5t65.5 29.5t44 45.5t16 57.5q0 35 -8 58.5t-28 38
t-55.5 20.5t-89.5 6v215q43 0 70 4.5t42 15t20.5 27.5t5.5 42q0 28 -29.5 46t-69.5 18q-112 0 -112 -114v-346h-215v360q0 70 24 128t67 99.5t101.5 64.5t126.5 23q64 0 121.5 -21.5t101 -59t69 -88.5t25.5 -110q0 -103 -61 -170q113 -81 113 -233q0 -82 -33 -152
t-90.5 -121t-135 -80t-166.5 -29q-145 0 -263 48t-201 136t-128.5 211.5t-45.5 274.5q0 140 48.5 266t135.5 220.5t207 150t263 55.5q159 0 294 -57.5t233 -158t153 -237.5t55 -295z" />
    <glyph glyph-name="ml_six" unicode="&#xd6c;" horiz-adv-x="2581" 
d="M2460 687q0 -210 -50 -385t-142.5 -315.5t-222 -246.5t-289 -176.5t-344 -106t-386.5 -35.5q-466 0 -671 171l114 167q234 -126 535 -126q289 0 518.5 71t389.5 206.5t245 331.5t85 445q0 88 -19 167.5t-53.5 139t-83 94.5t-106.5 35q-114 0 -168.5 -90t-54.5 -273
l-2 -761h-216v766q0 358 -263 358q-226 0 -226 -321v-803h-218v813q0 90 -10 150t-32 96t-56.5 50.5t-83.5 14.5q-48 0 -89.5 -20.5t-75.5 -55t-61 -79t-45.5 -93t-28 -97.5t-9.5 -91q0 -335 207 -546l-120 -184q-84 86 -142.5 168t-94.5 169.5t-52.5 185.5t-16.5 217
q0 77 16.5 154.5t47.5 149t76.5 133.5t104.5 108t130 72t153 26q181 0 309 -135q130 135 317 135q238 0 366 -189q27 41 65 76t82.5 60t93.5 39t97 14q114 0 203.5 -46t151 -131t93.5 -206t32 -271z" />
    <glyph glyph-name="ml_seven" unicode="&#xd6d;" horiz-adv-x="1772" 
d="M1650 662q0 -154 -53.5 -280t-150.5 -215.5t-232.5 -138.5t-299.5 -49q-165 0 -309.5 52.5t-251.5 149t-169 233.5t-62 306q0 154 73 316l190 -108q-46 -99 -46 -177q0 -127 40.5 -230t114.5 -175.5t178 -112t232 -39.5q122 0 220 31.5t166.5 90.5t105.5 144t37 192
q0 197 -122 331q1 -19 1 -32q0 -75 -29.5 -143t-80.5 -118t-120.5 -78.5t-148.5 -28.5q-80 0 -149 28t-120 78t-80 118t-29 149q0 80 32 150.5t86 122.5t125.5 82t151.5 30q93 0 181 -24t166 -68.5t142.5 -106t111.5 -137t73 -162.5t26 -181zM1101 985q0 49 -23 120
q-59 21 -145 21q-32 0 -61 -13.5t-51 -36.5t-35 -53t-13 -63t12.5 -63t34 -52.5t51 -35.5t62.5 -13q35 0 66 16t53.5 42.5t35.5 60.5t13 70z" />
    <glyph glyph-name="ml_eight" unicode="&#xd6e;" horiz-adv-x="2520" 
d="M2398 44q0 -89 -39.5 -161t-105.5 -128t-151 -97t-176.5 -67.5t-182 -39.5t-167.5 -13q-438 0 -715 233l111 189q209 -205 618 -205q43 0 97 7t112 20.5t116 34t107.5 47.5t87 61t54.5 75h-1000v194q219 238 219 447q0 103 -41 192t-112 154t-166 102.5t-203 37.5
q-107 0 -202 -39t-165.5 -106.5t-111.5 -158t-41 -192.5q0 -85 20 -149.5t57 -121t88 -112t113 -122.5l-138 -168q-82 66 -148 147t-113 168.5t-72.5 179t-25.5 178.5q0 103 26.5 196t74.5 172t115.5 143t150 109t176.5 69t196 24q153 0 288 -51.5t236 -144.5t159.5 -222
t58.5 -285q0 -210 -135 -424h712v1107h218v-1280z" />
    <glyph glyph-name="ml_nine" unicode="&#xd6f;" horiz-adv-x="2169" 
d="M2048 689q0 -70 -1.5 -122.5t-3.5 -89.5q-33 -498 -359 -498q-86 0 -154.5 29.5t-116.5 83t-74 129t-26 168.5v681q-146 -122 -146 -432v-638h-217v625q0 511 -320 511q-64 0 -118 -37t-93 -99.5t-60.5 -145t-21.5 -173.5q0 -74 19.5 -148t54.5 -140t83.5 -119.5
t106.5 -86.5l-143 -197q-80 52 -142 125.5t-105.5 163.5t-66 194t-22.5 217q0 79 13.5 159t41.5 153.5t70 137.5t98 111.5t127.5 74.5t157.5 27q284 0 428 -210q94 139 255 186v444h217v-422q134 -6 231.5 -47.5t161.5 -122t94.5 -202.5t30.5 -290zM1832 686q0 451 -269 451
q-16 0 -33 -1v-743q0 -197 159 -197q38 0 65 26t44.5 84.5t25.5 151.5t8 228z" />
    <glyph glyph-name="uni0D70" unicode="&#xd70;" horiz-adv-x="2147" 
d="M621 1321v-682q0 -87 23 -167.5t64 -142t97 -98.5t122 -37q180 0 180 327v800h217v-800q0 -71 12.5 -130.5t35.5 -103.5t56 -68.5t75 -24.5q64 0 120 37t97.5 99t65 142.5t23.5 166.5q0 341 -200 544l111 179q82 -76 139.5 -155t94.5 -167.5t54 -189.5t17 -221
q0 -79 -15 -158.5t-44.5 -151.5t-73.5 -134t-102 -108t-130 -72t-157 -26q-176 0 -296 127q-118 -127 -280 -127q-94 0 -171 32.5t-139 88.5v-43q0 -138 -18 -259.5t-69.5 -212t-145 -143t-243.5 -52.5q-52 0 -93.5 6t-76.5 16t-64 22t-56 24l79 205q45 -24 87 -40.5
t95 -16.5q96 0 153.5 30.5t88 96.5t40.5 170.5t10 252.5v1165h217z" />
    <glyph glyph-name="uni0D71" unicode="&#xd71;" horiz-adv-x="1863" 
d="M779.5 -383q63.5 -17 129.5 -17q112 0 198.5 28.5t151 79t109.5 118.5t74.5 147t46.5 165.5t25 173.5t10 170.5t2 157.5q0 113 -18.5 203t-52.5 153t-82 96.5t-107 33.5q-224 0 -224 -337v-789h-217v789q0 97 -10 161.5t-31.5 103.5t-55.5 55.5t-83 16.5q-47 0 -88 -20.5
t-75 -54t-60.5 -78t-45 -92t-28 -96t-9.5 -90.5q0 -332 205 -540l-118 -182q-304 310 -304 732q0 76 16 153t47 147.5t76 132t103.5 106.5t128.5 71t152 26q180 0 307 -133q126 133 296 133q117 0 209 -46t155.5 -135t96.5 -219.5t33 -300.5q0 -94 -5 -197.5t-19.5 -209
t-40.5 -209t-67.5 -197.5t-102 -174t-143 -138.5t-190 -91.5t-243.5 -33q-66 0 -116.5 6t-91.5 16.5t-75 24.5t-67 31l69 186q66 -20 129.5 -37z" />
    <glyph glyph-name="uni0D72" unicode="&#xd72;" horiz-adv-x="2691" 
d="M1967 823q-9 31 -16.5 68t-12.5 75t-8 74.5t-3 68.5q0 91 16.5 170.5t54 138.5t98 92.5t148.5 33.5q75 0 135.5 -33.5t102.5 -92.5t64.5 -139.5t22.5 -174.5q0 -54 -11.5 -111.5t-34.5 -113t-58 -104.5t-82.5 -86.5t-107.5 -59t-132 -21.5h-313q1 -11 1 -22.5v-22.5
q0 -127 -22 -234t-66.5 -184.5t-110 -121t-152.5 -43.5q-86 0 -150 37.5t-106.5 97t-63.5 132.5t-21 145q0 82 23.5 159.5t74 138t128.5 97t187 36.5h24q-17 67 -49.5 122.5t-74.5 95.5t-90 62.5t-96 22.5q-224 0 -224 -337v-789h-217v789q0 97 -10 161.5t-31.5 103.5
t-55.5 55.5t-83 16.5q-47 0 -88 -20.5t-75 -54t-60.5 -78t-45 -92t-28 -96t-9.5 -90.5q0 -332 205 -540l-118 -182q-304 310 -304 732q0 76 16 153t47 147.5t76 132t103.5 106.5t128.5 71t152 26q180 0 307 -133q126 133 296 133q100 0 191 -34.5t164.5 -100.5t125 -162.5
t73.5 -220.5h165zM1557 608q-96 0 -148.5 -53t-52.5 -163q0 -38 7 -73t22 -63t38 -44.5t55 -16.5q39 0 65.5 25.5t43.5 72t24.5 112t7.5 145.5q0 19 -0.5 31.5t-0.5 26.5h-61zM2143 1113q0 -30 3.5 -66t10 -74t15.5 -75t21 -69q37 10 66.5 36t50.5 63t32 82.5t11 93.5
q0 61 -8.5 104t-23 70t-34 39t-41.5 12q-45 0 -74 -55t-29 -161z" />
    <glyph glyph-name="uni0D73" unicode="&#xd73;" horiz-adv-x="2258" 
d="M2136 1108h-1310q-131 0 -223.5 -20t-151.5 -62t-86 -106.5t-27 -153.5q0 -42 19.5 -85t51.5 -78t72.5 -57t82.5 -22q36 0 65 6q-36 12 -66.5 35t-52.5 53.5t-34 67t-12 75.5q0 53 20.5 99.5t56 81t82.5 54t101 19.5q55 0 102 -21.5t82 -58t55 -85.5t20 -104
q0 -94 -31 -173.5t-87 -137t-133.5 -90t-169.5 -32.5t-172 36.5t-139.5 98.5t-94 144t-34.5 174q0 554 642 554h1372v-212zM783 735q0 16 -5 31.5t-13 27.5t-18.5 19t-22.5 7q-11 0 -21 -5.5t-18.5 -13.5t-13.5 -18.5t-5 -20.5q0 -27 19 -47.5t44 -20.5q30 0 52 5
q1 8 1.5 17t0.5 19z" />
    <glyph glyph-name="uni0D74" unicode="&#xd74;" horiz-adv-x="1979" 
d="M1313 1743q97 0 172 -19t126 -59.5t77.5 -105.5t26.5 -156q0 -33 -4.5 -68t-16.5 -73.5t-33 -80.5t-54 -89q54 -56 95.5 -119t69.5 -129.5t42 -135.5t14 -135q0 -162 -33.5 -274.5t-88.5 -183.5t-127 -103t-148 -32q-86 0 -155.5 41t-118 116t-74.5 179.5t-26 232.5
q0 65 15.5 135t45 138.5t71 132t94.5 115.5q-80 35 -166.5 45.5t-178.5 10.5q-117 0 -219.5 -36.5t-182.5 -103.5t-133 -161.5t-70 -209.5q94 75 221 75q73 0 137.5 -28t113 -76.5t76.5 -113.5t28 -138q0 -72 -27.5 -136.5t-74.5 -113t-110.5 -77t-136.5 -28.5
q-95 0 -175 43.5t-138.5 118.5t-91.5 174.5t-33 212.5q0 120 29 226.5t81.5 197t127 162.5t165 122.5t195 77.5t218.5 27q161 0 284.5 -30t217.5 -90q36 54 48 99.5t12 96.5q0 18 -9 37.5t-29 36t-53 27t-82 10.5h-182v215h168zM1613 563q0 43 -10 93t-30 102t-51.5 102.5
t-74.5 94.5q-41 -36 -73.5 -85t-55 -103.5t-34.5 -111t-12 -106.5q0 -171 40.5 -262.5t118.5 -91.5q26 0 57.5 11.5t59.5 50t46.5 111.5t18.5 195zM696 334q0 27 -12 52.5t-32 45t-45.5 31.5t-52.5 12q-29 0 -55.5 -12.5t-48 -33.5t-37 -49.5t-21.5 -60.5q77 -125 162 -125
q27 0 53 11.5t45.5 31t31.5 44.5t12 53z" />
    <glyph glyph-name="uni0D75" unicode="&#xd75;" horiz-adv-x="2426" 
d="M1912 1743q195 0 293.5 -88t98.5 -271q0 -111 -48 -212t-135 -179q48 -95 70 -202.5t22 -225.5q0 -127 -32.5 -234.5t-92 -185.5t-143 -121.5t-184.5 -43.5q-95 0 -169 35t-124 96t-76 143t-26 176q0 96 24.5 185.5t76.5 170.5t133.5 150.5t196.5 125.5q-41 32 -99 48
t-126 16q-84 0 -144.5 -34t-100 -96.5t-58 -151t-18.5 -196.5v-649h-216v649q0 478 -343 478q-61 0 -110.5 -24.5t-89 -65.5t-68 -93.5t-47.5 -109.5t-28.5 -113t-9.5 -104q86 74 227 74q72 0 137.5 -29t115 -78t79 -113.5t29.5 -135.5t-29 -135.5t-77.5 -113t-113 -77.5
t-135.5 -29q-78 0 -142 27t-114 73.5t-86.5 108.5t-60.5 132t-35.5 144t-11.5 144q0 87 16 175.5t47.5 170t79 152t111 123t142.5 82.5t174 30q135 0 249.5 -59.5t200.5 -169.5q34 50 79.5 92t100.5 72.5t118 47.5t132 17q41 0 92.5 -7.5t107.5 -26.5t113.5 -52t111.5 -85
q27 23 44.5 48t28 53.5t14.5 61t4 70.5q0 20 -8 42t-29 40.5t-57.5 30.5t-94.5 12h-166v215h179zM1576 430q0 -52 10.5 -95t31.5 -74t51 -48.5t69 -17.5q58 0 104 25.5t78.5 72.5t50 113t17.5 146q0 99 -14.5 184t-40.5 151q-83 -31 -149 -76t-112 -102.5t-71 -127.5
t-25 -151zM710 334q0 27 -11.5 52.5t-31 45t-45.5 31.5t-54 12q-113 0 -163 -116q8 -36 24 -66t37.5 -52t47.5 -34.5t54 -12.5t54 11.5t45.5 31t31 45t11.5 52.5z" />
    <glyph glyph-name="uni0D79" unicode="&#xd79;" horiz-adv-x="2624" 
d="M2502 608h-672q1 -11 1 -22.5v-22.5q0 -127 -22 -234t-66.5 -184.5t-110 -121t-152.5 -43.5q-86 0 -150 37.5t-106.5 97t-63.5 132.5t-21 145q0 82 23.5 159.5t74 138t128.5 97t187 36.5h24q-17 67 -49.5 122.5t-74.5 95.5t-90 62.5t-96 22.5q-224 0 -224 -337v-789h-217
v789q0 97 -10 161.5t-31.5 103.5t-55.5 55.5t-83 16.5q-47 0 -88 -20.5t-75 -54t-60.5 -78t-45 -92t-28 -96t-9.5 -90.5q0 -332 205 -540l-118 -182q-304 310 -304 732q0 76 16 153t47 147.5t76 132t103.5 106.5t128.5 71t152 26q180 0 307 -133q126 133 296 133
q100 0 191 -34.5t164.5 -100.5t125 -162.5t73.5 -220.5h700v-215zM1557 608q-96 0 -148.5 -53t-52.5 -163q0 -38 7 -73t22 -63t38 -44.5t55 -16.5q39 0 65.5 25.5t43.5 72t24.5 112t7.5 145.5q0 19 -0.5 31.5t-0.5 26.5h-61z" />
    <glyph glyph-name="ml_chill_nna" unicode="&#xd7a;" horiz-adv-x="2992" 
d="M2870 674q0 -254 -100 -447q-128 -248 -371 -248q-77 0 -139.5 30t-107 83.5t-69 126t-24.5 157.5q0 307 192 759q-106 0 -169 -32.5t-101 -85t-53.5 -118t-15.5 -131.5v-768h-218v759q0 105 -11 177t-34.5 116t-60 63.5t-88.5 19.5q-163 0 -215 -181q-29 -98 -29 -308
v-646h-219v704q0 94 -24.5 173t-69.5 136.5t-109 89.5t-143 32q-71 0 -135 -40t-112.5 -109.5t-78 -165t-30.5 -206.5q94 82 231 82q72 0 137.5 -29.5t115.5 -79t80 -114.5t30 -136t-29.5 -135.5t-78.5 -114t-114 -79t-135 -29.5q-82 0 -147.5 29t-116 77.5t-86.5 112.5
t-59.5 134.5t-34.5 143t-11 137.5q0 83 17.5 170t51.5 169t83.5 155t113.5 127.5t141.5 86t166.5 31.5q267 0 430 -235q118 235 379 235q210 0 337 -157q139 159 411 159q34 0 64 -3q5 22 5 33q0 142 -282 142q-51 0 -93 -1v217h182q81 0 155.5 -27t131.5 -74t91 -110.5
t34 -136.5q0 -59 -7 -97q78 -36 141 -98.5t107.5 -144t68.5 -178.5t24 -202zM2652 667q0 67 -13.5 129t-38 114.5t-60 94t-79.5 67.5q-54 -139 -84.5 -222t-39.5 -112q-59 -192 -59 -352q0 -42 8.5 -77t25 -60t40.5 -39t55 -14q56 0 101.5 36.5t77.5 100.5t49 150t17 184z
M711 337q0 28 -12 54t-32 45.5t-45.5 31t-53.5 11.5q-99 0 -165 -117q36 -166 165 -166q28 0 54 12t46 31.5t31.5 45t11.5 52.5z" />
    <glyph glyph-name="ml_chill_na" unicode="&#xd7b;" horiz-adv-x="2241" 
d="M2119 658q0 -158 -28.5 -284t-82.5 -214t-133 -134.5t-179 -46.5q-90 0 -159 28.5t-116.5 83t-72 133.5t-24.5 180q0 90 12.5 172t35.5 168t57 181t76 210q-102 0 -160.5 -27t-97 -86.5t-57.5 -154t-19 -229.5v-638h-221v638q0 497 -320 497q-65 0 -118.5 -37t-92 -99
t-60 -144.5t-21.5 -173.5q0 -75 19 -149t54 -139.5t83.5 -119t107.5 -86.5l-143 -197q-80 52 -143 126t-106 164t-65.5 193.5t-22.5 216.5q0 256 118 441q140 221 390 221q285 0 428 -209q143 209 427 209q40 0 84 -5q1 19 1 32q0 142 -235 149h-138v215h148
q93 0 173.5 -25.5t140.5 -72t94 -112t34 -144.5q0 -31 -15 -92q79 -33 143.5 -96t109.5 -147t69.5 -185t24.5 -211zM1903 655q0 66 -13.5 129.5t-39 118.5t-61.5 99t-80 71q-32 -76 -62 -161.5t-53.5 -174t-38 -176.5t-14.5 -168q0 -197 159 -197q105 0 162 185
q41 137 41 274z" />
    <glyph glyph-name="ml_chill_ra" unicode="&#xd7c;" horiz-adv-x="1726" 
d="M1604 567q0 -228 -115 -395q-132 -193 -355 -193q-84 0 -152.5 26.5t-117 74.5t-75 116t-26.5 151q0 90 28 187t71 194.5t93.5 191t94.5 175.5q-76 40 -163 40q-119 0 -219.5 -43.5t-174 -120t-114.5 -180t-41 -224.5q0 -251 146 -403l-110 -192q-252 249 -252 615
q0 168 58 308.5t160 242t240 158t298 56.5q112 0 245 -53q8 37 8 71q0 150 -230 158h-141v215h170q86 0 162 -26t132.5 -73t89.5 -112t33 -143q0 -98 -37 -208q67 -52 121.5 -121t93 -149.5t59 -168t20.5 -175.5zM1388 558q0 283 -156 409q-39 -75 -83.5 -152.5
t-81.5 -157.5t-61.5 -161.5t-24.5 -163.5q0 -136 153 -136q54 0 100.5 29.5t80.5 79.5t53.5 115.5t19.5 137.5z" />
    <glyph glyph-name="ml_chill_la" unicode="&#xd7d;" horiz-adv-x="2275" 
d="M2154 544q0 -194 -92 -361q-113 -204 -302 -204q-72 0 -133 27t-106 74t-70.5 110.5t-25.5 136.5q0 55 12.5 116.5t33.5 126.5t47.5 130t54 126.5t53.5 117.5t47 101q-120 90 -278 90q-95 0 -170 -19q170 -226 170 -562q0 -122 -29.5 -227.5t-83.5 -182.5t-131 -121
t-171 -44q-93 0 -169 42t-129 115.5t-82 174.5t-29 220q0 77 18.5 161t52 164.5t79.5 152.5t100 125q-24 1 -44 1q-85 0 -166.5 -41.5t-142.5 -112.5t-95.5 -165t-34.5 -200q0 -313 176 -501l-161 -132q-231 259 -231 633q0 97 21.5 189t61.5 174t97.5 150.5t130.5 118
t159.5 77t184.5 27.5q112 0 248 -65q139 65 362 65q222 0 380 -103q20 66 20 121q0 158 -233 158h-139v215h135q107 0 191.5 -23.5t143 -70t89.5 -114.5t31 -156q0 -121 -63 -272q212 -221 212 -563zM1937 535q0 201 -99 345q-198 -431 -198 -561q0 -24 9 -46.5t24 -39.5
t35 -27t43 -10q42 0 76 28t58.5 74.5t38 108t13.5 128.5zM1211 545q0 338 -189 517q-58 -42 -107 -103.5t-84.5 -132.5t-55.5 -147t-20 -147q0 -380 231 -380q52 0 93.5 28.5t71 80.5t45 124.5t15.5 159.5z" />
    <glyph glyph-name="ml_chill_lla" unicode="&#xd7e;" horiz-adv-x="2144" 
d="M2021 619q0 -241 -95 -419q-119 -221 -338 -221q-89 0 -158.5 30t-116.5 87.5t-71.5 140t-24.5 187.5q0 232 187 706q-200 -1 -278 -158q-48 -96 -66 -334q-12 -160 -49 -283t-97.5 -206.5t-144 -126.5t-187.5 -43q-108 0 -193.5 49.5t-145 139t-90.5 213.5t-31 274
q0 142 35 265t99.5 215.5t156.5 149t206 65.5l1 -215q-62 -13 -113.5 -55t-88.5 -102.5t-58 -135.5t-21 -155q0 -102 17.5 -191.5t49 -156t76.5 -105t100 -38.5q90 0 153 75t88 217q11 91 22 180t22 180q21 133 66 228.5t112.5 157t156 90t196.5 28.5q34 0 72 -3q3 19 3 36
q0 145 -272 145q-49 0 -103 -2v215h150q95 0 175.5 -25t139.5 -71t92.5 -110t33.5 -142q0 -54 -12 -100q82 -39 146.5 -104.5t108 -152.5t66.5 -193t23 -226zM1801 655q0 302 -188 418q-180 -467 -180 -658q0 -219 160 -219q46 0 84.5 36.5t66 98.5t42.5 145.5t15 178.5z
" />
    <glyph glyph-name="uni0D7F" unicode="&#xd7f;" horiz-adv-x="2359" 
d="M1556 371q0 55 10.5 114t29.5 114q-26 5 -55 9.5t-61 7.5q-16 -637 -423 -637q-168 0 -269 107q-146 -107 -298 -107q-80 0 -147.5 29.5t-116.5 81.5t-76.5 123t-27.5 154q0 409 521 459q53 515 414 515q354 0 414 -513q45 -4 103.5 -11t117.5 -17q29 50 66.5 111.5
t70.5 124.5q22 42 43.5 85.5t37.5 89.5t26 93.5t10 98.5q0 20 -7.5 42t-25.5 40.5t-48.5 30.5t-76.5 12h-195v215h182q195 0 291 -88t96 -271q0 -48 -11 -100t-30 -105.5t-43.5 -108t-52.5 -107.5q-31 -60 -60 -110t-58 -99q77 -23 138.5 -55.5t104 -79t65 -109.5t22.5 -146
q0 -77 -24 -147t-68.5 -122.5t-107 -83.5t-139.5 -31q-96 0 -161.5 37.5t-105.5 95t-57.5 126.5t-17.5 132zM852 622q0 -428 205 -428q54 0 92.5 24t64 76t37.5 133t12 195h-411zM685 269q-23 69 -35.5 154t-13.5 190q-80 -9 -136.5 -27t-92 -48t-52 -72t-16.5 -99
q0 -78 39.5 -125.5t111.5 -47.5q99 0 195 75zM1253 837q-36 289 -196 289q-163 0 -197 -289h393zM2022 364q0 45 -13 77.5t-39 56t-65.5 40.5t-91.5 32q-20 -49 -31 -90t-11 -88q0 -29 4 -63.5t16.5 -64t34.5 -49t58 -19.5q31 0 56.5 13.5t43.5 37t28 54t10 63.5z" />
    <glyph glyph-name="endash" unicode="&#x2013;" horiz-adv-x="621" 
d="M653 435h-686v228h686v-228z" />
    <glyph glyph-name="emdash" unicode="&#x2014;" horiz-adv-x="1242" 
d="M1249 435h-1256v228h1256v-228z" />
    <glyph glyph-name="quoteleft" unicode="&#x2018;" horiz-adv-x="471" 
d="M369 949h-287v239q0 72 18.5 131t54.5 100.5t89.5 64.5t124.5 23v-179q-44 0 -67.5 -23t-27.5 -73h95v-283z" />
    <glyph glyph-name="quoteright" unicode="&#x2019;" horiz-adv-x="471" 
d="M370 1245q0 -72 -18.5 -130.5t-54.5 -100.5t-89.5 -65t-124.5 -23v179q87 0 94 96h-94v282h287v-238z" />
    <glyph glyph-name="quotesinglbase" unicode="&#x201a;" horiz-adv-x="637" 
d="M468 44q0 -78 -20 -141t-58.5 -107.5t-95 -68.5t-130.5 -24v187q47 0 72 28.5t30 81.5h-102v299h304v-255z" />
    <glyph glyph-name="quotedblleft" unicode="&#x201c;" horiz-adv-x="706" 
d="M669 949h-287v239q0 72 18.5 131t54.5 100.5t89.5 64.5t124.5 23v-180q-44 0 -67.5 -22.5t-26.5 -72.5h94v-283zM325 949h-287v239q0 72 18.5 131t54.5 100.5t89.5 64.5t124.5 23v-180q-45 0 -68.5 -22.5t-27.5 -72.5h96v-283z" />
    <glyph glyph-name="quotedblright" unicode="&#x201d;" horiz-adv-x="706" 
d="M669 1245q0 -73 -18.5 -132t-54.5 -100.5t-89.5 -64t-124.5 -22.5v179q90 0 96 96h-96v282h287v-238zM325 1245q0 -73 -18.5 -132t-54.5 -100.5t-89.5 -64t-124.5 -22.5v179q88 0 95 96h-95v282h287v-238z" />
    <glyph glyph-name="quotedblbase" unicode="&#x201e;" horiz-adv-x="898" 
d="M791 44q0 -78 -19 -141t-57 -107.5t-95 -68.5t-132 -24v187q95 0 103 110h-103v299h303v-255zM404 44q0 -78 -20 -141t-58 -107.5t-95 -68.5t-130 -24v187q48 0 73 28.5t29 81.5h-102v299h303v-255z" />
    <glyph glyph-name="dagger" unicode="&#x2020;" horiz-adv-x="1179" 
d="M1078 824h-376v-1233h-273v1233h-375v240h375v419h273v-419h376v-240z" />
    <glyph glyph-name="daggerdbl" unicode="&#x2021;" horiz-adv-x="1179" 
d="M1078 9h-376v-418h-273v418h-375v241h375v574h-375v240h375v419h273v-419h374v-240h-374v-574h376v-241z" />
    <glyph glyph-name="bullet" unicode="&#x2022;" horiz-adv-x="919" 
d="M770 870q0 -68 -27 -128.5t-73 -105.5t-105.5 -71.5t-123.5 -26.5q-69 0 -129 26.5t-105 71.5t-71 105.5t-26 128.5q0 67 26 127t71 105t105 71.5t129 26.5t129 -26.5t104.5 -71.5t70 -105t25.5 -127z" />
    <glyph glyph-name="ellipsis" unicode="&#x2026;" horiz-adv-x="1199" 
d="M1085 0h-286v282h286v-282zM718 0h-286v282h286v-282zM351 0h-286v282h286v-282z" />
    <glyph glyph-name="perthousand" unicode="&#x2030;" horiz-adv-x="2119" 
d="M339 1507q78 0 140.5 -28t107 -81t68.5 -130t24 -175t-23.5 -175t-68 -130t-107.5 -81t-141 -28q-79 0 -142 27.5t-106.5 80.5t-67 130t-23.5 176q0 98 23.5 175t67 130t106.5 81t142 28zM339 884q96 0 96 209t-96 209q-95 0 -95 -209t95 -209zM1208 1483l-789 -1483
h-213l790 1483h212zM1774 806q78 0 140.5 -28t107 -81t68.5 -130t24 -176q0 -98 -23.5 -175t-68 -130t-107.5 -81.5t-141 -28.5t-140.5 28t-106.5 81t-67.5 130t-23.5 176t23.5 176.5t67.5 130.5t106.5 80.5t140.5 27.5zM1774 181q97 0 97 210q0 209 -97 209q-94 0 -94 -209
q0 -210 94 -210zM1076 806q77 0 139.5 -28t107 -81t69 -130t24.5 -176q0 -98 -23.5 -175t-68 -130t-107.5 -81.5t-141 -28.5q-79 0 -141.5 28t-106.5 81t-67.5 130t-23.5 176t23.5 176.5t67.5 130.5t106.5 80.5t141.5 27.5zM1076 181q96 0 96 210q0 209 -96 209
q-94 0 -94 -209q0 -210 94 -210z" />
    <glyph glyph-name="guilsinglleft" unicode="&#x2039;" horiz-adv-x="765" 
d="M665 74h-255l-359 515l359 515h255l-293 -516z" />
    <glyph glyph-name="guilsinglright" unicode="&#x203a;" horiz-adv-x="765" 
d="M680 589l-359 -515h-253l295 515l-295 515h253z" />
    <glyph glyph-name="fraction" unicode="&#x2044;" horiz-adv-x="362" 
d="M811 1518l-977 -1518h-280l977 1518h280z" />
    <glyph glyph-name="foursuperior" unicode="&#x2074;" horiz-adv-x="719" 
d="M704 876h-100v-147h-228v147h-366v175l411 481h183v-445h100v-211zM376 1087v104l-87 -104h87z" />
    <glyph glyph-name="rupee" unicode="&#x20a8;" horiz-adv-x="2614" 
d="M1486 0h-305l-145 413q-16 43 -42 79t-60.5 62t-76.5 41t-89 15h-304v-610h-283v1518h680q61 0 116 -2.5t105.5 -13t97 -31t88.5 -56.5q37 -32 65 -71.5t46.5 -83.5t28 -91.5t9.5 -94.5q0 -139 -67 -238.5t-185 -152.5q97 -74 158 -234zM464 871h377q76 0 130.5 10.5
t89 34.5t50.5 63t16 95q0 101 -63 148.5t-194 47.5h-406v-399zM2084 -24q-457 0 -485 414h277q2 -184 206 -184q89 0 135.5 33t46.5 83q0 23 -10 38t-38 28.5t-78.5 28t-131.5 34.5q-99 24 -170 48.5t-117.5 61t-68.5 90t-22 136.5q0 72 30 133.5t85 106.5t133 71t174 26
q443 0 452 -372h-267q-10 142 -172 142q-35 0 -65.5 -6t-52.5 -17.5t-34.5 -28t-12.5 -38.5q0 -18 6.5 -30t31 -23.5t72.5 -25t131 -33.5q101 -26 175.5 -52t123.5 -64.5t73 -94.5t24 -141q0 -78 -32 -144.5t-90.5 -115t-142 -76.5t-186.5 -28z" />
    <glyph glyph-name="Euro" unicode="&#x20ac;" horiz-adv-x="1179" 
d="M1096 532q-51 -556 -489 -556q-412 0 -484 523h-103v190h88q-1 11 -1 24v27v25t1 22h-88v191h102q70 529 485 529q103 0 186.5 -35.5t146 -103t102.5 -166.5t55 -226h-278q-7 70 -24.5 126t-44.5 95t-63.5 60t-79.5 21q-162 0 -207 -300h296l-51 -191h-260v-47v-51h227
l-54 -190h-158q45 -293 207 -293q180 0 212 326h277z" />
    <glyph glyph-name="trademark" unicode="&#x2122;" horiz-adv-x="1449" 
d="M1407 715h-210v313l-104 -313h-112l-105 314v-314h-210v768h241l130 -378l131 378h239v-768zM619 1281h-185v-566h-219v566h-185v202h589v-202z" />
    <glyph glyph-name="dottedcircle" unicode="&#x25cc;" horiz-adv-x="1287" 
d="M1113 959l-108 -76q-52 86 -137 138l75 106q105 -66 170 -168zM762 1207l-22 -128q-47 11 -96 11q-51 0 -98 -11l-22 128q61 14 119 14q59 0 119 -14zM1187 677q0 -58 -14 -119l-128 22q11 47 11 96q0 51 -11 98l128 22q14 -61 14 -119zM1113 395q-66 -103 -170 -169
l-75 107q85 52 137 138zM419 1021q-85 -52 -137 -138l-108 76q65 102 170 168zM242 580l-129 -22q-13 57 -13 119t13 119l129 -22q-11 -47 -11 -98q0 -49 11 -96zM762 147q-60 -14 -119 -14q-58 0 -119 14l22 128q47 -11 98 -11q49 0 96 11zM419 333l-75 -107
q-104 66 -170 169l108 76q52 -86 137 -138z" />
    <glyph glyph-name="ml_zero" horiz-adv-x="2258" 
d="M2136 1108h-1310q-131 0 -223.5 -20t-151.5 -62t-86 -106.5t-27 -153.5q0 -42 19.5 -85t51.5 -78t72.5 -57t82.5 -22q36 0 65 6q-36 12 -66.5 35t-52.5 53.5t-34 67t-12 75.5q0 53 20.5 99.5t56 81t82.5 54t101 19.5q55 0 102 -21.5t82 -58t55 -85.5t20 -104
q0 -94 -31 -173.5t-87 -137t-133.5 -90t-169.5 -32.5t-172 36.5t-139.5 98.5t-94 144t-34.5 174q0 554 642 554h1372v-212zM783 735q0 16 -5 31.5t-13 27.5t-18.5 19t-22.5 7q-11 0 -21 -5.5t-18.5 -13.5t-13.5 -18.5t-5 -20.5q0 -27 19 -47.5t44 -20.5q30 0 52 5
q1 8 1.5 17t0.5 19z" />
    <glyph glyph-name="ml_blwf_la" horiz-adv-x="0" 
d="M-123 -428q0 -113 -29.5 -205t-84.5 -157.5t-135 -101.5t-180 -36q-91 0 -167 26t-131 74t-85.5 115.5t-30.5 150.5v138q0 45 -23 83.5t-61 66t-89 43.5t-106 16q-66 0 -124 -16.5t-101 -46t-67.5 -71.5t-24.5 -93q0 -10 2 -23q113 83 217 83q61 0 113.5 -18.5
t90.5 -52.5t59.5 -82t21.5 -107q0 -65 -18.5 -117.5t-54.5 -90t-88 -58t-118 -20.5q-87 0 -163 38.5t-132.5 103t-89.5 149.5t-33 178q0 97 38.5 177t106 137.5t160 89t201.5 31.5q99 0 186 -30t151.5 -83t102 -125.5t37.5 -157.5v-125q0 -90 60 -142t164 -52q233 0 233 317
q0 40 -12.5 85t-34.5 88t-52 81t-64 64l180 83q37 -28 69 -74.5t55.5 -102t37 -115.5t13.5 -115zM-1250 -642q0 84 -87 84q-88 0 -175 -84q46 -97 175 -97q16 0 31.5 8.5t28 22.5t20 31.5t7.5 34.5z" />
    <glyph glyph-name="ml_blwf_lla" horiz-adv-x="0" 
d="M-123 -428q0 -113 -29.5 -205t-84.5 -157.5t-135 -101.5t-180 -36q-91 0 -167 26t-131 74t-85.5 115.5t-30.5 150.5v138q0 45 -23 83.5t-61 66t-89 43.5t-106 16q-66 0 -124 -16.5t-101 -46t-67.5 -71.5t-24.5 -93q0 -10 2 -23q113 83 217 83q61 0 113.5 -18.5
t90.5 -52.5t59.5 -82t21.5 -107q0 -65 -18.5 -117.5t-54.5 -90t-88 -58t-118 -20.5q-87 0 -163 38.5t-132.5 103t-89.5 149.5t-33 178q0 97 38.5 177t106 137.5t160 89t201.5 31.5q99 0 186 -30t151.5 -83t102 -125.5t37.5 -157.5v-125q0 -90 60 -142t164 -52q233 0 233 317
q0 40 -12.5 85t-34.5 88t-52 81t-64 64l180 83q37 -28 69 -74.5t55.5 -102t37 -115.5t13.5 -115zM-1250 -642q0 84 -87 84q-88 0 -175 -84q46 -97 175 -97q16 0 31.5 8.5t28 22.5t20 31.5t7.5 34.5z" />
    <glyph glyph-name="ml_haln_ka" horiz-adv-x="2355" 
d="M2029 367q0 -78 -28.5 -148.5t-78 -124t-115.5 -84.5t-142 -31q-35 0 -60.5 2.5t-51 11.5t-55.5 26.5t-74 47.5l96 194q82 -67 134 -67q35 0 64 14t50 37.5t32.5 55t11.5 66.5q0 57 -19 100.5t-59 73.5t-103 48.5t-151 26.5q-16 -637 -423 -637q-168 0 -269 107
q-145 -107 -298 -107q-80 0 -147.5 29.5t-116.5 81.5t-76.5 123t-27.5 154q0 409 521 459q53 515 414 515q354 0 414 -513q145 -11 250 -45t173.5 -91t101.5 -138t33 -187zM1253 837q-36 289 -196 289q-163 0 -197 -289h393zM1263 622h-411q0 -428 205 -428q54 0 92.5 24
t64 76t37.5 133t12 195zM685 269q-23 69 -35.5 154.5t-13.5 189.5q-80 -9 -136.5 -27t-92 -48t-52 -72t-16.5 -99q0 -78 39.5 -125.5t111.5 -47.5q99 0 195 75zM2301 1786q0 -74 -33.5 -139t-90.5 -113.5t-131 -76.5t-155 -28q-87 0 -164 27t-135 74.5t-91.5 112.5
t-33.5 140q0 120 98 227l162 -124q-51 -65 -51 -99q0 -33 17 -61.5t45.5 -49.5t66 -32.5t79.5 -11.5q39 0 76 11.5t66 32t47 47.5t18 57q0 45 -53 101l165 132q98 -130 98 -227z" />
    <glyph glyph-name="ml_haln_kha" horiz-adv-x="2641" 
d="M2257 0h-1207v203q226 145 226 456q0 99 -37 184.5t-102 148t-152.5 98.5t-189.5 36q-99 0 -182.5 -39t-144.5 -107.5t-95.5 -161t-34.5 -199.5q0 -22 1 -46q103 117 264 117q75 0 141 -27.5t115 -75.5t77.5 -113t28.5 -140t-28.5 -140t-77.5 -113t-115 -75t-141 -27
q-73 0 -136.5 29.5t-117 80t-95.5 116t-71.5 137.5t-45 145.5t-15.5 138.5q0 94 23.5 183.5t66 168.5t103.5 146t135.5 115t161.5 75t183 27q144 0 270 -52.5t220.5 -144.5t149 -216.5t54.5 -268.5q0 -279 -138 -445h689v1107h217v-1321zM747 334q0 28 -11.5 53.5t-31 45
t-45 31t-53.5 11.5q-124 0 -160 -135q32 -146 160 -146q28 0 53.5 11.5t45 31t31 45t11.5 52.5zM2588 1786q0 -74 -33.5 -139t-90.5 -113.5t-131 -76.5t-155 -28q-87 0 -164 27t-135 74.5t-91.5 112.5t-33.5 140q0 120 98 227l162 -124q-51 -65 -51 -99q0 -33 17 -61.5
t45.5 -49.5t66 -32.5t79.5 -11.5q39 0 76 11.5t66 32t47 47.5t18 57q0 45 -53 101l165 132q98 -130 98 -227z" />
    <glyph glyph-name="ml_haln_ga" horiz-adv-x="2112" 
d="M1786 668q0 -74 -15 -152t-44.5 -152t-72.5 -140.5t-99 -116.5t-125 -79t-161 -29v215q67 0 122.5 36t95 98t61.5 144.5t22 175.5q0 39 -5.5 88.5t-18 100t-31.5 99t-46.5 86.5t-64 61t-82.5 23q-60 0 -101 -32t-70.5 -87t-49.5 -128.5t-37.5 -156t-34.5 -170t-40.5 -170
t-56 -156t-80 -128.5t-113.5 -87t-156 -32q-82 0 -148 31t-117.5 83t-88 121t-60.5 146t-35.5 156t-11.5 152q0 140 35.5 259.5t101 207t157.5 137t205 49.5v-215q-60 -2 -111.5 -40t-90 -98.5t-60 -136.5t-21.5 -154q0 -39 5 -90t17 -105t31 -105.5t46 -92t63 -65.5t83 -25
q49 0 83 32t59 87t43.5 128.5t36.5 156t37 170t45 170t61.5 156t86 128.5t118.5 87t159 32q84 0 152 -29t120.5 -78.5t90.5 -115.5t62.5 -141t36.5 -154t12 -155zM2058 1786q0 -74 -33.5 -139t-90.5 -113.5t-131 -76.5t-155 -28q-87 0 -164 27t-135 74.5t-91.5 112.5
t-33.5 140q0 120 98 227l162 -124q-51 -65 -51 -99q0 -33 17 -61.5t45.5 -49.5t66 -32.5t79.5 -11.5q39 0 76 11.5t66 32t47 47.5t18 57q0 45 -53 101l165 132q98 -130 98 -227z" />
    <glyph glyph-name="ml_haln_gha" horiz-adv-x="3169" 
d="M2786 0h-1606v397h-457v197q121 13 121 140q0 40 -21 77.5t-55 66t-77.5 45.5t-89.5 17q-56 0 -103.5 -15.5t-82 -43.5t-54.5 -67t-20 -85q0 -110 101 -178l-108 -183q-212 108 -212 361q0 92 37 170t101.5 135t152 89t188.5 32q90 0 173.5 -33t148 -89.5t103 -131
t38.5 -158.5q0 -82 -21 -131h137v204q0 71 21 137.5t58.5 125t88.5 106.5t111.5 83t128 54t137.5 19t137.5 -19t127.5 -53.5t110.5 -83t86.5 -107t56.5 -125t20.5 -137.5v-419h-867v-182h1170v1106h219v-1321zM2046 612v194q0 63 -26 120.5t-70 102t-102 71t-123 26.5
q-64 0 -123.5 -25.5t-105 -69.5t-72.5 -102t-27 -123v-194h649zM3114 1786q0 -74 -33.5 -139t-90.5 -113.5t-131 -76.5t-155 -28q-87 0 -164 27t-135 74.5t-91.5 112.5t-33.5 140q0 120 98 227l162 -124q-51 -65 -51 -99q0 -33 17 -61.5t45.5 -49.5t66 -32.5t79.5 -11.5
q39 0 76 11.5t66 32t47 47.5t18 57q0 45 -53 101l165 132q98 -130 98 -227z" />
    <glyph glyph-name="ml_haln_nga" horiz-adv-x="2251" 
d="M1983 345q0 -346 -536 -346v215q321 0 321 160q0 154 -311 154v213q70 0 125.5 12t94.5 35.5t60 57.5t21 78q0 47 -16.5 84.5t-47 63.5t-74 40t-97.5 14q-55 0 -104 -17t-86.5 -47.5t-59.5 -72t-22 -90.5v-900h-216v649q0 478 -343 478q-58 0 -106.5 -23t-87.5 -62
t-69 -90t-50 -106.5t-30 -113t-10 -115.5q85 74 227 74q72 0 137.5 -29t115 -78t79 -113.5t29.5 -135.5t-29 -135.5t-77.5 -113t-113 -77.5t-135.5 -29q-78 0 -142 27t-114 73.5t-86.5 108.5t-60.5 132t-35.5 144t-11.5 144q0 87 16 175.5t47.5 170t79 152t111 123
t142.5 82.5t174 30q268 0 418 -183q135 183 394 183q109 0 197.5 -30t151 -85.5t96.5 -134.5t34 -178q0 -164 -126 -267q126 -107 126 -301zM710 334q0 27 -11.5 52.5t-31 45t-45.5 31.5t-54 12q-113 0 -163 -116q8 -36 24 -66t37.5 -52t47.5 -34.5t54 -12.5t54 11.5
t45.5 31t31 45t11.5 52.5zM2198 1786q0 -74 -33.5 -139t-90.5 -113.5t-131 -76.5t-155 -28q-87 0 -164 27t-135 74.5t-91.5 112.5t-33.5 140q0 120 98 227l162 -124q-51 -65 -51 -99q0 -33 17 -61.5t45.5 -49.5t66 -32.5t79.5 -11.5q39 0 76 11.5t66 32t47 47.5t18 57
q0 45 -53 101l165 132q98 -130 98 -227z" />
    <glyph glyph-name="ml_haln_ca" horiz-adv-x="2605" 
d="M2225 0h-2103v215h744q123 0 237 123t114 244q0 51 -13.5 95.5t-38.5 76.5t-59 50.5t-76 18.5q-40 0 -75.5 -15.5t-62.5 -41.5t-42.5 -61.5t-15.5 -75.5q0 -63 85 -121l-120 -165q-183 133 -183 296q0 84 31.5 157t86 127t128.5 84.5t159 30.5q91 0 167.5 -34.5
t131.5 -95.5t85.5 -144.5t30.5 -181.5q0 -207 -151 -367h722v1105h218v-1320zM2532 1786q0 -74 -33.5 -139t-90.5 -113.5t-131 -76.5t-155 -28q-87 0 -164 27t-135 74.5t-91.5 112.5t-33.5 140q0 120 98 227l162 -124q-51 -65 -51 -99q0 -33 17 -61.5t45.5 -49.5t66 -32.5
t79.5 -11.5q39 0 76 11.5t66 32t47 47.5t18 57q0 45 -53 101l165 132q98 -130 98 -227z" />
    <glyph glyph-name="ml_haln_cha" horiz-adv-x="3442" 
d="M3103 569q0 -126 -32.5 -234t-92.5 -187t-145 -124t-189 -45q-89 0 -164 35t-129 96t-84 144t-30 179q0 415 376 608q-125 80 -271 80q-72 0 -141 -19t-131 -53t-114 -82t-90 -106.5t-59.5 -126t-21.5 -140.5q0 -69 16 -134.5t45.5 -118t69.5 -88.5t88 -46v-207h-1882
v214h493q42 0 84.5 16t82.5 43t74 63.5t60 77.5t40.5 85t14.5 85q0 50 -14.5 93t-40.5 75t-62.5 50.5t-80.5 18.5q-41 0 -77 -14.5t-63 -40t-42.5 -60.5t-15.5 -76q0 -59 92 -119l-120 -174q-192 133 -192 297q0 84 33.5 157.5t90.5 128t132.5 86.5t160.5 32
q91 0 167.5 -35.5t132 -98t86.5 -146.5t31 -180q0 -210 -169 -364h650q-105 169 -105 372q0 106 28.5 203.5t79.5 181.5t123 152t158 116.5t184.5 75t203.5 26.5q103 0 199 -29t181 -80.5t155 -123t120 -157.5t78 -183t28 -199zM2874 556q0 166 -85 309q-74 -19 -136 -60.5
t-107 -99t-70 -127.5t-25 -145q0 -53 12 -96.5t34 -75.5t53.5 -49.5t69.5 -17.5q59 0 106 27t80 75t50.5 114.5t17.5 145.5zM3388 1786q0 -74 -33.5 -139t-90.5 -113.5t-131 -76.5t-155 -28q-87 0 -164 27t-135 74.5t-91.5 112.5t-33.5 140q0 120 98 227l162 -124
q-51 -65 -51 -99q0 -33 17 -61.5t45.5 -49.5t66 -32.5t79.5 -11.5q39 0 76 11.5t66 32t47 47.5t18 57q0 45 -53 101l165 132q98 -130 98 -227z" />
    <glyph glyph-name="ml_haln_ja" horiz-adv-x="1892" 
d="M1563 265q0 -64 -23 -117t-63 -90.5t-94.5 -58t-117.5 -20.5q-44 0 -86.5 14.5t-78.5 40.5t-63 62t-41 78q-267 -195 -505 -195q-179 0 -274 82.5t-95 238.5q0 59 20 103.5t55 77.5t82.5 56t102 40.5t113.5 30.5t117 25q22 5 132.5 29.5t313.5 69.5q290 65 290 218
q0 38 -14 70.5t-39.5 56t-60 36.5t-74.5 13q-179 0 -179 -277h-215v81q0 47 -16 85t-44.5 65t-67.5 41.5t-85 14.5q-32 0 -55 -17q91 -26 142.5 -91.5t51.5 -151.5q0 -52 -22.5 -97t-60.5 -78t-87.5 -52t-103.5 -19q-66 0 -120.5 23.5t-93.5 65.5t-60.5 99t-21.5 124
q0 79 35 151.5t93.5 127.5t134 87.5t156.5 32.5q197 0 328 -132q115 132 290 132q93 0 167.5 -27t127 -77.5t81 -123t28.5 -163.5q0 -99 -38 -166t-102.5 -112t-149.5 -73t-179 -50l-431 -100q-48 -11 -105 -22.5t-106 -28t-81.5 -40t-32.5 -58.5q0 -106 162 -106
q79 0 150 26t136 65t125.5 85t118.5 85t115 65t115 26q62 0 117 -21t96.5 -58.5t65.5 -89t24 -112.5zM1351 273q0 16 -7.5 32t-20.5 28.5t-29 20.5t-33 8q-37 0 -78 -34q-5 -18 -5 -38q0 -98 87 -98q86 0 86 81zM477 879q0 24 -19.5 42.5t-43.5 18.5q-34 0 -59 -13
q-4 -20 -4 -36q0 -15 5 -28.5t14 -24t20.5 -16.5t23.5 -6q63 0 63 63zM1835 1786q0 -74 -33.5 -139t-90.5 -113.5t-131 -76.5t-155 -28q-87 0 -164 27t-135 74.5t-91.5 112.5t-33.5 140q0 120 98 227l162 -124q-51 -65 -51 -99q0 -33 17 -61.5t45.5 -49.5t66 -32.5
t79.5 -11.5q39 0 76 11.5t66 32t47 47.5t18 57q0 45 -53 101l165 132q98 -130 98 -227z" />
    <glyph glyph-name="ml_haln_jha" horiz-adv-x="3471" 
d="M3143 649q0 -73 -12 -151t-36.5 -152t-62.5 -141t-90 -117t-118.5 -79.5t-147.5 -29.5q-196 0 -325 133q-106 -133 -295 -133q-84 0 -148 22t-110.5 62t-77.5 95.5t-49.5 121.5t-26 140.5t-7.5 153.5q0 64 -7 129.5t-25 127t-48.5 115t-77.5 94t-112.5 63.5t-152.5 23
q198 -233 198 -593q0 -117 -32 -218t-89.5 -176t-138 -117.5t-177.5 -42.5q-96 0 -176.5 43t-138 118t-89.5 176t-32 217q0 81 15 166t41.5 164t63.5 147t82 115q-63 -4 -117 -30.5t-98.5 -69t-79.5 -97t-58.5 -114.5t-36 -122.5t-12.5 -119.5q0 -266 176 -444l-148 -148
q-245 242 -245 592q0 96 20 190t58.5 179.5t94.5 158.5t128 126.5t159.5 84t189.5 30.5q94 0 201 -43q102 43 291 43q115 0 203 -33.5t154 -94t111 -143.5t74.5 -182t45 -210.5t21.5 -228.5q4 -73 17.5 -122t36 -78.5t52.5 -42t67 -12.5q196 0 196 294v833h217v-833
q0 -59 16 -112.5t45 -94t68.5 -64t87.5 -23.5q59 0 105.5 38t79 105.5t49.5 161.5t17 205q0 67 -14.5 135t-41 130.5t-64.5 116.5t-85 94l115 177q306 -231 306 -708zM1193 533q0 65 -17.5 139t-47.5 145.5t-70.5 133.5t-86.5 103q-47 -37 -86 -94t-67.5 -126.5
t-44.5 -146.5t-16 -154q0 -75 15 -137.5t43.5 -107t68.5 -69.5t91 -25q47 0 87 27.5t69 74.5t45.5 108t16.5 129zM3415 1786q0 -74 -33.5 -139t-90.5 -113.5t-131 -76.5t-155 -28q-87 0 -164 27t-135 74.5t-91.5 112.5t-33.5 140q0 120 98 227l162 -124q-51 -65 -51 -99
q0 -33 17 -61.5t45.5 -49.5t66 -32.5t79.5 -11.5q39 0 76 11.5t66 32t47 47.5t18 57q0 45 -53 101l165 132q98 -130 98 -227z" />
    <glyph glyph-name="ml_haln_nya" horiz-adv-x="3060" 
d="M2733 553q0 -300 -233 -572l-167 132q41 44 74.5 98t57.5 113.5t37 120.5t13 118q0 63 -12.5 129t-37 128.5t-61 118t-84 97t-105.5 66t-135 24.5q200 -248 200 -577q0 -208 -88 -368q-111 -202 -315 -202q-211 0 -336 194q-105 163 -105 376q0 345 208 577
q-131 -17 -207.5 -64t-116 -122.5t-50.5 -180t-11 -236.5v-523h-219v648q0 112 -23 201t-67 150.5t-108 94t-147 32.5q-56 0 -104 -22t-87.5 -59.5t-70.5 -87.5t-52 -105t-32 -112t-11 -125q94 75 231 75q73 0 138.5 -29t115.5 -78t79.5 -113.5t29.5 -135.5q0 -70 -29 -134
t-78 -113t-114 -78.5t-136 -29.5q-79 0 -143 27t-114 73t-87 108t-61.5 132t-36 144t-11.5 145q0 82 17.5 168t51.5 167.5t84 153.5t113.5 126.5t140.5 86t166 31.5q69 0 135 -19t125 -55t109 -87t88 -115q35 65 86.5 116.5t114.5 87t135 54t148 18.5q114 0 222 -51
q118 51 241 51q100 0 186 -32.5t156.5 -89t125 -133t91.5 -164t56 -182t19 -187.5zM2062 539q0 321 -208 505q-200 -159 -200 -485q0 -75 15.5 -141.5t44 -116t67.5 -78.5t87 -29q45 0 81 25.5t61 71t38.5 109t13.5 139.5zM715 334q0 28 -12 53.5t-31.5 45t-46 31
t-54.5 11.5q-119 0 -164 -113q34 -168 164 -168q29 0 55 11.5t46 31t31.5 44.5t11.5 53zM3004 1786q0 -74 -33.5 -139t-90.5 -113.5t-131 -76.5t-155 -28q-87 0 -164 27t-135 74.5t-91.5 112.5t-33.5 140q0 120 98 227l162 -124q-51 -65 -51 -99q0 -33 17 -61.5t45.5 -49.5
t66 -32.5t79.5 -11.5q39 0 76 11.5t66 32t47 47.5t18 57q0 45 -53 101l165 132q98 -130 98 -227z" />
    <glyph glyph-name="ml_haln_tta" horiz-adv-x="1416" 
d="M1088 379q0 -89 -37 -162.5t-102.5 -126t-153.5 -82t-190 -29.5q-483 0 -483 423h210q0 -208 263 -208q55 0 106.5 14t90.5 38.5t62.5 58.5t23.5 74q0 48 -16 81.5t-54 54.5t-102 30.5t-160 9.5q-206 0 -315 101t-109 291q0 88 36.5 160.5t102 124.5t156 80.5t198.5 28.5
q109 0 197 -28.5t149 -83t94 -133t33 -178.5h-208q-10 208 -265 208q-62 0 -114 -12.5t-89.5 -36t-58.5 -56.5t-21 -74q0 -67 27.5 -103t73 -52.5t104 -19t119.5 -2.5q99 0 178.5 -27t136 -77.5t87 -123t30.5 -163.5zM1360 1786q0 -74 -33.5 -139t-90.5 -113.5t-131 -76.5
t-155 -28q-87 0 -164 27t-135 74.5t-91.5 112.5t-33.5 140q0 120 98 227l162 -124q-51 -65 -51 -99q0 -33 17 -61.5t45.5 -49.5t66 -32.5t79.5 -11.5q39 0 76 11.5t66 32t47 47.5t18 57q0 45 -53 101l165 132q98 -130 98 -227z" />
    <glyph glyph-name="ml_haln_ttha" horiz-adv-x="1725" 
d="M1397 661q0 -93 -21 -179.5t-60 -162.5t-95 -138.5t-127 -107.5t-155.5 -69.5t-179.5 -24.5q-137 0 -254 52t-202 143.5t-133 216.5t-48 270q0 134 48 257t133.5 217t202 150t253.5 56q91 0 173.5 -25.5t153.5 -71.5t128.5 -109t98 -139t62.5 -161t22 -174zM1184 661
q0 95 -33.5 179.5t-91.5 148t-135 100.5t-165 37q-89 0 -166.5 -37t-134.5 -100.5t-90 -148t-33 -179.5q0 -96 33 -180.5t90 -148.5t134.5 -101t166.5 -37q94 0 172 35t134.5 97t87.5 147.5t31 187.5zM1669 1786q0 -74 -33.5 -139t-90.5 -113.5t-131 -76.5t-155 -28
q-87 0 -164 27t-135 74.5t-91.5 112.5t-33.5 140q0 120 98 227l162 -124q-51 -65 -51 -99q0 -33 17 -61.5t45.5 -49.5t66 -32.5t79.5 -11.5q39 0 76 11.5t66 32t47 47.5t18 57q0 45 -53 101l165 132q98 -130 98 -227z" />
    <glyph glyph-name="ml_haln_dda" horiz-adv-x="2737" 
d="M2411 707q0 -168 -33 -302.5t-96 -229t-154.5 -145.5t-208.5 -51q-197 0 -326 159q-120 -159 -320 -159q-221 0 -338.5 120.5t-117.5 348.5q0 16 3 45t7 63.5t9 72t9 72t7 63.5t3 46q0 316 -199 316q-67 0 -125 -36.5t-101 -97.5t-67.5 -140.5t-24.5 -164.5
q0 -317 209 -532l-119 -190q-306 301 -306 722q0 75 15.5 153.5t45.5 151.5t73.5 137t101 112t127.5 75.5t152 27.5q106 0 187 -32.5t136 -95t83 -154.5t28 -211q0 -17 -3 -46.5t-7 -65t-9.5 -74.5t-9.5 -74.5t-7 -65t-3 -46.5q0 -80 13.5 -134t42.5 -88t74.5 -48.5
t110.5 -14.5q216 0 216 340v787h216v-787q0 -340 214 -340q64 0 115.5 37t86.5 104.5t54 161.5t19 207q0 290 -207 467l120 185q304 -253 304 -649zM2683 1786q0 -74 -33.5 -139t-90.5 -113.5t-131 -76.5t-155 -28q-87 0 -164 27t-135 74.5t-91.5 112.5t-33.5 140
q0 120 98 227l162 -124q-51 -65 -51 -99q0 -33 17 -61.5t45.5 -49.5t66 -32.5t79.5 -11.5q39 0 76 11.5t66 32t47 47.5t18 57q0 45 -53 101l165 132q98 -130 98 -227z" />
    <glyph glyph-name="ml_haln_ddha" horiz-adv-x="2940" 
d="M2614 710q0 -168 -36 -303t-105.5 -230t-170.5 -146.5t-230 -51.5q-260 0 -435 195q-25 -44 -64.5 -79.5t-87.5 -61.5t-102 -40t-108 -14q-107 0 -191.5 32t-143.5 92.5t-90.5 147.5t-31.5 197q0 16 2.5 45t6 63.5t7.5 72.5t7.5 72.5t6 63.5t2.5 45q0 316 -193 316
q-67 0 -125 -36.5t-101 -97.5t-67.5 -140.5t-24.5 -164.5q0 -317 209 -532l-119 -190q-307 301 -307 722q0 76 15.5 154t45.5 151t74 137t101.5 112t127.5 75.5t152 27.5q103 0 183 -34t135 -98t83.5 -155.5t28.5 -205.5q0 -17 -2 -46.5t-5 -65t-7 -74.5t-7 -74.5t-5 -65
t-2 -46.5q0 -81 13 -135.5t41 -88t73 -47.5t108 -14q49 0 89.5 25t68.5 70t43.5 107.5t15.5 137.5v787h216v-787q0 -68 30.5 -129.5t81 -109t116.5 -75.5t138 -28q316 0 322 530q-101 -92 -230 -92q-72 0 -138 28.5t-116.5 77.5t-80 113t-29.5 136q0 71 29 135.5t78 113.5
t114 78t137 29q78 0 142 -27t114.5 -74t87.5 -109t61.5 -132.5t36.5 -144.5t12 -144zM2327 1008q-55 118 -162 118q-29 0 -55 -11.5t-45.5 -30.5t-31.5 -45t-12 -54t11.5 -53.5t31 -44.5t46 -30.5t55.5 -11.5q125 0 162 163zM2886 1786q0 -74 -33.5 -139t-90.5 -113.5
t-131 -76.5t-155 -28q-87 0 -164 27t-135 74.5t-91.5 112.5t-33.5 140q0 120 98 227l162 -124q-51 -65 -51 -99q0 -33 17 -61.5t45.5 -49.5t66 -32.5t79.5 -11.5q39 0 76 11.5t66 32t47 47.5t18 57q0 45 -53 101l165 132q98 -130 98 -227z" />
    <glyph glyph-name="ml_haln_nna" horiz-adv-x="2953" 
d="M2627 704q0 -111 -16 -205t-52.5 -180.5t-95.5 -171t-144 -176.5l-112 181q201 202 201 543q0 42 -10 90.5t-28.5 96t-45.5 92t-61 78t-75 54t-88 20.5q-186 0 -186 -364v-763h-218v754q0 103 -11 174t-35 115.5t-61 64t-88 19.5q-243 0 -243 -438v-689h-218v689
q0 97 -24 177.5t-69 138.5t-109 90t-143 32q-58 0 -107 -23t-88 -62t-69 -90t-50 -107t-30 -113t-10 -118q94 77 228 77q74 0 140 -28.5t115.5 -77t78.5 -113.5t29 -137q0 -71 -29 -135t-78 -113t-114 -78t-136 -29q-79 0 -143 27t-114 73t-87 108t-61.5 132t-36 144
t-11.5 145q0 86 16.5 174t48.5 169.5t80.5 152.5t112 123.5t142.5 83t173 30.5q273 0 431 -233q120 233 375 233q177 0 301 -136q132 136 298 136q80 0 150.5 -26.5t129 -72t104.5 -107.5t78 -132.5t48.5 -147t16.5 -151.5zM714 334q0 28 -12 53.5t-32 45t-45.5 31
t-53.5 11.5q-26 0 -51 -8.5t-47 -24t-39 -36.5t-27 -45q38 -167 164 -167q28 0 54 11.5t45.5 31t31.5 44.5t12 53zM2898 1786q0 -74 -33.5 -139t-90.5 -113.5t-131 -76.5t-155 -28q-87 0 -164 27t-135 74.5t-91.5 112.5t-33.5 140q0 120 98 227l162 -124q-51 -65 -51 -99
q0 -33 17 -61.5t45.5 -49.5t66 -32.5t79.5 -11.5q39 0 76 11.5t66 32t47 47.5t18 57q0 45 -53 101l165 132q98 -130 98 -227z" />
    <glyph glyph-name="ml_haln_ta" horiz-adv-x="2182" 
d="M1855 578q0 -333 -231 -609l-165 132q39 42 72 97t57 116.5t37.5 125.5t13.5 123q0 120 -30 223t-85.5 178.5t-133.5 118.5t-183 43q199 -229 199 -584q0 -63 -11 -129.5t-33 -129t-55 -118t-78.5 -97t-103 -65.5t-127.5 -24q-96 0 -174.5 43t-133.5 119t-85 179t-30 222
q0 349 219 591q-99 0 -183 -45.5t-144.5 -123t-95 -181t-34.5 -220.5q0 -59 14 -124.5t39 -128t58 -117.5t71 -92l-163 -130q-32 30 -61.5 72t-55.5 91t-47.5 103t-37 108.5t-24 107.5t-8.5 100q0 96 19.5 192t57 183.5t92.5 163t127 131t159.5 87t190.5 31.5q116 0 221 -50
q117 50 238 50q97 0 181.5 -31t154.5 -85.5t124.5 -128t91.5 -158t56.5 -176.5t19.5 -184zM1190 533q0 347 -202 512q-43 -36 -79 -92t-62 -122.5t-40.5 -138.5t-14.5 -140q0 -74 14.5 -139t41.5 -114t65 -77t85 -28q44 0 79.5 25.5t60.5 70.5t38.5 107t13.5 136zM2128 1786
q0 -74 -33.5 -139t-90.5 -113.5t-131 -76.5t-155 -28q-87 0 -164 27t-135 74.5t-91.5 112.5t-33.5 140q0 120 98 227l162 -124q-51 -65 -51 -99q0 -33 17 -61.5t45.5 -49.5t66 -32.5t79.5 -11.5q39 0 76 11.5t66 32t47 47.5t18 57q0 45 -53 101l165 132q98 -130 98 -227z
" />
    <glyph glyph-name="ml_haln_tha" horiz-adv-x="1972" 
d="M1646 0h-1524v1321h216v-1106h427v637q0 95 33.5 183.5t92 156.5t136.5 108.5t167 40.5q94 0 176.5 -38.5t144 -103.5t96.5 -152.5t35 -184.5v-862zM1430 215v657q0 49 -18.5 95t-50 81t-72.5 56.5t-86 21.5q-49 0 -89.5 -22.5t-69.5 -60.5t-45 -90t-16 -110v-628h447z
M1917 1786q0 -74 -33.5 -139t-90.5 -113.5t-131 -76.5t-155 -28q-87 0 -164 27t-135 74.5t-91.5 112.5t-33.5 140q0 120 98 227l162 -124q-51 -65 -51 -99q0 -33 17 -61.5t45.5 -49.5t66 -32.5t79.5 -11.5q39 0 76 11.5t66 32t47 47.5t18 57q0 45 -53 101l165 132
q98 -130 98 -227z" />
    <glyph glyph-name="ml_haln_da" horiz-adv-x="1577" 
d="M1251 942q0 -192 -134 -299q124 -106 124 -283q0 -85 -31 -152t-88.5 -113.5t-138.5 -71t-180 -24.5h-231v215q45 -1 70.5 -2t50.5 -1.5t40 -0.5q297 0 297 150q0 47 -15.5 80.5t-50.5 54.5t-92.5 31t-141.5 10h-158v215h240q49 0 91 13t72 36.5t47 57t17 74.5
q0 42 -21 77.5t-56.5 61.5t-82 40.5t-96.5 14.5q-115 0 -203 -38t-148 -111.5t-90.5 -180.5t-30.5 -246q0 -45 9.5 -100t25 -108.5t36.5 -100t44 -75.5l-121 -206q-202 262 -202 590q0 177 46 322.5t132.5 250t210 161.5t278.5 57q104 0 192.5 -28.5t152.5 -80.5t100 -126
t36 -164zM1523 1786q0 -74 -33.5 -139t-90.5 -113.5t-131 -76.5t-155 -28q-87 0 -164 27t-135 74.5t-91.5 112.5t-33.5 140q0 120 98 227l162 -124q-51 -65 -51 -99q0 -33 17 -61.5t45.5 -49.5t66 -32.5t79.5 -11.5q39 0 76 11.5t66 32t47 47.5t18 57q0 45 -53 101l165 132
q98 -130 98 -227z" />
    <glyph glyph-name="ml_haln_dha" horiz-adv-x="2069" 
d="M1743 629q0 -80 -15 -159t-44.5 -151t-73.5 -134t-102 -108t-130 -72t-157 -26q-176 0 -296 127q-118 -127 -280 -127q-84 0 -155 26.5t-129.5 73t-103 109t-74.5 134.5t-45.5 150.5t-15.5 156.5q0 76 6 141.5t19.5 124.5t36.5 114.5t56.5 111.5t79.5 116t105 127
l114 -181q-201 -204 -201 -544q0 -87 23.5 -167.5t64.5 -142t97 -98.5t122 -37q180 0 180 327v800h217v-800q0 -71 12.5 -130.5t35.5 -103.5t56 -68.5t75 -24.5q64 0 120 37t97.5 99t65 142.5t23.5 166.5q0 341 -200 544l111 179q82 -76 139.5 -155t94.5 -167.5t54 -189.5
t17 -221zM2015 1786q0 -74 -33.5 -139t-90.5 -113.5t-131 -76.5t-155 -28q-87 0 -164 27t-135 74.5t-91.5 112.5t-33.5 140q0 120 98 227l162 -124q-51 -65 -51 -99q0 -33 17 -61.5t45.5 -49.5t66 -32.5t79.5 -11.5q39 0 76 11.5t66 32t47 47.5t18 57q0 45 -53 101l165 132
q98 -130 98 -227z" />
    <glyph glyph-name="ml_haln_na" horiz-adv-x="2068" 
d="M1742 705q0 -443 -304 -732l-112 180q200 198 200 542q0 91 -18.5 170t-52.5 137t-82 91t-107 33q-224 0 -224 -337v-789h-217v789q0 97 -10 161.5t-31.5 103.5t-55.5 55.5t-83 16.5q-47 0 -88 -20.5t-75 -54t-60.5 -78t-45 -92t-28 -96t-9.5 -90.5q0 -332 205 -540
l-118 -182q-304 310 -304 732q0 76 16 153t47 147.5t76 132t103.5 106.5t128.5 71t152 26q180 0 307 -133q126 133 296 133q117 0 209 -44.5t155.5 -127t96.5 -200.5t33 -264zM2013 1786q0 -74 -33.5 -139t-90.5 -113.5t-131 -76.5t-155 -28q-87 0 -164 27t-135 74.5
t-91.5 112.5t-33.5 140q0 120 98 227l162 -124q-51 -65 -51 -99q0 -33 17 -61.5t45.5 -49.5t66 -32.5t79.5 -11.5q39 0 76 11.5t66 32t47 47.5t18 57q0 45 -53 101l165 132q98 -130 98 -227z" />
    <glyph glyph-name="ml_haln_pa" horiz-adv-x="2621" 
d="M2245 0h-1525v196q121 16 121 141q0 40 -21 77t-55 65.5t-77.5 45.5t-88.5 17q-56 0 -103 -15.5t-82 -43.5t-54.5 -67t-19.5 -85q0 -110 101 -178l-108 -182q-211 103 -211 360q0 92 36.5 170t100.5 135t151.5 89t188.5 32q89 0 172 -33t147.5 -89t103 -130.5
t38.5 -158.5q0 -82 -22 -132h989v1106h218v-1320zM2567 1786q0 -74 -33.5 -139t-90.5 -113.5t-131 -76.5t-155 -28q-87 0 -164 27t-135 74.5t-91.5 112.5t-33.5 140q0 120 98 227l162 -124q-51 -65 -51 -99q0 -33 17 -61.5t45.5 -49.5t66 -32.5t79.5 -11.5q39 0 76 11.5
t66 32t47 47.5t18 57q0 45 -53 101l165 132q98 -130 98 -227z" />
    <glyph glyph-name="ml_haln_pha" horiz-adv-x="2585" 
d="M2259 0h-1539v196q121 16 121 141q0 40 -20.5 77.5t-54.5 65.5t-77.5 45t-89.5 17q-56 0 -103 -15.5t-82 -43.5t-54.5 -67t-19.5 -85q0 -110 101 -178l-108 -182q-211 103 -211 360q0 93 37 171.5t101.5 135t151.5 88t187 31.5q90 0 173 -33t147 -89t102.5 -130.5
t38.5 -157.5t-22 -133h336v638q0 96 33.5 184.5t91 156t135.5 108t168 40.5q96 0 179 -38t145 -103t97.5 -152t35.5 -186v-862zM2040 214v628q0 56 -16.5 107.5t-46 90.5t-70 62.5t-87.5 23.5q-46 0 -87.5 -21t-72.5 -56.5t-49.5 -81.5t-18.5 -96v-657h448zM2531 1786
q0 -74 -33.5 -139t-90.5 -113.5t-131 -76.5t-155 -28q-87 0 -164 27t-135 74.5t-91.5 112.5t-33.5 140q0 120 98 227l162 -124q-51 -65 -51 -99q0 -33 17 -61.5t45.5 -49.5t66 -32.5t79.5 -11.5q39 0 76 11.5t66 32t47 47.5t18 57q0 45 -53 101l165 132q98 -130 98 -227z
" />
    <glyph glyph-name="ml_haln_ba" horiz-adv-x="3064" 
d="M2676 0h-1041v205q48 26 86.5 74t65 113.5t40.5 144.5t14 167q0 87 -24 164t-66.5 134t-101.5 90.5t-129 33.5q-56 0 -96.5 -19.5t-69.5 -53.5t-47.5 -80t-29 -99t-14.5 -111.5t-4 -116.5v-646h-217v648q0 108 -24 196.5t-68.5 151t-108.5 96.5t-145 34q-58 0 -107 -23
t-88.5 -61.5t-69 -89.5t-50 -107t-30.5 -113.5t-10 -120.5q91 79 230 79q72 0 137.5 -29t115.5 -78t79.5 -113.5t29.5 -135.5t-29 -135.5t-78.5 -113t-114.5 -77.5t-136 -29q-79 0 -143 27t-114 73t-87 108t-61.5 132t-36 144t-11.5 145q0 88 16 176.5t48 169.5t80 152
t112 123t143.5 82t174.5 30q260 0 421 -222q31 50 74 91t94.5 70t108.5 45t116 16q86 0 160.5 -24.5t135.5 -67.5t108 -103t79 -130.5t48.5 -150t16.5 -161.5q0 -321 -125 -490h523v1107h220v-1321zM714 334q0 27 -11.5 52.5t-31 45t-45.5 31.5t-54 12q-116 0 -165 -115
q34 -166 165 -166q29 0 55 11.5t45.5 30.5t30.5 44.5t11 53.5zM3010 1786q0 -74 -33.5 -139t-90.5 -113.5t-131 -76.5t-155 -28q-87 0 -164 27t-135 74.5t-91.5 112.5t-33.5 140q0 120 98 227l162 -124q-51 -65 -51 -99q0 -33 17 -61.5t45.5 -49.5t66 -32.5t79.5 -11.5
q39 0 76 11.5t66 32t47 47.5t18 57q0 45 -53 101l165 132q98 -130 98 -227z" />
    <glyph glyph-name="ml_haln_bha" horiz-adv-x="1803" 
d="M1477 327q0 -81 -38 -145.5t-105.5 -109.5t-160.5 -69t-202 -24q-299 0 -526 200l142 149q164 -137 379 -137q295 0 295 130q0 92 -186 92q-22 0 -65 -7t-90.5 -15.5t-91.5 -15.5t-66 -7q-65 0 -122.5 24t-100 65.5t-67.5 98t-25 122.5q0 62 28 118t74 98.5t106 67.5
t124 25q17 0 46 -3t64 -7.5t73 -10t73 -10t64 -7.5t46 -3q75 0 75 72q0 30 -15.5 50.5t-51 33t-93.5 18.5t-143 6q-150 0 -259.5 -38t-181 -117t-105.5 -201t-34 -291q0 -187 77 -457l-207 -48q-85 312 -85 505q0 210 50.5 371t149.5 270t246 165t340 56q527 0 527 -323
q0 -55 -23 -106.5t-61.5 -92t-88 -65t-102.5 -24.5q-17 0 -45 3.5t-61.5 8.5t-70.5 11t-70.5 11t-61.5 8.5t-44 3.5q-64 0 -105 -27.5t-41 -73.5q0 -23 8.5 -40t26 -29t37 -14.5t37.5 -2.5q21 0 61.5 6t85 13.5t85 13.5t60.5 6q99 0 176 -19.5t130 -58t81 -94.5t28 -129z
M1749 1786q0 -74 -33.5 -139t-90.5 -113.5t-131 -76.5t-155 -28q-87 0 -164 27t-135 74.5t-91.5 112.5t-33.5 140q0 120 98 227l162 -124q-51 -65 -51 -99q0 -33 17 -61.5t45.5 -49.5t66 -32.5t79.5 -11.5q39 0 76 11.5t66 32t47 47.5t18 57q0 45 -53 101l165 132
q98 -130 98 -227z" />
    <glyph glyph-name="ml_haln_ma" horiz-adv-x="1853" 
d="M1527 0h-1405v759q0 261 226 429q205 153 476 153q270 0 476 -153q227 -168 227 -429v-759zM1312 215v486q0 81 -24.5 149t-70.5 120.5t-112 88.5t-149 54q56 -109 56 -232q0 -146 -130 -289q-51 -56 -242 -215q-130 -107 -131 -162h803zM803 872q0 34 -8.5 68.5
t-23.5 66.5t-36 59t-45 45q-353 -74 -353 -410v-342q10 13 38 40.5t65 62t79 72t79.5 71.5t66.5 60.5t40 38.5q98 104 98 168zM1799 1786q0 -74 -33.5 -139t-90.5 -113.5t-131 -76.5t-155 -28q-87 0 -164 27t-135 74.5t-91.5 112.5t-33.5 140q0 120 98 227l162 -124
q-51 -65 -51 -99q0 -33 17 -61.5t45.5 -49.5t66 -32.5t79.5 -11.5q39 0 76 11.5t66 32t47 47.5t18 57q0 45 -53 101l165 132q98 -130 98 -227z" />
    <glyph glyph-name="ml_haln_ya" horiz-adv-x="2525" 
d="M2199 771q0 -99 -22 -196t-63 -185t-101 -163t-136 -130.5t-167 -86.5t-195 -31q-160 0 -311 84q-161 -84 -335 -84q-170 0 -308 62t-235.5 169.5t-150.5 252.5t-53 312q0 67 15.5 135t45 131t71.5 117.5t95 95t116 64t134 23.5q220 0 328 -156q115 156 279 156
q66 0 122 -23t101 -62.5t79 -92.5t57 -112.5t34.5 -123t11.5 -123.5q0 -352 -219 -595q55 -15 129 -15q71 0 132.5 25.5t112.5 69t91 102t67.5 123.5t42 134t14.5 134q0 69 -25 131t-68.5 110t-102 78t-125.5 34l71 208q103 -13 189.5 -62t148 -125t96 -174.5t34.5 -210.5z
M1393 821q0 58 -14.5 113t-39.5 97.5t-59 68.5t-74 26q-163 0 -163 -329q0 -275 168 -464q182 174 182 488zM1036 219q-48 64 -79.5 114t-51.5 94.5t-32 87t-21 90.5l-27 201q-25 166 -76 243t-137 77q-57 0 -107 -29t-86.5 -77.5t-57.5 -111.5t-21 -131q0 -126 39 -232.5
t108.5 -184.5t166 -122t212.5 -44q92 0 170 25zM2471 1786q0 -74 -33.5 -139t-90.5 -113.5t-131 -76.5t-155 -28q-87 0 -164 27t-135 74.5t-91.5 112.5t-33.5 140q0 120 98 227l162 -124q-51 -65 -51 -99q0 -33 17 -61.5t45.5 -49.5t66 -32.5t79.5 -11.5q39 0 76 11.5t66 32
t47 47.5t18 57q0 45 -53 101l165 132q98 -130 98 -227z" />
    <glyph glyph-name="ml_haln_ra" horiz-adv-x="1933" 
d="M1607 531q0 -119 -34 -220t-94.5 -174.5t-145.5 -115.5t-187 -42q-107 0 -194.5 42t-150 116.5t-96.5 177t-34 224.5q0 94 25.5 179.5t73.5 157.5t117 127.5t156 89.5q-81 33 -163 33q-111 0 -210 -44t-172.5 -120.5t-116.5 -179t-43 -219.5q0 -236 149 -403l-116 -195
q-249 271 -249 617q0 103 26.5 199t75.5 180.5t117.5 154t151.5 120t178.5 78t199.5 27.5q107 0 203 -31t178 -86.5t147.5 -132t111.5 -166.5t71 -190.5t25 -203.5zM1391 539q0 231 -156 381q-78 -2 -142.5 -32t-110 -81t-71 -119.5t-25.5 -148.5q0 -68 19 -130t53 -110
t79.5 -76.5t98.5 -28.5q57 0 104 26.5t80.5 73t52 109.5t18.5 136zM1879 1786q0 -74 -33.5 -139t-90.5 -113.5t-131 -76.5t-155 -28q-87 0 -164 27t-135 74.5t-91.5 112.5t-33.5 140q0 120 98 227l162 -124q-51 -65 -51 -99q0 -33 17 -61.5t45.5 -49.5t66 -32.5t79.5 -11.5
q39 0 76 11.5t66 32t47 47.5t18 57q0 45 -53 101l165 132q98 -130 98 -227z" />
    <glyph glyph-name="ml_haln_rra" horiz-adv-x="1912" 
d="M1586 634q0 -86 -26 -176.5t-73 -178t-112 -168t-144 -144.5l-136 167q61 68 111.5 123t86.5 110.5t55.5 119t19.5 147.5q0 103 -41 192.5t-111 156t-164 105t-200 38.5q-105 0 -198 -38.5t-163 -105t-111 -156t-41 -192.5q0 -84 20 -147.5t56 -120t86.5 -111.5
t111.5 -121l-137 -167q-80 64 -145 144.5t-111.5 168t-72 178t-25.5 176.5q0 102 26 194.5t73.5 171t114 141.5t147.5 107.5t174.5 68.5t194.5 24t194.5 -24t175 -68.5t149 -107.5t115 -141.5t74 -171t26.5 -194.5zM1857 1786q0 -74 -33.5 -139t-90.5 -113.5t-131 -76.5
t-155 -28q-87 0 -164 27t-135 74.5t-91.5 112.5t-33.5 140q0 120 98 227l162 -124q-51 -65 -51 -99q0 -33 17 -61.5t45.5 -49.5t66 -32.5t79.5 -11.5q39 0 76 11.5t66 32t47 47.5t18 57q0 45 -53 101l165 132q98 -130 98 -227z" />
    <glyph glyph-name="ml_haln_la" horiz-adv-x="2216" 
d="M1833 0h-1711v810q0 105 45 201.5t120 169.5t172 116.5t202 43.5q71 0 138 -19.5t126 -55.5t108 -85t84.5 -108t55.5 -126t20 -137v-413h-856v-182h1281v1106h215v-1321zM977 606v194q0 64 -25.5 123t-68.5 104t-100.5 72t-121.5 27q-65 0 -123.5 -26.5t-103 -71.5
t-71 -104t-26.5 -124v-194h640zM2162 1786q0 -74 -33.5 -139t-90.5 -113.5t-131 -76.5t-155 -28q-87 0 -164 27t-135 74.5t-91.5 112.5t-33.5 140q0 120 98 227l162 -124q-51 -65 -51 -99q0 -33 17 -61.5t45.5 -49.5t66 -32.5t79.5 -11.5q39 0 76 11.5t66 32t47 47.5t18 57
q0 45 -53 101l165 132q98 -130 98 -227z" />
    <glyph glyph-name="ml_haln_lla" horiz-adv-x="1845" 
d="M1519 -641h-1109q-56 0 -107.5 25t-91 66.5t-63.5 94t-24 108.5q0 62 23.5 115t64 91.5t94 60.5t113.5 22h434q123 0 209 14t140 42.5t78.5 73t24.5 106.5q0 56 -22 99.5t-64 73.5t-102.5 46t-136.5 16v218q325 0 325 217q0 62 -28 113t-78 87t-119 55.5t-150 19.5
q-116 0 -216 -34.5t-177.5 -98t-130 -153.5t-71.5 -200q88 75 220 75q73 0 137.5 -28.5t112.5 -77.5t76 -114.5t28 -139.5q0 -76 -29 -141.5t-79 -114t-116.5 -76t-142.5 -27.5q-69 0 -126.5 24.5t-104 66.5t-82 97.5t-59.5 118.5t-36 129t-12 128q0 113 28 215t79.5 189
t124 157.5t161 120t191.5 76t215 26.5q132 0 241.5 -34.5t189 -99t123.5 -155.5t44 -204q0 -43 -12.5 -92t-33.5 -95t-49.5 -85t-60.5 -62q156 -98 156 -326q0 -120 -37.5 -207t-119 -143.5t-209.5 -84t-309 -27.5h-415q-90 0 -90 -74q0 -14 6 -28t16 -24.5t23 -17t26 -6.5
h1109v-217zM694 352q0 28 -12 54t-31.5 45.5t-45 31t-52.5 11.5q-136 0 -165 -158q62 -125 165 -125q28 0 54 11t45 30.5t30.5 45t11.5 54.5zM1790 1786q0 -74 -33.5 -139t-90.5 -113.5t-131 -76.5t-155 -28q-87 0 -164 27t-135 74.5t-91.5 112.5t-33.5 140q0 120 98 227
l162 -124q-51 -65 -51 -99q0 -33 17 -61.5t45.5 -49.5t66 -32.5t79.5 -11.5q39 0 76 11.5t66 32t47 47.5t18 57q0 45 -53 101l165 132q98 -130 98 -227z" />
    <glyph glyph-name="ml_haln_llla" horiz-adv-x="1846" 
d="M1600 947q0 -55 -17.5 -109.5t-49.5 -106t-76 -98t-96 -85t-110.5 -67t-120.5 -43.5q-17 -459 -491 -459q-63 0 -127.5 18t-125.5 50t-116 77.5t-98 101.5l170 155q123 -187 332 -187q213 0 237 205q-31 -1 -60 -1q-83 0 -169 16.5t-167 49t-152.5 80.5t-125 110.5
t-84.5 139t-31 166.5q0 227 215 403l136 -158q-135 -134 -135 -254q0 -55 25.5 -101t67.5 -83.5t96.5 -65.5t113 -47.5t115.5 -29t105 -9.5q24 0 44 1q-36 220 -36 325q0 79 28.5 151.5t77.5 127.5t115 88t141 33q84 0 152 -28.5t116 -80t74.5 -124.5t26.5 -161zM1380 951
q0 33 -11.5 64.5t-32 56t-47.5 39.5t-58 15q-30 0 -56.5 -15.5t-47 -41t-32 -59t-11.5 -69.5q0 -129 30 -286q54 18 102.5 50t84.5 72t57.5 85t21.5 89zM1790 1786q0 -74 -33.5 -139t-90.5 -113.5t-131 -76.5t-155 -28q-87 0 -164 27t-135 74.5t-91.5 112.5t-33.5 140
q0 120 98 227l162 -124q-51 -65 -51 -99q0 -33 17 -61.5t45.5 -49.5t66 -32.5t79.5 -11.5q39 0 76 11.5t66 32t47 47.5t18 57q0 45 -53 101l165 132q98 -130 98 -227z" />
    <glyph glyph-name="ml_haln_va" horiz-adv-x="2791" 
d="M2408 0h-1191l-110 134q69 67 117.5 122t83.5 110.5t55 119t20 148.5q0 103 -41 192.5t-112 156t-166 105t-203 38.5q-107 0 -201.5 -39t-165.5 -105.5t-112 -156t-41 -191.5q0 -84 20.5 -148t57 -120.5t87.5 -111t113 -120.5l-138 -167q-81 64 -147.5 144.5t-113.5 168
t-72.5 178t-25.5 176.5q0 154 58.5 284t159 224t235 146.5t286.5 52.5q101 0 196 -23.5t177.5 -68t150.5 -107.5t116.5 -141.5t75.5 -171t27 -195.5q0 -209 -136 -420h722v1107h218v-1321zM2717 1786q0 -74 -33.5 -139t-90.5 -113.5t-131 -76.5t-155 -28q-87 0 -164 27
t-135 74.5t-91.5 112.5t-33.5 140q0 120 98 227l162 -124q-51 -65 -51 -99q0 -33 17 -61.5t45.5 -49.5t66 -32.5t79.5 -11.5q39 0 76 11.5t66 32t47 47.5t18 57q0 45 -53 101l165 132q98 -130 98 -227z" />
    <glyph glyph-name="ml_haln_sha" horiz-adv-x="2224" 
d="M1895 569q0 -136 -26.5 -245.5t-78.5 -186t-127.5 -117.5t-173.5 -41q-90 0 -162 29t-122.5 83t-77.5 130.5t-27 170.5q0 97 30.5 196t85 189.5t130.5 167.5t167 131q-77 50 -191 50q-211 0 -264 -365q-23 -158 -35 -241.5t-14 -93.5q-25 -116 -63 -200.5t-91.5 -139.5
t-123 -81t-156.5 -26q-107 0 -191 44t-142 125t-89 194.5t-31 252.5q0 142 30 265t88 220t141.5 165t190.5 99l50 -204q-63 -17 -115 -69t-89.5 -126t-58 -164.5t-20.5 -185.5q0 -92 15.5 -166t45 -126.5t72.5 -80.5t98 -28q103 0 167.5 99.5t90.5 314.5q8 63 14 124t14 123
q81 486 468 486q571 0 571 -772zM1672 569q0 202 -37 323q-69 -41 -128.5 -98.5t-102.5 -124t-67.5 -138t-24.5 -139.5q0 -198 154 -198q53 0 91.5 20.5t64 65.5t38 116.5t12.5 172.5zM2168 1786q0 -74 -33.5 -139t-90.5 -113.5t-131 -76.5t-155 -28q-87 0 -164 27
t-135 74.5t-91.5 112.5t-33.5 140q0 120 98 227l162 -124q-51 -65 -51 -99q0 -33 17 -61.5t45.5 -49.5t66 -32.5t79.5 -11.5q39 0 76 11.5t66 32t47 47.5t18 57q0 45 -53 101l165 132q98 -130 98 -227z" />
    <glyph glyph-name="ml_haln_ssa" horiz-adv-x="2638" 
d="M2257 0h-1537v196q121 16 121 141q0 40 -20.5 77.5t-54.5 65.5t-77.5 45t-89.5 17q-56 0 -103 -15.5t-82 -43.5t-54.5 -67t-19.5 -85q0 -110 101 -178l-108 -182q-211 103 -211 360q0 93 37 171t101 135t151 88.5t188 31.5q90 0 173 -33t147 -89t102.5 -130.5
t38.5 -157.5t-22 -133h447v362q-22 -2 -37 -2q-129 0 -231 28t-172.5 81.5t-108 131.5t-37.5 178q0 73 30 136.5t82 110.5t120.5 74t146.5 27q404 0 424 -513q76 25 138 61.5t106.5 81t69 95t24.5 104.5v151h217v-1321zM2040 214v552q-150 -119 -337 -162v-390h337z
M1485 800q0 326 -207 326q-35 0 -65 -10t-51.5 -27.5t-34 -42t-12.5 -53.5q0 -207 350 -207q10 0 20 1v13zM2565 1786q0 -74 -33.5 -139t-90.5 -113.5t-131 -76.5t-155 -28q-87 0 -164 27t-135 74.5t-91.5 112.5t-33.5 140q0 120 98 227l162 -124q-51 -65 -51 -99
q0 -33 17 -61.5t45.5 -49.5t66 -32.5t79.5 -11.5q39 0 76 11.5t66 32t47 47.5t18 57q0 45 -53 101l165 132q98 -130 98 -227z" />
    <glyph glyph-name="ml_haln_sa" horiz-adv-x="2727" 
d="M2401 675q0 -258 -116 -455q-141 -241 -394 -241q-417 0 -417 449q0 17 1.5 48t3.5 68t5 78t5 78t3.5 68t1.5 48q0 68 -16.5 125t-46.5 98t-72.5 64t-94.5 23q-214 0 -214 -337v-789h-219v789q0 97 -10 161.5t-31.5 103.5t-56.5 55.5t-84 16.5q-47 0 -88.5 -20.5
t-75.5 -54t-61 -78t-45.5 -92t-28 -96t-9.5 -90.5q0 -331 206 -540l-119 -183q-84 85 -142.5 166.5t-94.5 168t-52.5 184t-16.5 214.5q0 76 16.5 153t48 148t77 132t104 106t129 71t152.5 26q183 0 310 -133q127 133 299 133q106 0 191 -34t144.5 -97t91.5 -152t32 -198
q0 -19 -1.5 -50.5t-4 -70t-5.5 -80.5t-5.5 -80.5t-4 -70.5t-1.5 -50q0 -71 11.5 -121t36.5 -82t62.5 -46.5t90.5 -14.5q63 0 116.5 37t92.5 100t60.5 145.5t21.5 173.5q0 318 -202 521l116 192q300 -296 300 -688zM2673 1786q0 -74 -33.5 -139t-90.5 -113.5t-131 -76.5
t-155 -28q-87 0 -164 27t-135 74.5t-91.5 112.5t-33.5 140q0 120 98 227l162 -124q-51 -65 -51 -99q0 -33 17 -61.5t45.5 -49.5t66 -32.5t79.5 -11.5q39 0 76 11.5t66 32t47 47.5t18 57q0 45 -53 101l165 132q98 -130 98 -227z" />
    <glyph glyph-name="ml_haln_ha" horiz-adv-x="3270" 
d="M2930 634q0 -86 -26 -176.5t-73 -177.5t-113.5 -167t-148.5 -146l-138 167q83 83 137 147.5t85.5 121.5t44 111.5t12.5 119.5q0 103 -42.5 193t-114.5 156.5t-167.5 104.5t-201.5 38t-200.5 -38t-166 -104t-113 -156t-41.5 -194q0 -60 10.5 -112.5t34 -103.5t64 -104
t106.5 -115v-199h-1155v196q122 17 122 141q0 41 -21.5 78.5t-56 65.5t-78.5 44.5t-88 16.5q-55 0 -102.5 -16t-82.5 -44t-55 -66.5t-20 -84.5q0 -111 102 -178l-109 -182q-212 104 -212 360q0 93 37 171t101.5 135t152 88.5t188.5 31.5q85 0 168 -31t149 -86t106.5 -130.5
t40.5 -163.5q0 -82 -22 -132h534q-135 210 -135 420q0 104 26.5 197t75 171.5t116 141t150 106.5t177 67.5t197.5 23.5q102 0 196.5 -23.5t177.5 -68t151.5 -107.5t117.5 -141.5t76 -171t27 -195.5zM3214 1786q0 -74 -33.5 -139t-90.5 -113.5t-131 -76.5t-155 -28
q-87 0 -164 27t-135 74.5t-91.5 112.5t-33.5 140q0 120 98 227l162 -124q-51 -65 -51 -99q0 -33 17 -61.5t45.5 -49.5t66 -32.5t79.5 -11.5q39 0 76 11.5t66 32t47 47.5t18 57q0 45 -53 101l165 132q98 -130 98 -227z" />
    <glyph glyph-name="ml_pstf_ya" horiz-adv-x="1178" 
d="M892 -329q0 -118 -41.5 -217.5t-114 -172t-171 -113t-213.5 -40.5q-474 0 -474 368q0 84 127 207q54 52 83 83.5t42 55t15 45.5t2 57h212v-56q0 -93 -69 -178q-14 -17 -46.5 -47.5t-83.5 -75.5q-69 -62 -69 -93q0 -40 14 -68.5t44.5 -47t80 -27t121.5 -8.5q74 0 134.5 26
t104 73t67.5 111.5t24 141.5q0 104 -47 281q-20 70 -40 139t-40 139q-42 146 -61.5 281.5t-19.5 263.5q0 112 17 191.5t33 143.5t47 186h213q-17 -73 -34 -148.5t-31 -148t-23 -139.5t-9 -122q0 -190 103 -545t103 -546z" />
    <glyph glyph-name="ml_pstf_ra" horiz-adv-x="538" 
d="M724 -450q-156 0 -269.5 42.5t-187.5 133t-109.5 231t-35.5 337.5q0 177 33 414q13 79 24.5 144t22.5 133t21.5 147.5t20.5 187.5h212l-73 -489q-28 -187 -41.5 -320.5t-13.5 -216.5q0 -418 185 -501q66 -29 211 -29v-214z" />
    <glyph glyph-name="ml_pstf_rra" horiz-adv-x="538" 
d="M724 -450q-156 0 -269.5 42.5t-187.5 133t-109.5 231t-35.5 337.5q0 177 33 414q13 79 24.5 144t22.5 133t21.5 147.5t20.5 187.5h212l-73 -489q-28 -187 -41.5 -320.5t-13.5 -216.5q0 -418 185 -501q66 -29 211 -29v-214z" />
    <glyph glyph-name="ml_pstf_va" horiz-adv-x="905" 
d="M784 0h-784v215h574v1105h210v-1320z" />
    <glyph glyph-name="ml_k_ka" horiz-adv-x="3072" 
d="M2950 603q0 -93 -21.5 -183t-63 -171t-101.5 -151.5t-136 -125.5l-154 165q56 33 103.5 84.5t81.5 114.5t53 133.5t19 140.5q0 108 -35.5 202.5t-98.5 164t-150.5 109.5t-190.5 40q-74 0 -139.5 -22.5t-119 -65.5t-94 -104.5t-64.5 -140.5q121 -20 221 -62.5
t171.5 -102.5t111 -135t39.5 -161q0 -77 -23.5 -142t-66.5 -112t-102.5 -73t-132.5 -26q-111 0 -198 41t-147 118t-91.5 187.5t-31.5 248.5q1 27 1 37q-49 5 -99 5q-16 -637 -426 -637q-169 0 -271 107q-146 -107 -301 -107q-81 0 -149 29.5t-117.5 81.5t-77 123t-27.5 154
q0 106 30 186t93.5 136.5t163 90t239.5 46.5q53 515 417 515q356 0 418 -513q66 0 143 -6q33 117 94 213t143.5 164t183.5 105t215 37q301 0 500 -226q188 -215 188 -512zM2162 315q0 211 -353 268q0 -97 17 -166t49 -118.5t78.5 -77t106.5 -27.5q102 0 102 121zM1263 837
q-37 289 -198 289q-165 0 -198 -289h396zM1273 622h-415q0 -428 207 -428q54 0 93 24t64.5 75.5t38 133t12.5 195.5zM690 269q-49 138 -50 344q-80 -8 -137 -26t-93 -48t-52.5 -72.5t-16.5 -99.5q0 -39 10 -70.5t29.5 -54.5t48 -35.5t64.5 -12.5q101 0 197 75z" />
    <glyph glyph-name="ml_k_ta" horiz-adv-x="3524" 
d="M3401 553q0 -309 -234 -583l-169 131q40 40 73.5 95t58 117t38.5 126.5t14 123.5q0 121 -31 224.5t-87.5 178.5t-135 117.5t-184.5 42.5q202 -229 202 -584q0 -206 -94 -366q-116 -197 -320 -197q-98 0 -177 43t-134.5 119t-86 178.5t-30.5 222.5q0 349 221 591
q-100 0 -185 -45.5t-146.5 -123t-96.5 -181t-35 -220.5q0 -58 14 -123t39 -127.5t58.5 -118t72.5 -93.5l-164 -130q-47 43 -90 113.5t-76 152t-52.5 164.5t-19.5 152q0 30 2 69h-151q-16 -643 -427 -643q-169 0 -273 107q-146 -107 -301 -107q-81 0 -149 29.5t-117.5 81.5
t-77.5 123t-28 154q0 106 30 186t94 136.5t163.5 90t239.5 46.5q53 515 419 515q356 0 418 -504h199q36 115 96.5 208.5t140 159t175.5 101t203 35.5q117 0 223 -50q120 50 242 50q300 0 480 -261q156 -227 156 -527zM2727 533q0 347 -204 512q-43 -36 -79.5 -92t-63.5 -123
t-42 -139t-15 -139q0 -75 15 -140t42.5 -113.5t66 -76.5t85.5 -28q45 0 81 26t61.5 71.5t39 107.5t13.5 134zM1265 837q-36 289 -197 289q-166 0 -200 -289h397zM1275 622h-415q0 -428 208 -428q54 0 93 24t64.5 76t37.5 133t12 195zM691 269q-47 138 -50 344
q-80 -8 -137 -26t-93 -48t-52.5 -72.5t-16.5 -99.5q0 -39 10 -70.5t29.5 -54.5t48 -35.5t64.5 -12.5q108 0 197 75z" />
    <glyph glyph-name="ml_k_ssa" horiz-adv-x="3373" 
d="M3252 0h-1640v220q33 -6 57 -6q72 0 116 41.5t44 111.5q0 57 -19 100t-59.5 73.5t-104 49t-152.5 26.5q-16 -637 -427 -637q-170 0 -272 107q-146 -107 -301 -107q-81 0 -149 29.5t-117.5 81.5t-77.5 123t-28 154q0 106 30 186t94 136.5t163.5 90t239.5 46.5
q53 515 418 515q356 0 418 -513q148 -11 255 -44t175 -90t100.5 -138t32.5 -189q0 -84 -31 -153h458v362q-44 -3 -67 -3q-117 0 -213.5 29t-165.5 83.5t-107 132.5t-38 175q0 73 30.5 136.5t82.5 110.5t121.5 74t147.5 27q407 0 428 -512q72 24 134 59.5t108 78t72 89.5
t26 94v171h218v-1321zM3034 214v534q-143 -98 -339 -144v-390h339zM2475 786q0 340 -209 340q-36 0 -66.5 -10t-52 -27.5t-33.5 -42t-12 -53.5q0 -109 92 -158t281 -49zM1265 837q-37 289 -198 289q-166 0 -199 -289h397zM1275 622h-416q0 -428 208 -428q54 0 93 24.5
t64.5 76t38 132.5t12.5 195zM691 269q-49 138 -50 344q-82 -9 -139 -27.5t-93 -48.5t-52 -72t-16 -98q0 -39 10.5 -70.5t30 -54.5t48 -35.5t64.5 -12.5q107 0 197 75z" />
    <glyph glyph-name="ml_g_ga" horiz-adv-x="1908" 
d="M1786 668q0 -74 -15 -152t-44.5 -152t-72.5 -140.5t-99 -116.5t-125 -79t-161 -29v215q67 0 122.5 36t95 98t61.5 144.5t22 175.5q0 39 -5.5 88.5t-18 100t-31.5 99t-46.5 86.5t-64 61t-82.5 23q-60 0 -101 -32t-70.5 -87t-49.5 -128.5t-37.5 -156t-34.5 -170t-40.5 -170
t-56 -156t-80 -128.5t-113.5 -87t-156 -32q-82 0 -148 31t-117.5 83t-88 121t-60.5 146t-35.5 156t-11.5 152q0 140 35.5 259.5t101 207t157.5 137t205 49.5v-215q-60 -2 -111.5 -40t-90 -98.5t-60 -136.5t-21.5 -154q0 -39 5 -90t17 -105t31 -105.5t46 -92t63 -65.5t83 -25
q49 0 83 32t59 87t43.5 128.5t36.5 156t37 170t45 170t61.5 156t86 128.5t118.5 87t159 32q84 0 152 -29t120.5 -78.5t90.5 -115.5t62.5 -141t36.5 -154t12 -155zM1766 -482q0 -93 -40.5 -174.5t-109 -141.5t-158.5 -94.5t-189 -34.5v187q62 1 117.5 21t97 54.5t66 81.5
t24.5 101q0 61 -17 111.5t-49.5 85.5t-78 54.5t-102.5 19.5q-135 0 -233 -215q-26 -57 -51 -113t-51 -113q-36 -73 -77 -125t-88 -85.5t-101.5 -49t-118.5 -15.5q-96 0 -179.5 35t-145.5 96t-97.5 143t-35.5 175q0 99 39 182.5t107.5 144.5t162 95t203.5 34v-191
q-71 0 -130 -19t-101 -54t-65.5 -83.5t-23.5 -108.5q0 -52 21.5 -96.5t58.5 -77.5t85.5 -52t102.5 -19q144 0 239 210q25 57 49.5 113t49.5 113q35 70 74.5 120.5t86 82.5t101.5 47t121 15q102 0 182.5 -32.5t137 -92.5t86.5 -145t30 -190z" />
    <glyph glyph-name="ml_g_na" horiz-adv-x="2533" 
d="M2411 704q0 -122 -16.5 -222t-53.5 -187t-95 -165t-141 -157l-114 179q202 199 202 543q0 92 -18.5 171t-52.5 136.5t-83 90.5t-109 33q-226 0 -226 -337v-790h-218v790q0 93 -9.5 157.5t-29.5 104t-51.5 57t-75.5 17.5q-47 0 -83.5 -17.5t-64.5 -58t-49.5 -106
t-38.5 -161.5q-15 -85 -28.5 -170t-27.5 -170q-26 -122 -65 -209.5t-93 -143.5t-124 -83t-159 -27q-82 0 -148.5 31t-118 83t-89 121t-62 145.5t-36 156t-11.5 152.5q0 78 13.5 157t40.5 151.5t68.5 135.5t97.5 109.5t126.5 73t156.5 26.5v-215q-71 0 -124 -37t-89 -97.5
t-54 -137.5t-18 -157q0 -40 5 -91t17 -104.5t31 -105t46.5 -92t64 -65.5t83.5 -25q51 0 90.5 18t70.5 59t53 106t38 160q2 14 10 66.5t22 143.5q41 280 109 402q108 192 337 192q166 0 297 -134q126 134 300 134q117 0 209.5 -44.5t156.5 -127t97.5 -200.5t33.5 -265z" />
    <glyph glyph-name="ml_g_ma" horiz-adv-x="3140" 
d="M3019 0h-1431v668q0 91 -18.5 174t-52 146t-79.5 100.5t-101 37.5q-50 0 -89 -18t-69.5 -58.5t-53 -106t-38.5 -160.5q-15 -86 -28 -171t-27 -171q-25 -122 -64 -209t-93.5 -143.5t-125.5 -83t-160 -26.5q-83 0 -149.5 30.5t-118.5 83t-89.5 121.5t-62 145.5t-36 156
t-11.5 152.5q0 76 13 154.5t40 151t67.5 136t95 110.5t124 74t165.5 27v-215q-71 0 -124.5 -35t-89.5 -94t-54 -136.5t-18 -163.5q0 -40 5.5 -91t17 -105t31 -105.5t47 -92t64 -65t83.5 -24.5q52 0 91.5 17.5t70 58t53 106t39.5 161.5q2 12 9 64t21 146q20 140 47.5 240
t62.5 162q109 192 344 192q249 0 384 -253q48 57 114.5 103.5t144 79.5t162.5 51t170 18q272 0 483 -151q234 -168 234 -432v-757zM2800 213v487q0 80 -24.5 148t-71 120.5t-114.5 88.5t-154 54q58 -107 58 -231q0 -144 -132 -289q-26 -29 -87 -83t-158 -133
q-132 -107 -134 -162h817zM2281 870q0 158 -115 240q-360 -81 -360 -442v-311q28 35 67.5 73.5t91.5 81.5q80 66 122.5 101.5t103.5 91.5q90 82 90 165z" />
    <glyph glyph-name="ml_ng_ka" horiz-adv-x="2151" 
d="M2029 360q0 -80 -27.5 -149t-76 -121t-115 -81.5t-145.5 -29.5q-124 0 -263 103l99 196q85 -84 153 -84q33 0 61.5 14.5t50 38.5t33.5 55.5t12 65.5q0 47 -24 90.5t-67 79.5t-103 63t-132 42q1 -25 1 -46q0 -146 -28 -260.5t-81.5 -194t-131 -121.5t-177.5 -42
q-179 0 -275 110q-131 -110 -279 -110q-81 0 -152.5 31t-125 84t-84 124t-30.5 152q0 173 107 295q-107 109 -107 273q0 80 34 153t90.5 128.5t130.5 88.5t155 33q157 0 272 -100q103 100 252 100q87 0 161 -36.5t129.5 -100.5t89 -150.5t39.5 -185.5q64 -11 130 -33.5
t127.5 -56t115.5 -76.5t94.5 -96t63.5 -114.5t23 -131.5zM1251 897q-6 50 -21.5 92t-39 72.5t-54 47.5t-65.5 17t-65.5 -16.5t-54.5 -46.5t-41 -71.5t-24 -92.5q37 4 80.5 6t94.5 2q42 0 89 -2.5t101 -7.5zM1268 646q0 16 -1 36q-33 5 -82.5 7.5t-116.5 2.5q-147 0 -214 -12
q-2 -19 -3 -43t-1 -55q0 -78 15.5 -148.5t43 -123.5t65.5 -84.5t84 -31.5q139 0 186 170q24 88 24 282zM687 1049q-65 74 -155 74q-38 0 -73 -15t-61.5 -40.5t-42.5 -60t-16 -72.5q0 -84 66 -145q105 48 248 78q6 106 34 181zM687 262q-51 150 -54 395q-66 -14 -120 -41.5
t-92.5 -65.5t-60 -85.5t-21.5 -100.5q0 -36 12 -67.5t33.5 -54t52 -35.5t67.5 -13q23 0 51.5 5.5t55 15t47.5 22t29 25.5z" />
    <glyph glyph-name="ml_ng_nga" horiz-adv-x="3399" 
d="M3278 370q0 -89 -28.5 -161.5t-81 -123.5t-126.5 -78.5t-164 -27.5q-47 0 -82 4t-70 16t-75 35.5t-96 62.5l107 196q114 -99 190 -99q211 0 211 173q0 183 -264 183q-70 0 -126 -3v215q10 0 31 -0.5t44.5 -1.5t44.5 -1.5t31 -0.5q61 0 102.5 8.5t67.5 27.5t37.5 48
t11.5 70q0 50 -17.5 90t-48.5 68.5t-74 43.5t-95 15q-51 0 -101 -22t-95 -59.5t-82 -88t-62 -107.5q-59 -136 -59 -292v-560h-220v695q0 82 -34 157.5t-92.5 134t-136 95.5t-165.5 43q129 -116 129 -273q0 -99 -60 -201q129 -116 129 -278q0 -87 -32 -159t-88 -124.5
t-131.5 -81.5t-162.5 -29q-115 0 -208 46.5t-158.5 129.5t-101 197t-35.5 248q0 67 14 138.5t39 140t60 129.5t76 108q-35 5 -75 7.5t-88 2.5q-113 0 -219 -31t-196 -87t-159 -135.5t-108 -175.5q88 33 167 33q89 0 164.5 -26.5t130.5 -75.5t86 -117t31 -150
q0 -79 -32 -148.5t-87.5 -121.5t-130 -82t-159.5 -30q-103 0 -184 35t-136.5 100.5t-84.5 159.5t-29 211q0 130 36.5 243.5t101.5 209t153.5 170.5t192.5 126.5t219 79t233 27.5q275 0 428 -50q114 50 244 50q84 0 169 -26t162 -72t141.5 -108.5t107.5 -135.5
q37 81 89.5 144.5t116.5 107.5t138.5 67t156.5 23q96 0 178.5 -32t142.5 -89t94 -136t34 -172q0 -34 -9.5 -72t-26 -74t-39 -67t-48.5 -52q141 -113 141 -277zM1736 373q0 163 -257 163v209q36 1 70 9.5t61 22.5t43.5 33.5t16.5 41.5q0 27 -14 56t-38 55.5t-56.5 49.5
t-70.5 38q-50 -29 -92.5 -79.5t-73.5 -112t-48 -130.5t-17 -136q0 -87 20 -160t58 -126.5t91.5 -83t121.5 -29.5q85 0 135 47.5t50 131.5zM744 354q0 33 -15.5 62.5t-41.5 51t-59.5 34.5t-70.5 13q-41 0 -77 -13t-64 -35t-44 -52t-16 -64q0 -32 17 -60.5t44.5 -50t64 -34
t75.5 -12.5q37 0 71 12t59.5 33.5t41 51t15.5 63.5z" />
    <glyph glyph-name="ml_c_ca" horiz-adv-x="2347" 
d="M2225 -625h-1696v138l1124 487h-1531v218h774q66 0 124 36.5t102 91.5t69.5 120t25.5 123q0 52 -13.5 96.5t-38.5 77.5t-59 51.5t-76 18.5q-40 0 -75.5 -15.5t-62.5 -42t-42.5 -62t-15.5 -76.5q0 -65 85 -123l-120 -167q-183 135 -183 300q0 85 31.5 159t86 128t128.5 85
t159 31q92 0 168.5 -35t131 -97t85 -146.5t30.5 -182.5q0 -210 -151 -371h722v1102h218v-1945zM2007 -409v380l-878 -380h878z" />
    <glyph glyph-name="ml_c_cha" horiz-adv-x="2347" 
d="M2225 0h-2103v215h744q123 0 237 123t114 244q0 51 -13.5 95.5t-38.5 76.5t-59 50.5t-76 18.5q-40 0 -75.5 -15.5t-62.5 -41.5t-42.5 -61.5t-15.5 -75.5q0 -63 85 -121l-120 -165q-183 133 -183 296q0 84 31.5 157t86 127t128.5 84.5t159 30.5q91 0 167.5 -34.5
t131.5 -95.5t85.5 -144.5t30.5 -181.5q0 -207 -151 -367h722v1105h218v-1320zM2247 -508q0 -73 -20.5 -136.5t-57.5 -111t-88.5 -74.5t-113.5 -27q-49 0 -94 20.5t-79 54.5t-54 79t-20 93q0 49 20 93.5t54 79t79 55t95 20.5q32 0 69 -8q-15 34 -39.5 63t-55.5 50t-67 33
t-74 12q-56 0 -107 -21.5t-91 -58t-63.5 -85t-23.5 -102.5q0 -103 91 -184v-174h-1095v202h322q34 0 65 18t54.5 47t37.5 67t14 78q0 34 -25.5 56.5t-62.5 22.5q-79 0 -79 -76q0 -44 55 -74l-98 -116q-151 76 -151 196q0 52 22.5 98.5t60.5 82t86.5 56.5t101.5 21
q56 0 105.5 -21t87 -57.5t59.5 -85.5t22 -104q0 -118 -52 -209h214q-28 83 -28 156q0 96 37.5 179t101.5 144.5t150 97t183 35.5q99 0 182 -36.5t143 -101.5t93.5 -154t33.5 -193zM2065 -618q0 78 -80 78q-81 0 -81 -78q0 -34 23.5 -57t57.5 -23q80 0 80 80z" />
    <glyph glyph-name="ml_j_ja" horiz-adv-x="3239" 
d="M3117 265q0 -63 -23 -116t-63.5 -90.5t-96 -58.5t-120.5 -21q-45 0 -88 14.5t-79.5 40.5t-64.5 61.5t-42 78.5q-270 -195 -514 -195q-81 0 -149.5 24t-119 66.5t-79 101.5t-28.5 129q0 57 31.5 105t85.5 87.5t126 70.5t153 52q22 4 45.5 9t53.5 11t69.5 14t94 20t127 27
t167.5 36q297 64 297 218q0 81 -46.5 128.5t-125.5 47.5q-193 0 -193 -203v-131h-219v138q0 39 -20 74.5t-52 62.5t-72.5 43t-76.5 16q-12 0 -24 -1q34 -16 63.5 -43t51 -60t33.5 -71t12 -75q0 -52 -23 -98.5t-61.5 -81.5t-89 -55.5t-105.5 -20.5q-106 0 -177 52
q-98 -184 -214.5 -315t-263 -215t-327.5 -123.5t-406 -39.5q-97 0 -178 21.5t-139.5 62t-91.5 98t-33 129.5q0 109 96.5 183.5t301.5 118.5q22 4 45 8t53 9.5t69.5 12.5t93.5 16.5t126 22.5t167 31q78 14 130.5 35t85 52t46.5 73t14 98q0 176 -162 176q-57 0 -91 -15.5
t-52 -56t-23.5 -111t-5.5 -180.5h-219v167q0 38 -21 73.5t-54.5 62.5t-75.5 43.5t-85 16.5q-10 0 -19 -1q34 -16 63.5 -43t51 -60t33.5 -71t12 -75q0 -53 -23.5 -101t-62 -85t-89 -58.5t-104.5 -21.5q-66 0 -121.5 26t-95 71t-62 105.5t-22.5 129.5q0 79 35.5 151.5
t95 127.5t136.5 87.5t160 32.5q221 0 353 -132q117 132 285 132q85 0 155.5 -28t120.5 -79.5t78 -123.5t28 -160q0 -97 -36 -172.5t-101 -131.5t-156 -93t-200 -57q-188 -34 -380 -68q-107 -21 -176 -38.5t-108.5 -33.5t-55 -32t-15.5 -34q0 -96 229 -96q414 0 660 156
q243 155 425 530q-2 16 -3.5 31t-1.5 31q0 52 16.5 102t45.5 94.5t69 81.5t87.5 64t100.5 42t108 15q210 0 344 -132q117 132 305 132q91 0 164 -26t123 -76.5t77 -123t27 -165.5q0 -289 -477 -401l-281 -66q-102 -24 -191 -46t-155.5 -43.5t-104.5 -44.5t-38 -49
q0 -106 162 -106q133 0 288 94q86 59 151.5 102t114.5 73t84 48t60.5 28t44 13.5t34.5 3.5q64 0 120 -22.5t98 -62t66 -92.5t24 -114zM2903 273q0 17 -8.5 33t-21.5 28.5t-30 20t-33 7.5q-36 0 -79 -34q-4 -17 -4 -38q0 -98 87 -98q89 0 89 81zM2011 879q0 24 -19 42.5
t-44 18.5q-35 0 -60 -13q-4 -22 -4 -36q0 -29 19 -52t45 -23q63 0 63 63zM483 879q0 24 -19.5 42.5t-44.5 18.5q-35 0 -60 -13q-4 -20 -4 -36q0 -15 5.5 -28.5t14.5 -24t20.5 -16.5t23.5 -6q64 0 64 63z" />
    </font>
</defs>
</svg>
